<?xml version="1.0" encoding="UTF-8" standalone="no"?>
<!DOCTYPE svg PUBLIC "-//W3C//DTD SVG 1.1//EN" "http://www.w3.org/Graphics/SVG/1.1/DTD/svg11.dtd">
<!-- Created with Vectornator (http://vectornator.io/) -->
<svg height="100%" stroke-miterlimit="10" style="fill-rule:nonzero;clip-rule:evenodd;stroke-linecap:round;stroke-linejoin:round;" version="1.1" viewBox="0 0 2086 2086" width="100%" xml:space="preserve" xmlns="http://www.w3.org/2000/svg" xmlns:vectornator="http://vectornator.io" xmlns:xlink="http://www.w3.org/1999/xlink">
<defs/>
<g id="Untitled" vectornator:layerName="Untitled">
<g opacity="1">
<path d="M1371.35 798.292C1370.95 798.373 1368.76 798.535 1366.49 798.697C1350.69 799.588 1332.54 802.429 1319.17 805.913C1242.45 826.005 1174.64 882.48 1127.49 965.443C1121.82 975.489 1114.12 990.639 1114.12 991.774C1114.12 992.341 1112.09 997.207 1109.74 1002.64C1083 1062.18 1068.75 1129.75 1068.75 1197.56C1068.75 1217.9 1069.47 1228.75 1072.07 1246.17C1072.96 1252.17 1074.02 1259.86 1074.42 1263.26C1076.77 1283.03 1090.06 1326.53 1103.92 1359.75C1116.8 1390.78 1141.5 1438.27 1153.82 1456.01C1155.52 1458.44 1160.13 1465.16 1164.02 1471C1167.83 1476.75 1174.15 1485.83 1177.87 1491.1C1189.3 1506.98 1192.79 1516.52 1192.63 1531.84C1192.63 1536.7 1188.11 1557.24 1187.54 1559.51C1186.98 1561.7 1172.78 1578.99 1164.35 1584.83C1160.71 1587.42 963.265 1692.58 958.971 1694.28C953.219 1696.55 736.409 1812.56 730.17 1816.69C726.929 1818.88 723.522 1821.4 722.549 1822.29C721.658 1823.1 719.653 1824.65 718.195 1825.7C716.736 1826.68 715.273 1828.12 715.03 1828.84C714.787 1829.65 714.225 1830.31 713.739 1830.31C713.252 1830.31 710.898 1832.1 708.548 1834.36C706.199 1836.55 704.335 1838.41 704.497 1838.41C704.578 1838.41 702.538 1840.68 699.864 1843.35C697.272 1846.11 694.193 1849.84 692.978 1851.71C691.762 1853.49 690.4 1855.26 689.914 1855.58C688.132 1856.71 680.678 1869.03 676.951 1877.05C674.926 1881.43 672.895 1885.56 672.571 1886.29C671.113 1889.05 667.7 1903.07 667.052 1908.9C666.647 1912.3 666.338 1917.41 666.419 1920.24L666.495 1925.51L1375.15 1925.76L2083.76 1925.91L2084.06 1921.71C2084.47 1916.28 2083.26 1903.23 2082.29 1901.94C2081.8 1901.45 2081.72 1900.87 2081.96 1900.55C2082.2 1900.3 2081.88 1898.04 2081.15 1895.61C2080.42 1893.1 2079.78 1890.84 2079.78 1890.52C2079.7 1890.11 2079.28 1889.13 2078.8 1888.24C2078.31 1887.35 2077.83 1886.46 2077.83 1886.22C2077.1 1883.14 2076.29 1881.44 2075.88 1881.76C2075.56 1881.92 2075.25 1881.59 2075.25 1881.03C2075.25 1879.4 2073.3 1874.87 2072.57 1874.87C2072.32 1874.87 2072.01 1874.31 2072.01 1873.66C2072.01 1872.36 2065.11 1860.68 2062.52 1857.61C2061.54 1856.47 2060.09 1854.54 2059.2 1853.33C2055.55 1848.3 2051.34 1843.67 2050.69 1843.83C2050.21 1843.99 2049.97 1843.75 2050.14 1843.43C2050.3 1842.7 2036.11 1827.88 2035.22 1827.88C2034.98 1827.88 2033.45 1826.66 2031.91 1825.2C2025.02 1818.72 2005.57 1807.64 1947.8 1777.09C1943.59 1774.83 1937.28 1771.49 1933.87 1769.63C1930.39 1767.84 1924.88 1764.93 1921.72 1763.14C1918.48 1761.44 1908.67 1756.19 1900 1751.57C1891.33 1746.87 1880.23 1740.95 1875.29 1738.36C1870.43 1735.76 1864.19 1732.44 1861.51 1731.07C1848.47 1724.02 1843.94 1721.66 1837.46 1718.18C1828.23 1713.32 1817.76 1707.82 1809.66 1703.37C1806.1 1701.5 1800.1 1698.42 1796.29 1696.63C1786.57 1691.93 1590.11 1587.11 1587.12 1585.08C1582.2 1581.82 1577.33 1577.33 1573.14 1572.35C1569.73 1568.3 1566.76 1563.92 1564.58 1559.64C1562.39 1555.1 1560.53 1550.87 1560.61 1550.14C1560.61 1549.33 1559.88 1548.62 1558.91 1543.43C1557.53 1536.22 1557.86 1523.66 1559.65 1516.7C1561.83 1508.19 1565.07 1502.03 1573.9 1489.63C1578.03 1483.8 1585 1473.59 1589.29 1466.95C1593.59 1460.22 1597.81 1454.06 1598.53 1453.17C1599.34 1452.28 1602.57 1447.18 1605.65 1441.83C1627.69 1403.99 1645.91 1365.35 1658.31 1330.02C1665.04 1310.9 1673.15 1282.71 1673.55 1276.96C1673.63 1275.42 1674.69 1269.25 1675.91 1263.34C1679.96 1242.84 1681.32 1229.4 1681.81 1205.66C1682.05 1192.29 1681.89 1178.03 1681.32 1170.01C1679.62 1145.55 1666.99 1077.5 1666.99 1077.5C1658.65 1044.93 1647.13 1014.05 1629.55 977.19C1621.53 960.501 1602.82 931.739 1586.53 911.16C1566.76 886.207 1540.03 861.258 1514.35 843.839C1481.94 821.883 1444.76 806.89 1408.95 801.381C1400.2 800.003 1373.87 797.887 1371.35 798.292ZM1378.24 869.74C1388.54 869.882 1398.78 870.454 1403.76 871.385C1445.81 879.082 1481.06 897.803 1513.87 930.048C1561.18 976.471 1594.48 1044.6 1607.93 1122.62C1612.95 1151.7 1615.46 1190.19 1614 1214.09C1610.28 1273.88 1587.42 1339.59 1546.51 1407.8C1534.51 1427.89 1517.1 1453.33 1512.81 1457.22C1510.05 1459.65 1503.48 1468.73 1499.92 1475.05C1487.52 1497.08 1482.66 1526.66 1486.96 1553.64C1489.47 1569.19 1507.23 1599.1 1524.33 1616.68C1540.69 1633.37 1546.83 1637.34 1602.33 1666.5C1627.69 1679.87 1718.27 1727.5 1803.59 1772.38C1888.9 1817.27 1959.06 1854.29 1959.55 1854.69C1959.95 1855.1 1723.54 1855.43 1375.4 1855.43C1014.14 1855.43 790.858 1855.1 791.263 1854.69C791.749 1854.29 882.327 1806.49 992.593 1748.48C1102.86 1690.48 1196.03 1641.05 1199.6 1638.78C1223.98 1622.82 1242.45 1601.44 1256.38 1573.08C1263.03 1559.47 1263.52 1557.69 1264.81 1543.84C1267.73 1511.43 1257.68 1479.42 1237.34 1456.49C1224.14 1441.58 1199.67 1402.29 1183.06 1369.32C1149.52 1302.8 1134.38 1243.98 1136.32 1188.24C1140.13 1082.03 1175.21 991.13 1235.65 930.934C1269.76 897.068 1308.65 876.971 1352.31 870.651C1357.58 869.882 1367.94 869.598 1378.24 869.74ZM1671.81 1095.96C1671.73 1096.14 1671.68 1096.53 1671.68 1097.1C1671.68 1098.23 1671.84 1098.63 1672.08 1098.06C1672.25 1097.57 1672.25 1096.6 1672.08 1096.03C1671.96 1095.79 1671.88 1095.78 1671.81 1095.96ZM1672.62 1100.01C1672.54 1100.19 1672.49 1100.58 1672.49 1101.15C1672.49 1102.28 1672.65 1102.68 1672.89 1102.11C1673.06 1101.62 1673.06 1100.65 1672.89 1100.08C1672.77 1099.84 1672.69 1099.83 1672.62 1100.01ZM1673.43 1104.06C1673.35 1104.24 1673.3 1104.63 1673.3 1105.2C1673.3 1106.33 1673.46 1106.73 1673.7 1106.16C1673.87 1105.68 1673.87 1104.7 1673.7 1104.14C1673.58 1103.89 1673.5 1103.88 1673.43 1104.06ZM1674.24 1108.11C1674.16 1108.29 1674.11 1108.68 1674.11 1109.25C1674.11 1110.38 1674.27 1110.78 1674.51 1110.21C1674.68 1109.73 1674.68 1108.75 1674.51 1108.19C1674.39 1107.94 1674.31 1107.93 1674.24 1108.11ZM1675.32 1112.24C1675.08 1111.75 1674.92 1112.33 1674.92 1113.71C1674.92 1115 1675.08 1115.48 1675.32 1114.67C1675.49 1113.94 1675.49 1112.8 1675.32 1112.24ZM1676.13 1117.1C1675.89 1116.61 1675.73 1117.19 1675.73 1118.57C1675.73 1119.86 1675.89 1120.34 1676.13 1119.53C1676.3 1118.8 1676.3 1117.67 1676.13 1117.1ZM1676.64 1122.72C1676.59 1122.65 1676.54 1122.74 1676.54 1123.02C1676.54 1124.16 1676.95 1127.97 1677.6 1131.53C1678.17 1135.09 1678.67 1136.88 1678.67 1135.58C1678.67 1134.2 1678.25 1130.4 1677.68 1127.07C1677.19 1124.58 1676.81 1122.92 1676.64 1122.72ZM1679.27 1139.38C1679.16 1139.29 1679.07 1140.14 1679.07 1141.66C1679.07 1143.68 1679.21 1144.48 1679.38 1143.43C1679.54 1142.46 1679.54 1140.84 1679.38 1139.78C1679.33 1139.54 1679.31 1139.41 1679.27 1139.38Z" fill="#000000" fill-rule="nonzero" opacity="1" stroke="none"/>
<path d="M1033.73 467.553C1033.33 467.634 1031.15 467.779 1028.88 467.942C1013.08 468.833 994.907 471.673 981.539 475.157C904.815 495.25 837.037 551.751 789.884 634.713C784.213 644.76 776.488 659.886 776.488 661.02C776.488 661.587 774.469 666.464 772.12 671.892C745.384 731.441 731.123 799.003 731.123 866.816C731.123 887.151 731.863 897.998 734.455 915.417C735.347 921.412 736.412 929.099 736.818 932.502C739.167 952.27 752.441 995.775 766.295 1028.99C779.177 1060.02 803.876 1107.51 816.191 1125.26C817.892 1127.69 822.528 1134.41 826.416 1140.24C830.224 1145.99 836.538 1155.1 840.265 1160.37C851.689 1176.24 855.182 1185.79 855.02 1201.1C855.02 1205.96 850.507 1226.5 849.94 1228.77C849.373 1230.96 835.166 1248.24 826.74 1254.07C823.094 1256.67 625.659 1361.84 621.365 1363.54C615.613 1365.81 398.802 1481.82 392.563 1485.95C389.323 1488.14 385.899 1490.66 384.927 1491.55C384.036 1492.36 382.049 1493.89 380.591 1494.94C379.133 1495.92 377.663 1497.39 377.42 1498.12C377.177 1498.93 376.612 1499.57 376.126 1499.57C375.639 1499.57 373.266 1501.35 370.916 1503.62C368.566 1505.8 366.709 1507.66 366.871 1507.66C366.952 1507.66 364.918 1509.94 362.244 1512.61C359.651 1515.37 356.567 1519.1 355.352 1520.96C354.137 1522.74 352.796 1524.52 352.31 1524.84C350.528 1525.98 343.062 1538.28 339.335 1546.3C337.309 1550.67 335.29 1554.82 334.966 1555.55C333.508 1558.31 330.082 1572.34 329.433 1578.17C329.028 1581.57 328.705 1586.66 328.786 1589.49L328.883 1594.77L1037.52 1595.03L1242.89 1595.06C1248.62 1587.08 1253.83 1578.46 1258.49 1568.98C1265.13 1555.37 1265.61 1553.58 1266.9 1539.73C1267.36 1534.64 1267.4 1529.59 1267.23 1524.55C1191.71 1524.6 1132.24 1524.68 1037.78 1524.68C676.516 1524.68 453.25 1524.34 453.655 1523.94C454.141 1523.53 544.719 1475.75 654.985 1417.74C765.251 1359.73 858.413 1310.31 861.977 1308.05C886.364 1292.09 904.83 1270.68 918.765 1242.33C925.409 1228.72 925.914 1226.96 927.211 1213.11C930.127 1180.7 920.074 1148.67 899.739 1125.74C886.533 1110.84 862.051 1071.54 845.443 1038.57C811.901 972.055 796.774 913.237 798.718 857.497C802.526 751.282 837.584 660.384 898.024 600.188C932.133 566.322 971.037 546.225 1014.71 539.905C1019.97 539.136 1030.33 538.857 1040.62 538.999C1050.92 539.141 1061.17 539.718 1066.15 540.649C1108.2 548.346 1143.42 567.069 1176.24 599.314C1223.55 645.738 1256.85 713.854 1270.3 791.875C1275.32 820.961 1277.84 859.45 1276.38 883.35C1276.11 887.733 1275.5 892.205 1275.02 896.649C1296.5 882.701 1319.58 873.342 1344.21 868.466C1344.3 857.186 1344.19 845.996 1343.72 839.279C1342.02 814.812 1329.38 746.768 1329.39 746.768C1321.04 714.199 1309.5 683.323 1291.91 646.459C1283.89 629.77 1265.2 600.996 1248.91 580.417C1229.14 555.463 1202.4 530.499 1176.72 513.081C1144.31 491.125 1107.14 476.137 1071.33 470.627C1062.58 469.25 1036.24 467.148 1033.73 467.553ZM1334.17 765.212C1334.1 765.395 1334.04 765.778 1334.04 766.345C1334.04 767.479 1334.22 767.883 1334.47 767.316C1334.63 766.829 1334.63 765.844 1334.47 765.277C1334.34 765.034 1334.25 765.03 1334.17 765.212ZM1334.98 769.257C1334.91 769.439 1334.89 769.822 1334.89 770.39C1334.89 771.524 1335.03 771.927 1335.27 771.36C1335.44 770.874 1335.44 769.921 1335.27 769.354C1335.15 769.111 1335.05 769.075 1334.98 769.257ZM1335.79 773.302C1335.72 773.484 1335.69 773.899 1335.69 774.467C1335.7 775.601 1335.84 775.972 1336.08 775.405C1336.25 774.919 1336.25 773.966 1336.08 773.399C1335.96 773.156 1335.86 773.12 1335.79 773.302ZM1336.63 777.379C1336.56 777.561 1336.5 777.944 1336.5 778.511C1336.5 779.646 1336.65 780.049 1336.89 779.482C1337.05 778.996 1337.05 778.011 1336.89 777.443C1336.77 777.2 1336.7 777.197 1336.63 777.379ZM1337.7 781.488C1337.46 781.002 1337.31 781.599 1337.31 782.977C1337.31 784.273 1337.46 784.725 1337.7 783.915C1337.86 783.186 1337.86 782.055 1337.7 781.488ZM1338.51 786.342C1338.27 785.856 1338.12 786.453 1338.12 787.83C1338.12 789.127 1338.27 789.579 1338.51 788.769C1338.67 788.04 1338.67 786.909 1338.51 786.342ZM1339.03 791.972C1338.97 791.905 1338.93 791.98 1338.93 792.263C1338.93 793.398 1339.35 797.209 1340 800.773C1340.57 804.338 1341.03 806.147 1341.03 804.851C1341.03 803.473 1340.63 799.662 1340.06 796.34C1339.58 793.849 1339.19 792.173 1339.03 791.972ZM1544.05 1411.01C1532.56 1429.53 1518.68 1449.67 1514.89 1453.11C1513.15 1454.64 1510.06 1458.83 1507 1463.3C1561.21 1491.86 1621.57 1523.64 1621.93 1523.94C1622.1 1524.11 1560.46 1524.23 1487.74 1524.36C1487.39 1532.8 1487.76 1541.29 1489.07 1549.53C1490.87 1560.66 1500.47 1579.08 1512.04 1595.12L1746.15 1595.16L1746.44 1590.98C1746.85 1585.55 1745.64 1572.48 1744.66 1571.18C1744.18 1570.69 1744.1 1570.11 1744.34 1569.79C1744.58 1569.54 1744.26 1567.3 1743.53 1564.87C1742.8 1562.36 1742.17 1560.11 1742.17 1559.79C1742.09 1559.38 1741.66 1558.38 1741.17 1557.49C1740.68 1556.6 1740.2 1555.73 1740.2 1555.49C1739.47 1552.41 1738.66 1550.7 1738.26 1551.02C1737.93 1551.18 1737.64 1550.84 1737.64 1550.28C1737.64 1548.66 1735.69 1544.13 1734.96 1544.13C1734.71 1544.13 1734.41 1543.55 1734.41 1542.9C1734.41 1541.6 1727.49 1529.93 1724.89 1526.85C1723.92 1525.71 1722.48 1523.79 1721.59 1522.58C1717.95 1517.55 1713.73 1512.94 1713.08 1513.1C1712.6 1513.26 1712.34 1513 1712.5 1512.68C1712.66 1511.95 1698.51 1497.14 1697.62 1497.14C1697.37 1497.14 1695.82 1495.92 1694.28 1494.46C1687.4 1487.98 1667.95 1476.89 1610.19 1446.34C1605.97 1444.07 1599.64 1440.73 1596.24 1438.87C1592.76 1437.09 1587.27 1434.18 1584.11 1432.4C1580.86 1430.7 1571.06 1425.43 1562.39 1420.81C1555.96 1417.32 1549.65 1413.98 1544.05 1411.01Z" fill="#000000" fill-rule="nonzero" opacity="1" stroke="none"/>
<path d="M705.573 152.902C705.168 152.983 702.988 153.128 700.72 153.29C684.921 154.181 666.781 157.022 653.413 160.506C576.688 180.599 508.878 237.067 461.725 320.03C456.054 330.076 448.329 345.235 448.329 346.369C448.329 346.936 446.31 351.813 443.961 357.241C417.225 416.79 402.963 484.352 402.963 552.164C402.963 572.5 403.704 583.347 406.296 600.766C407.188 606.761 408.253 614.448 408.658 617.851C411.008 637.619 424.282 681.124 438.136 714.341C451.018 745.371 475.717 792.863 488.032 810.606C489.733 813.036 494.368 819.754 498.257 825.587C502.065 831.34 508.379 840.448 512.106 845.714C523.53 861.594 527.023 871.14 526.861 886.452C526.861 891.314 522.348 911.849 521.781 914.118C521.214 916.306 507.007 933.589 498.581 939.422C494.935 942.015 297.5 1047.19 293.206 1048.89C287.454 1051.16 70.6427 1167.17 64.4042 1171.3C61.1635 1173.49 57.7401 1176 56.7678 1176.9C55.8766 1177.71 53.8902 1179.24 52.4319 1180.29C50.9735 1181.27 49.5039 1182.7 49.2608 1183.43C49.0178 1184.24 48.4526 1184.92 47.9665 1184.92C47.4804 1184.92 45.1065 1186.7 42.7569 1188.97C40.4074 1191.15 38.5501 1193.01 38.7122 1193.01C38.7932 1193.01 36.7586 1195.29 34.085 1197.96C31.4924 1200.72 28.408 1204.45 27.1928 1206.31C25.9775 1208.09 24.6373 1209.87 24.1512 1210.19C22.3688 1211.33 14.9025 1223.62 11.1757 1231.65C9.15027 1236.02 7.13151 1240.17 6.80743 1240.9C5.3491 1243.65 1.92242 1257.68 1.27425 1263.52C0.86916 1266.92 0.546083 1272.01 0.627096 1274.84L0.72417 1280.12L709.391 1280.38L885.418 1280.41C895.323 1269.21 903.824 1256.37 911.077 1241.61C917.721 1228 918.226 1226.21 919.523 1212.36C919.599 1211.51 919.561 1210.68 919.62 1209.84C844.434 1209.9 818.143 1210.03 709.618 1210.03C348.357 1210.03 125.091 1209.69 125.496 1209.29C125.982 1208.88 216.56 1161.1 326.826 1103.09C437.092 1045.08 530.254 995.663 533.818 993.395C558.205 977.434 576.671 956.032 590.606 927.676C597.25 914.065 597.755 912.279 599.052 898.425C601.968 866.017 591.916 834.019 571.58 811.091C558.374 796.184 533.892 756.894 517.283 723.919C483.742 657.403 468.614 598.586 470.559 542.845C474.367 436.63 509.425 345.733 569.865 285.536C603.974 251.671 642.878 231.573 686.547 225.254C691.813 224.484 702.166 224.206 712.465 224.348C722.765 224.49 733.013 225.066 737.996 225.998C780.044 233.695 815.297 252.418 848.109 284.663C895.424 331.086 928.692 399.203 942.141 477.224C946.467 502.274 948.78 533.766 948.451 557.439C966.92 548.329 986.422 542.17 1007.02 539.189C1009.17 538.875 1012.55 538.698 1016.05 538.542C1015.96 533.214 1015.81 528.155 1015.56 524.628C1013.86 500.16 1001.23 432.117 1001.23 432.117C992.881 399.548 981.369 368.639 963.788 331.776C955.767 315.086 937.037 286.345 920.752 265.766C900.984 240.812 874.245 215.848 848.562 198.429C816.155 176.473 778.983 161.485 743.173 155.976C734.423 154.599 708.085 152.497 705.573 152.902Z" fill="#000000" fill-rule="nonzero" opacity="1" stroke="none"/>
</g>
</g>
</svg>
