<?xml version="1.0" encoding="UTF-8" standalone="no"?>
<!DOCTYPE svg PUBLIC "-//W3C//DTD SVG 1.1//EN" "http://www.w3.org/Graphics/SVG/1.1/DTD/svg11.dtd">
<!-- Created with Vectornator (http://vectornator.io/) -->
<svg height="100%" stroke-miterlimit="10" style="fill-rule:nonzero;clip-rule:evenodd;stroke-linecap:round;stroke-linejoin:round;" version="1.1" viewBox="0 0 24 24" width="100%" xml:space="preserve" xmlns="http://www.w3.org/2000/svg" xmlns:vectornator="http://vectornator.io" xmlns:xlink="http://www.w3.org/1999/xlink">
<defs/>
<g id="Untitled" vectornator:layerName="Untitled">
<path d="M3.00381 2.38915L21.0294 2.38915L21.0294 21.698L3.00381 21.698L3.00381 2.38915Z" fill="none" opacity="1" stroke="#000000" stroke-linecap="butt" stroke-linejoin="miter" stroke-width="1.29907"/>
<g opacity="1">
<path d="M5.39575 4.7827L13.3041 4.7827L13.3041 6.16341L5.39575 6.16341L5.39575 4.7827Z" fill="#000000" fill-rule="nonzero" opacity="1" stroke="none"/>
<path d="M5.37384 4.7827L13.2368 4.7827L13.2368 9.13409L11.073 9.14092L11.046 10.8311L5.37384 10.8311L5.37384 4.7827Z" fill="none" opacity="1" stroke="#000000" stroke-linecap="butt" stroke-linejoin="miter" stroke-width="1.29907"/>
</g>
<g opacity="1">
<path d="M11.0785 8.72106L18.3043 8.72106L18.3043 10.1018L11.0785 10.1018L11.0785 8.72106Z" fill="#000000" fill-rule="nonzero" opacity="1" stroke="none"/>
<path d="M11.0785 8.72106L18.453 8.72106L18.453 14.7695L15.7479 14.7695L15.7314 13.3553L11.0785 13.3339L11.0785 8.72106Z" fill="none" opacity="1" stroke="#000000" stroke-linecap="butt" stroke-linejoin="miter" stroke-width="1.29907"/>
</g>
<g opacity="1">
<path d="M8.33442 13.2299L15.5603 13.2299L15.5603 14.6106L8.33442 14.6106L8.33442 13.2299Z" fill="#000000" fill-rule="nonzero" opacity="1" stroke="none"/>
<path d="M8.33442 13.2299L15.709 13.2299L15.709 19.2783L8.33442 19.2783L8.33442 13.2299Z" fill="none" opacity="1" stroke="#000000" stroke-linecap="butt" stroke-linejoin="miter" stroke-width="1.29907"/>
</g>
</g>
</svg>
