<?xml version="1.0" encoding="UTF-8" standalone="no"?>
<!DOCTYPE svg PUBLIC "-//W3C//DTD SVG 1.1//EN" "http://www.w3.org/Graphics/SVG/1.1/DTD/svg11.dtd">
<!-- Created with Vectornator (http://vectornator.io/) -->
<svg height="100%" stroke-miterlimit="10" style="fill-rule:nonzero;clip-rule:evenodd;stroke-linecap:round;stroke-linejoin:round;" version="1.1" viewBox="0 0 74.4 74.4" width="100%" xml:space="preserve" xmlns="http://www.w3.org/2000/svg" xmlns:vectornator="http://vectornator.io" xmlns:xlink="http://www.w3.org/1999/xlink">
<defs/>
<g id="Untitled" vectornator:layerName="Untitled">
<path d="M0.0625 0.0625L0.0625 74.3125L42.5937 74.3125L42.5937 31.6875C42.1411 31.6663 42.1014 31.5625 41.3437 31.5625C38.7437 31.5625 38.5562 31.5687 37.1562 31.9687C36.2562 32.1688 35.6688 32.3687 35.4688 32.4687C35.2687 32.5687 35.25 32.475 35.25 32.375C35.35 32.175 35.5437 31.075 35.8437 29.875L36.3438 27.6875L42.5937 27.6875L42.5937 0.0625L0.0625 0.0625ZM0.1875 21L10.1875 21L10.1875 34.9062L21.1875 34.9062L21.1875 21L29.1875 21L29.0938 21.3125C28.8938 22.0125 25.8937 35.0875 25.5938 36.6875C25.3937 37.2875 25.3125 37.9 25.3125 38.5C25.4125 38.5 27.2875 38.8875 29.6875 39.1875L34 39.8125L34.6875 39C36.1419 37.1577 38.8362 36.8315 40.7306 38.1807C40.7899 38.223 41.0576 38.4013 41.1345 38.486C41.181 38.5373 41.4253 38.8125 41.5 38.8125C43 40.7125 42.8062 43.5 40.9062 45C39.0063 46.5 36.1875 46.3062 34.6875 44.4062L33.9062 43.5938L29.5938 44.1875C27.1937 44.5875 25.3875 44.7063 25.1875 44.9062C25.0875 45.1062 25.8937 47.2125 26.5938 48.3125C27.7938 50.2125 29.5875 51.7937 31.6875 52.5938C31.9875 52.7937 32.5125 52.8938 32.8125 53.0938C32.9125 53.1938 30.2 53.1875 27 53.1875L21 53.1875L21 41.3125L10.1875 41.3125L10.1875 53.3125L0.1875 53.3125L0.1875 21Z" fill="#000000" fill-rule="nonzero" opacity="1" stroke="none"/>
<path d="M42.4576 0.093749L42.4576 27.6875L50.8639 27.6875L50.8639 21L58.4576 21C65.4576 21.1 66.0701 21.1062 67.2701 21.4062C70.6701 22.3063 72.6764 24.0875 73.6764 27.1875C73.9764 28.2875 74.1514 29.6125 74.0514 30.8125C74.1514 31.9125 74.0701 32.9875 73.7701 34.1875C72.8701 37.4875 70.2639 40.1063 66.8639 40.9062C64.2639 41.4062 61.5639 41.6 58.8639 41.5L56.1764 41.5L56.1764 53.5L50.3639 53.5C48.4639 53.5 46.5764 53.5125 44.6764 53.3125C44.8764 53.2125 45.2514 53.0063 45.5514 52.9062C49.4514 51.6062 52.4576 46.9062 52.4576 41.9062C52.6576 39.2062 51.6701 36.7125 49.7701 34.8125C48.5701 33.5125 47.0639 32.5 45.3639 32C44.5122 31.7871 43.5384 31.7678 42.4576 31.7187L42.4576 74.3437L74.1451 74.3437L74.1451 0.093749L42.4576 0.093749Z" fill="#000000" fill-rule="nonzero" opacity="1" stroke="none"/>
<path d="M56 27.4062L56 34.9062L58.5 34.8125C59.7 34.8125 60.8062 34.8 61.9062 34.5C63.1062 34.1 64.0063 33.2875 64.4062 32.1875C64.9062 30.2875 63.8125 28.3125 61.8125 27.8125C60.7125 27.6125 59.6938 27.5 58.5938 27.5L56 27.4062Z" fill="#000000" fill-rule="nonzero" opacity="1" stroke="none"/>
</g>
<g id="Layer-1" vectornator:layerName="Layer 1"/>
</svg>
