<?xml version="1.0" encoding="UTF-8" standalone="no"?>
<!DOCTYPE svg PUBLIC "-//W3C//DTD SVG 1.1//EN" "http://www.w3.org/Graphics/SVG/1.1/DTD/svg11.dtd">
<!-- Created with Vectornator (http://vectornator.io/) -->
<svg height="100%" stroke-miterlimit="10" style="fill-rule:nonzero;clip-rule:evenodd;stroke-linecap:round;stroke-linejoin:round;" version="1.1" viewBox="0 0 24 24" width="100%" xml:space="preserve" xmlns="http://www.w3.org/2000/svg" xmlns:vectornator="http://vectornator.io" xmlns:xlink="http://www.w3.org/1999/xlink">
<defs/>
<g id="Untitled" vectornator:layerName="Untitled">
<path d="M22.792 18.128C22.792 18.775 22.264 19.305 21.616 19.305L2.36 19.305C1.712 19.305 1.184 18.776 1.184 18.128L1.184 5.136C1.184 4.488 1.712 3.96 2.36 3.96L21.641 3.96C22.288 3.96 22.817 4.488 22.817 5.136L22.817 18.128C22.817 18.128 22.792 18.128 22.792 18.128Z" fill="none" opacity="1" stroke="#000000" stroke-linecap="round" stroke-linejoin="round" stroke-width="0.75"/>
<path d="M13.271 16.75L20.709 16.75M13.732 15.945C13.732 15.945 14.467 14.765 15.051 15.273C15.824 15.945 14.625 17.544 15.134 17.603C15.515 17.646 16.636 14.683 16.636 14.683L16.636 17.101L18.431 15.273L17.388 17.603L19.306 15.945L20.202 15.945M15.544 5.473L20.632 5.473M15.544 6.826L20.632 6.826M6.454 5.473L11.542 5.473M6.454 6.826L11.542 6.826M6.155 13.062L18.479 13.062" fill="none" opacity="1" stroke="#000000" stroke-linecap="round" stroke-linejoin="round" stroke-width="0.25"/>
<path d="M6.495 5.473L11.583 5.473M6.562 11.744L17.848 11.744M5.625 9.84L19.009 9.84" fill="none" opacity="1" stroke="#000000" stroke-linecap="round" stroke-linejoin="round" stroke-width="0.5"/>
<path d="M6.498 17.134L6.981 16.808L6.942 16.239L7.175 15.74L6.848 15.256L6.797 14.655L6.275 14.414L5.961 13.962L5.371 13.99L4.827 13.735L4.365 14.073L3.795 14.11L3.552 14.632L3.06 14.981L3.121 15.561L2.866 16.05L3.212 16.545L3.241 17.137L3.762 17.377L4.077 17.828L4.67 17.802L5.214 18.054L5.674 17.715L6.244 17.679L6.498 17.134Z" fill="none" opacity="1" stroke="#000000" stroke-linecap="round" stroke-linejoin="round" stroke-width="0.5"/>
</g>
<g id="g4216" vectornator:layerName="g4216">
<path d="M3.78125 6.6875L2.8125 7.4375C3.0905 7.8905 3.38825 8.135 3.78125 8.25C4.29325 8.1 4.578 7.7175 4.75 7.4375L3.78125 6.6875ZM3.78125 7.0625C3.93423 7.0625 4.0625 7.25865 4.0625 7.5C4.0625 7.74135 3.93423 7.9375 3.78125 7.9375C3.62827 7.9375 3.5 7.74135 3.5 7.5C3.5 7.25865 3.62827 7.0625 3.78125 7.0625Z" fill="#000000" fill-rule="nonzero" opacity="1" stroke="none"/>
<path d="M2.5625 5.1875C2.5625 5.3455 2.5655 6.16525 2.5625 6.40625C2.5635 6.57625 2.55875 6.72 2.59375 6.875L3.78125 5.96875L4.96875 6.875C5.00375 6.719 5.02825 6.545 5.03125 6.375C5.02825 6.117 5.03125 5.2265 5.03125 5.1875L2.5625 5.1875ZM3.03125 5.3125C3.18423 5.3125 3.3125 5.44077 3.3125 5.59375C3.3125 5.74673 3.18423 5.875 3.03125 5.875C2.87827 5.875 2.75 5.74673 2.75 5.59375C2.75 5.44077 2.87827 5.3125 3.03125 5.3125ZM3.78125 5.3125C3.93423 5.3125 4.0625 5.44077 4.0625 5.59375C4.0625 5.74673 3.93423 5.875 3.78125 5.875C3.62827 5.875 3.5 5.74673 3.5 5.59375C3.5 5.44077 3.62827 5.3125 3.78125 5.3125ZM4.5625 5.3125C4.71604 5.3125 4.84375 5.44021 4.84375 5.59375C4.84375 5.74729 4.71604 5.875 4.5625 5.875C4.40896 5.875 4.28125 5.74729 4.28125 5.59375C4.28125 5.44021 4.40896 5.3125 4.5625 5.3125Z" fill="#000000" fill-rule="nonzero" opacity="1" stroke="none"/>
</g>
</svg>
