<svg xmlns="http://www.w3.org/2000/svg" id="Layer_1" data-name="Layer 1" viewBox="0 0 896 234"><defs><style> .cls-1 { fill: #ed1c24; } .cls-1, .cls-2 { stroke-width: 0px; } </style></defs><path class="cls-2" d="M179.08,92.71l-4.32-68.41c-.55-1.64-3.24-1.66-3.25,0-.31,14.78-26.34,2.35-35.57.25C55.47,6.11,1.24,70.63,1.18,124.27h0c-.07,69.5,45.85,107.31,104.98,107.37,47.04.05,70.89-30.02,78.58-62.58,1-4.08-3.63-3.24-4.65,0-14.27,45.41-49.6,56.84-67.08,56.58-38.06-.59-73.4-31.29-74.62-101.33-1.54-89.21,99.26-147.49,137.42-32.69.79,2.47,2.73,3.01,3.28,1.09Z"></path><path class="cls-2" d="M210.69,103.69c20.8-8.74,77.15-5.94,77.13,19.79l-.09,79.09c-.02,21.62,21.32,29.03,27.33,14.52,1.92-1.92,5.22-.54,3.57,2.75-3.83,15.32-41.61,17.74-54.71-2.8-72.56,52.74-118.71-51.31-31.97-52.85,27.09-4.06,30.14-19.68,30.14-30.62.03-27.09-14.21-29.57-22.69-29.58-9.04,0-16.41,2.73-21.37,16.66-7.68,27.91-49.53,2.96-7.34-16.97ZM230.39,225.48c17.21,2.23,32.58-13.37,32.59-28.69l.04-37.21c-73.65,27-50.71,64.79-32.63,65.9Z"></path><path class="cls-2" d="M358.29,101.11l-35.28,4.61c-2.2.54-2.2,1.64,1.9,2.73,7.65.29,12.56,5.49,12.55,16.7l-.08,82.38c-.02,9.85-13.81,18.47-16.69,19.69-6.58,2.72,3.28,2.18,3.28,2.18l57.74.06c1.9,0,7.93.55.28-3-8.75-3.31-18.33-10.42-18.31-18.9,0-8.48.06-61.86.06-61.86.03-25.99,17.02-40.19,33.71-40.18,17.5.02,32.01,3.87,31.96,39.99l-.06,62.13c-.01,9.02-11.78,17.22-18.07,19.4-4.09,1.08-5.77,2.46-2.21,2.46l61.56.07c3.29.29,4.69-.82,1.66-1.63-14.77-5.78-16.69-16.72-16.68-20.28l.07-72.25c.04-41.32-39.64-35.88-53.6-35.89-17.5.25-36.12,11.17-38.04,16.09-.55-13.4-2.18-14.77-5.75-14.5Z"></path><path class="cls-2" d="M709.27,219.7c-6.04,10.41-20.8,12.84-39.16,12.82-34.75-.04-63.18-26.9-63.14-63.55.04-32.57,18.44-69.21,65.23-69.16,42.12.04,41.81,28.23,41.83,4.7l.04-41.32c.02-21.34-8.46-27.64-14.97-29.56-9.62-3.29-21.94-3.86-2.21-3.84l36.67-.78c2.06.11,2.45.55,2.45,3.84l-.18,161.44c0,11.23,4.09,28.46,22.14,33.41,1.63.28,3.57,1.36,1.63,1.91l-39.93,4.33c-5.77.57-8.21-2.18-10.67-13.42M673.69,225.95c21.81.02,36.39-8.44,36.44-59.34.05-48.43-14.51-60.2-36.32-60.23-21.8-.01-39.52,28.22-39.56,60.7-.03,32.48,17.63,58.85,39.43,58.87Z"></path><path class="cls-2" d="M500.86,103.87c20.82-8.74,77.18-5.94,77.16,19.79l-.09,79.08c-.02,21.62,21.32,29.03,27.36,14.53,1.92-1.92,5.19-.54,3.54,2.74-3.84,15.33-41.61,17.74-54.74-2.8-72.54,52.74-118.7-51.29-31.96-52.85,27.1-4.06,30.14-19.66,30.14-30.62.03-27.09-14.18-29.56-22.68-29.57-9.03-.02-16.41,2.73-21.36,16.67-7.67,27.91-49.53,2.96-7.38-16.97ZM519.35,225.65c17.24,2.21,32.58-13.37,32.59-28.7l.04-37.21c-73.62,27.01-50.69,64.79-32.63,65.91Z"></path><path class="cls-2" d="M785.17,104.43c20.83-8.72,77.18-5.93,77.16,19.79l-.09,79.07c-.02,21.62,21.34,29.04,27.35,14.54,1.92-1.92,5.2-.54,3.56,2.73-3.85,15.33-41.61,17.74-54.71-2.79-72.57,52.74-118.7-51.31-31.94-52.85,27.07-4.08,30.08-19.67,30.1-30.63.03-27.07-14.19-29.56-22.7-29.57-9.02,0-16.39,2.72-21.34,16.67-7.7,27.89-49.53,2.96-7.38-16.98ZM803.68,226.23c17.24,2.2,32.57-13.37,32.58-28.7l.04-37.22c-73.66,27-50.7,64.8-32.62,65.92Z"></path><g><rect class="cls-1" x="737.6" y="44.63" width="61.3" height="30.1" transform="translate(707.71 827.87) rotate(-89.94)"></rect><rect class="cls-1" x="834.49" y="44.74" width="61.29" height="30.09" transform="translate(804.39 924.86) rotate(-89.94)"></rect><path class="cls-1" d="M812.54,41.82l4.32-8.74,4.28,8.44c.51.89.93.82,1.8.4l3.67-1.81-2.41,11.76c-.5,2.32.85,2.99,2.24,1.43l5.24-5.58,1.38,3.17c.45.96,1.17.83,2.08.65l5.41-1.14-1.8,6.83-.05.14c-.21.88-.65,1.63.34,2.07l1.93.96-11.13,9.41c-1.15,1.19-.77,1.54-.34,2.85l1.01,3.16-10.37-1.89c-1.29-.32-2.17-.32-2.2.7l.42,11.92h-3.13l.44-11.88c0-1.17-.88-1.14-2.98-.71l-9.62,1.83,1.26-3.16c.42-1.2.52-2.03-.43-2.85l-11.38-9.29,2.11-1.28c.59-.46.62-.96.3-1.99l-2.13-6.94,5.5,1.19c1.54.34,1.96,0,2.33-.86l1.53-3.13,5.43,6.12c.95,1.14,2.32.39,1.86-1.25l-2.57-12.78,4.01,2.33c.65.39,1.31.49,1.69-.25"></path></g></svg>