<?xml version="1.0" encoding="UTF-8" standalone="no"?> <svg xmlns:inkscape="http://www.inkscape.org/namespaces/inkscape" xmlns:sodipodi="http://sodipodi.sourceforge.net/DTD/sodipodi-0.dtd" xmlns="http://www.w3.org/2000/svg" xmlns:svg="http://www.w3.org/2000/svg" id="Layer_1" data-name="Layer 1" viewBox="0 0 317.23004 91.812585" version="1.1" sodipodi:docname="Imagineur Logos with tag_FR-white.svg" width="317.23004" height="91.812584" inkscape:version="1.3 (0e150ed6c4, 2023-07-21)"><defs id="defs1"><style id="style1"> .cls-1 { fill: #fff; } </style></defs><g id="g7" style="fill:#ffffff" transform="translate(-27.826226,-64.927862)"><path class="cls-1" d="m 72.37,94.88 v 5.61 h -5.86 v -5.61 z m 0,5.61 v 26.13 h -5.86 v -23.17 z" id="path1" style="fill:#ffffff"></path><path class="cls-1" d="m 106.02,99.87 c 2.81,0 5.01,0.91 6.58,2.73 1.57,1.82 2.37,4.46 2.37,7.92 v 16.1 h -5.86 v -15.53 c 0,-4.32 -1.58,-6.48 -4.73,-6.48 -1.72,0 -3.06,0.69 -4.04,2.08 -0.98,1.39 -1.47,3.33 -1.47,5.84 v 14.09 h -5.86 v -16.15 c 0,-1.85 -0.41,-3.29 -1.21,-4.32 -0.8,-1.03 -1.96,-1.54 -3.47,-1.54 -1.75,0 -3.11,0.7 -4.06,2.11 -0.96,1.41 -1.44,3.38 -1.44,5.91 v 13.99 h -5.86 v -26.13 h 5.6 v 3.14 h 0.1 c 1.85,-2.5 4.27,-3.76 7.25,-3.76 3.77,0 6.34,1.58 7.71,4.73 2.02,-3.15 4.82,-4.73 8.38,-4.73 z" id="path2" style="fill:#ffffff"></path><path class="cls-1" d="m 130.97,99.72 c 3.5,0 6.16,0.86 8,2.57 1.83,1.71 2.75,4.27 2.75,7.66 v 9.77 c 0,2.81 0.22,5.11 0.67,6.89 h -5.3 c -0.24,-1.06 -0.36,-2.28 -0.36,-3.65 h -0.1 c -1.92,2.81 -4.85,4.22 -8.79,4.22 -2.67,0 -4.82,-0.73 -6.43,-2.19 -1.61,-1.46 -2.42,-3.32 -2.42,-5.58 0,-2.26 0.76,-4.01 2.29,-5.35 1.53,-1.34 4.11,-2.3 7.74,-2.88 2.19,-0.38 4.54,-0.63 7.04,-0.77 v -1.03 c 0,-3.6 -1.7,-5.4 -5.09,-5.4 -1.58,0 -2.81,0.41 -3.7,1.23 -0.89,0.82 -1.37,1.94 -1.44,3.34 h -5.76 c 0.13,-2.61 1.14,-4.73 3.01,-6.38 1.87,-1.65 4.5,-2.47 7.89,-2.47 z m 5.09,15.79 v -1.29 c -2.23,0.14 -4.24,0.36 -6.02,0.67 -1.89,0.31 -3.21,0.77 -3.99,1.39 -0.77,0.62 -1.16,1.53 -1.16,2.73 0,1.2 0.4,2.1 1.21,2.8 0.8,0.7 1.94,1.05 3.42,1.05 1.99,0 3.57,-0.58 4.73,-1.75 0.69,-0.72 1.16,-1.48 1.41,-2.29 0.26,-0.81 0.39,-1.91 0.39,-3.32 z" id="path3" style="fill:#ffffff"></path><path class="cls-1" d="m 157.04,99.77 c 3.16,0 5.69,1.46 7.61,4.37 h 0.1 v -3.65 h 5.56 v 24.49 c 0,3.84 -1.04,6.73 -3.11,8.67 -2.08,1.94 -5,2.91 -8.77,2.91 -3.46,0 -6.17,-0.73 -8.1,-2.19 -1.94,-1.46 -2.98,-3.49 -3.11,-6.1 h 5.86 c 0.07,1.27 0.58,2.25 1.54,2.93 0.96,0.69 2.26,1.03 3.91,1.03 2.02,0 3.54,-0.58 4.55,-1.75 1.01,-1.17 1.52,-3.07 1.52,-5.71 v -2.57 h -0.1 c -1.89,2.74 -4.41,4.12 -7.56,4.12 -3.33,0 -5.97,-1.2 -7.92,-3.6 -1.95,-2.4 -2.93,-5.62 -2.93,-9.67 0,-4.05 0.99,-7.27 2.98,-9.67 1.99,-2.4 4.65,-3.6 7.97,-3.6 z m 1.34,4.89 c -1.89,0 -3.39,0.76 -4.5,2.26 -1.12,1.51 -1.67,3.55 -1.67,6.12 0,2.57 0.56,4.62 1.67,6.15 1.11,1.53 2.61,2.29 4.5,2.29 1.99,0 3.56,-0.76 4.7,-2.29 1.14,-1.53 1.72,-3.57 1.72,-6.15 0,-2.58 -0.58,-4.61 -1.72,-6.12 -1.15,-1.51 -2.72,-2.26 -4.7,-2.26 z" id="path4" style="fill:#ffffff"></path><path class="cls-1" d="m 255.45,127.29 c -2.98,0 -5.32,-0.92 -7.02,-2.75 -1.7,-1.84 -2.55,-4.5 -2.55,-8 v -16.05 h 8.54 v 15.12 c 0,3.36 1.27,5.04 3.81,5.04 1.37,0 2.44,-0.56 3.21,-1.67 0.77,-1.11 1.16,-2.77 1.16,-4.96 v -13.53 h 8.54 v 26.13 h -7.97 v -3.14 h -0.1 c -1.92,2.54 -4.46,3.81 -7.61,3.81 z" id="path5" style="fill:#ffffff"></path><path class="cls-1" d="m 229.26,121.74 c 1.2,0 2.19,-0.29 2.98,-0.87 0.79,-0.58 1.25,-1.34 1.39,-2.26 h 8.69 c -0.55,2.54 -2,4.65 -4.34,6.33 -2.34,1.68 -5.22,2.52 -8.61,2.52 -4.29,0 -7.62,-1.3 -10,-3.91 -2.39,-2.6 -3.57,-6 -3.57,-10.18 0,-4.18 1.2,-7.25 3.6,-9.82 2.4,-2.57 5.69,-3.86 9.87,-3.86 3.05,0 5.66,0.75 7.82,2.24 2.16,1.49 3.7,3.54 4.63,6.15 0.69,1.85 1.03,4.27 1.03,7.25 h -18.57 c 0.17,4.29 1.87,6.43 5.09,6.43 z m 0,-16.46 c -2.81,0 -4.46,1.73 -4.94,5.19 h 9.82 c -0.17,-1.75 -0.7,-3.05 -1.59,-3.91 -0.9,-0.86 -1.99,-1.29 -3.29,-1.29 z" id="path6" style="fill:#ffffff"></path><path class="cls-1" d="m 290.99,100.08 c 0.89,0 1.71,0.1 2.47,0.31 v 7.3 c -0.96,-0.17 -1.84,-0.26 -2.62,-0.26 -2.16,0 -3.82,0.66 -4.96,1.98 -1.15,1.32 -1.72,3.23 -1.72,5.74 v 11.47 h -8.54 v -26.13 h 7.92 v 3.6 h 0.1 c 1.75,-2.67 4.2,-4.01 7.36,-4.01 z" id="path7" style="fill:#ffffff"></path></g><path class="cls-1" d="m 154.17377,29.952138 v 5.61 h -5.86 v -5.61 z m 0,5.61 v 26.13 h -5.86 v -23.17 z" id="path8" style="fill:#ffffff"></path><g id="g123" style="fill:#ffffff" transform="translate(-27.826226,-64.927862)"><path class="cls-1" d="m 59.91,84.56 c 0.35,0.07 0.72,0 1.03,-0.21 0.61,-0.42 0.78,-1.25 0.39,-1.9 -0.19,-0.32 -0.5,-0.54 -0.87,-0.61 -0.4,-0.1 -0.76,0 -1.09,0.22 -0.32,0.22 -0.54,0.55 -0.6,0.93 -0.06,0.37 0.03,0.74 0.25,1.03 0.23,0.3 0.54,0.49 0.88,0.55 z" id="path9" style="fill:#ffffff"></path><path class="cls-1" d="m 58.24,84.63 c -0.22,-0.27 -0.54,-0.43 -0.89,-0.45 -0.36,-0.02 -0.7,0.1 -0.97,0.34 -0.27,0.25 -0.42,0.58 -0.43,0.94 0,0.35 0.12,0.68 0.37,0.93 v 0 c 0.2,0.2 0.45,0.33 0.7,0.37 0.39,0.07 0.81,-0.03 1.12,-0.31 0.51,-0.47 0.56,-1.27 0.11,-1.82 z" id="path10" style="fill:#ffffff"></path><path class="cls-1" d="m 55.65,88.94 c 0.42,-0.51 0.35,-1.25 -0.14,-1.7 -0.24,-0.22 -0.55,-0.32 -0.88,-0.3 -0.33,0.03 -0.64,0.18 -0.85,0.45 -0.22,0.26 -0.31,0.59 -0.28,0.92 0.04,0.33 0.2,0.61 0.46,0.81 0.16,0.12 0.34,0.2 0.53,0.23 0.43,0.08 0.88,-0.07 1.17,-0.42 z" id="path11" style="fill:#ffffff"></path><path class="cls-1" d="m 53.54,91.77 c 0.32,-0.52 0.16,-1.2 -0.36,-1.54 -0.25,-0.17 -0.55,-0.22 -0.85,-0.16 -0.3,0.07 -0.56,0.25 -0.72,0.52 -0.16,0.27 -0.21,0.58 -0.13,0.88 0.08,0.29 0.27,0.54 0.53,0.68 v 0 c 0.11,0.06 0.23,0.11 0.35,0.13 0.46,0.09 0.93,-0.11 1.18,-0.52 z" id="path12" style="fill:#ffffff"></path><path class="cls-1" d="m 50.52,93.49 c -0.27,0.1 -0.48,0.31 -0.59,0.57 -0.11,0.27 -0.11,0.56 0,0.82 0.11,0.26 0.31,0.46 0.57,0.56 v 0 c 0.06,0.02 0.13,0.04 0.19,0.05 0.48,0.09 0.97,-0.16 1.16,-0.62 0.22,-0.52 -0.01,-1.12 -0.53,-1.36 -0.25,-0.12 -0.54,-0.13 -0.8,-0.03 z" id="path13" style="fill:#ffffff"></path><path class="cls-1" d="m 48.76,97.72 c -0.07,0.26 -0.03,0.52 0.1,0.74 0.13,0.22 0.34,0.38 0.59,0.43 0.01,0 0.03,0 0.04,0 0.5,0.09 0.98,-0.2 1.11,-0.69 0.13,-0.5 -0.16,-1.02 -0.66,-1.17 -0.25,-0.07 -0.51,-0.04 -0.73,0.08 -0.23,0.13 -0.39,0.34 -0.46,0.59 z" id="path14" style="fill:#ffffff"></path><path class="cls-1" d="m 48.9,102.46 c 0.47,0.04 0.9,-0.3 0.96,-0.76 0.06,-0.45 -0.26,-0.88 -0.71,-0.96 -0.01,0 -0.02,0 -0.04,0 -0.23,-0.03 -0.46,0.03 -0.65,0.17 -0.19,0.14 -0.31,0.36 -0.34,0.59 -0.03,0.24 0.04,0.47 0.19,0.66 0.13,0.16 0.31,0.27 0.51,0.3 0.03,0 0.05,0 0.08,0.01 z" id="path15" style="fill:#ffffff"></path><path class="cls-1" d="m 48.27,105.87 c 0.11,0.1 0.24,0.17 0.39,0.2 0.06,0.01 0.12,0.02 0.18,0.01 v 0 c 0.43,-0.02 0.77,-0.38 0.76,-0.8 -0.01,-0.42 -0.37,-0.78 -0.79,-0.77 -0.21,0 -0.41,0.08 -0.56,0.24 -0.15,0.15 -0.23,0.36 -0.22,0.57 0,0.21 0.09,0.41 0.25,0.56 z" id="path16" style="fill:#ffffff"></path><path class="cls-1" d="m 48.76,109.54 c 0.08,0.06 0.17,0.1 0.27,0.11 0.08,0.02 0.17,0.02 0.26,0 v 0 c 0.38,-0.07 0.63,-0.42 0.57,-0.8 -0.06,-0.38 -0.41,-0.63 -0.8,-0.58 -0.19,0.03 -0.35,0.13 -0.46,0.28 -0.11,0.15 -0.16,0.34 -0.12,0.53 0.03,0.19 0.13,0.35 0.29,0.46 z" id="path17" style="fill:#ffffff"></path><path class="cls-1" d="m 49.91,113.17 c 0.1,0.02 0.2,0.01 0.3,-0.02 v 0 c 0.32,-0.11 0.49,-0.45 0.39,-0.77 -0.1,-0.32 -0.44,-0.5 -0.77,-0.4 -0.16,0.05 -0.28,0.15 -0.36,0.3 -0.08,0.15 -0.09,0.31 -0.04,0.48 0.05,0.16 0.16,0.29 0.31,0.36 0.05,0.03 0.11,0.05 0.16,0.06 z" id="path18" style="fill:#ffffff"></path><path class="cls-1" d="m 51.3,116.51 c 0.11,0.02 0.23,0 0.33,-0.05 0.26,-0.13 0.37,-0.44 0.24,-0.7 -0.13,-0.26 -0.44,-0.37 -0.7,-0.25 -0.13,0.06 -0.23,0.17 -0.27,0.3 -0.04,0.13 -0.04,0.28 0.02,0.4 0.06,0.13 0.17,0.22 0.31,0.27 0.02,0 0.05,0.01 0.07,0.02 z" id="path19" style="fill:#ffffff"></path><path class="cls-1" d="m 53.16,119.63 c 0.11,0.02 0.23,0 0.33,-0.07 0.2,-0.14 0.25,-0.41 0.12,-0.61 -0.13,-0.2 -0.41,-0.25 -0.61,-0.12 -0.1,0.07 -0.16,0.17 -0.19,0.28 -0.03,0.11 0,0.23 0.07,0.33 0.07,0.1 0.17,0.16 0.28,0.18 z" id="path20" style="fill:#ffffff"></path><path class="cls-1" d="m 62.1,80.94 c -0.11,0.34 -0.07,0.69 0.1,0.99 0.2,0.37 0.55,0.6 0.92,0.67 0.27,0.05 0.55,0.02 0.81,-0.11 0.63,-0.31 0.89,-1.06 0.61,-1.72 -0.14,-0.32 -0.4,-0.56 -0.73,-0.68 -0.34,-0.13 -0.71,-0.1 -1.04,0.06 -0.33,0.16 -0.57,0.44 -0.68,0.78 z" id="path21" style="fill:#ffffff"></path><path class="cls-1" d="m 65.62,80.34 c 0.16,0.43 0.52,0.72 0.93,0.79 0.19,0.04 0.4,0.03 0.6,-0.04 0.62,-0.2 0.97,-0.87 0.79,-1.51 -0.09,-0.31 -0.3,-0.57 -0.58,-0.73 -0.3,-0.16 -0.64,-0.19 -0.96,-0.08 -0.32,0.11 -0.58,0.33 -0.73,0.63 -0.14,0.29 -0.16,0.63 -0.04,0.93 z" id="path22" style="fill:#ffffff"></path><path class="cls-1" d="m 69.42,78.41 c -0.17,0.25 -0.23,0.55 -0.17,0.85 0.1,0.47 0.47,0.81 0.91,0.9 0.13,0.02 0.26,0.03 0.4,0 0.6,-0.1 1.01,-0.67 0.93,-1.28 -0.04,-0.3 -0.2,-0.57 -0.44,-0.75 -0.25,-0.18 -0.56,-0.26 -0.87,-0.2 -0.31,0.05 -0.58,0.22 -0.75,0.48 z" id="path23" style="fill:#ffffff"></path><path class="cls-1" d="m 75.09,78.67 c 0,-0.28 -0.11,-0.54 -0.31,-0.74 -0.21,-0.2 -0.48,-0.31 -0.77,-0.3 -0.29,0 -0.55,0.13 -0.75,0.34 -0.19,0.21 -0.29,0.48 -0.27,0.76 0.03,0.5 0.39,0.89 0.85,0.98 0.07,0.01 0.15,0.02 0.23,0.02 0.57,-0.02 1.01,-0.48 1.02,-1.05 z" id="path24" style="fill:#ffffff"></path><path class="cls-1" d="m 77.84,77.88 c -0.26,-0.03 -0.52,0.04 -0.72,0.21 -0.2,0.16 -0.32,0.39 -0.34,0.65 -0.04,0.5 0.3,0.94 0.78,1.03 0.02,0 0.05,0 0.07,0.01 0.52,0.06 0.98,-0.31 1.06,-0.83 0.04,-0.25 -0.03,-0.51 -0.19,-0.71 -0.16,-0.21 -0.39,-0.34 -0.66,-0.37 z" id="path25" style="fill:#ffffff"></path><path class="cls-1" d="m 81.2,80.37 c 0.44,0.08 0.88,-0.19 1,-0.62 0.07,-0.22 0.04,-0.46 -0.08,-0.66 -0.12,-0.21 -0.31,-0.35 -0.54,-0.41 -0.24,-0.06 -0.47,-0.03 -0.68,0.1 -0.2,0.12 -0.34,0.31 -0.39,0.54 -0.11,0.46 0.18,0.93 0.63,1.05 0.02,0 0.04,0 0.06,0.01 z" id="path26" style="fill:#ffffff"></path><path class="cls-1" d="m 85.17,79.97 c -0.2,-0.08 -0.42,-0.08 -0.61,0 -0.2,0.08 -0.34,0.24 -0.42,0.43 -0.16,0.4 0.03,0.85 0.43,1.02 0.05,0.02 0.1,0.04 0.15,0.05 0.35,0.07 0.72,-0.12 0.87,-0.46 v 0 c 0.09,-0.19 0.09,-0.41 0.01,-0.6 -0.08,-0.2 -0.23,-0.35 -0.43,-0.43 z" id="path27" style="fill:#ffffff"></path><path class="cls-1" d="m 87.81,82.96 c 0.07,0.04 0.15,0.07 0.23,0.09 0.28,0.05 0.57,-0.07 0.73,-0.32 0.1,-0.16 0.13,-0.35 0.09,-0.53 -0.05,-0.18 -0.16,-0.34 -0.32,-0.44 -0.16,-0.1 -0.35,-0.13 -0.54,-0.08 -0.18,0.05 -0.33,0.16 -0.43,0.33 -0.19,0.33 -0.08,0.76 0.25,0.95 z" id="path28" style="fill:#ffffff"></path><path class="cls-1" d="M 91.81,84.42 C 91.79,84.26 91.72,84.11 91.59,84 91.46,83.9 91.3,83.85 91.13,83.87 c -0.16,0.02 -0.31,0.1 -0.41,0.23 -0.21,0.27 -0.16,0.65 0.09,0.86 0.08,0.07 0.18,0.11 0.27,0.13 0.21,0.04 0.44,-0.03 0.59,-0.21 0.11,-0.13 0.15,-0.29 0.14,-0.45 z" id="path29" style="fill:#ffffff"></path><path class="cls-1" d="m 93.79,87.53 c 0.16,0.03 0.33,-0.01 0.45,-0.13 0.11,-0.09 0.17,-0.22 0.17,-0.37 0,-0.14 -0.04,-0.28 -0.14,-0.38 -0.1,-0.11 -0.23,-0.17 -0.37,-0.17 -0.14,0 -0.28,0.04 -0.38,0.14 -0.21,0.2 -0.22,0.53 -0.03,0.74 0.08,0.09 0.18,0.14 0.29,0.16 z" id="path30" style="fill:#ffffff"></path><path class="cls-1" d="m 96.45,90.26 c 0.1,-0.07 0.16,-0.17 0.18,-0.28 0.02,-0.12 0,-0.23 -0.07,-0.33 -0.07,-0.1 -0.16,-0.15 -0.29,-0.18 -0.12,-0.02 -0.23,0 -0.33,0.07 -0.2,0.14 -0.25,0.41 -0.11,0.61 0.07,0.1 0.17,0.16 0.28,0.18 0.11,0.02 0.23,0 0.33,-0.07 z" id="path31" style="fill:#ffffff"></path><path class="cls-1" d="m 50.1,87.82 c -0.34,-0.23 -0.76,-0.31 -1.17,-0.23 -0.42,0.09 -0.78,0.35 -1.01,0.72 -0.23,0.37 -0.29,0.81 -0.18,1.23 0.11,0.4 0.37,0.74 0.74,0.93 0.15,0.08 0.31,0.14 0.48,0.17 0.63,0.12 1.28,-0.15 1.63,-0.71 0.43,-0.71 0.22,-1.64 -0.48,-2.12 z" id="path32" style="fill:#ffffff"></path><path class="cls-1" d="m 50.59,84.74 c -0.26,0.32 -0.38,0.71 -0.33,1.11 0.05,0.39 0.24,0.73 0.56,0.96 0.19,0.14 0.41,0.24 0.63,0.28 0.51,0.1 1.05,-0.08 1.4,-0.5 0.5,-0.6 0.42,-1.49 -0.17,-2.03 v 0 c -0.29,-0.26 -0.66,-0.39 -1.06,-0.36 -0.4,0.03 -0.76,0.22 -1.02,0.53 z" id="path33" style="fill:#ffffff"></path><path class="cls-1" d="m 54.75,81.23 c -0.37,-0.02 -0.73,0.1 -1.01,0.36 -0.28,0.26 -0.44,0.6 -0.45,0.98 0,0.36 0.13,0.71 0.38,0.96 0.21,0.21 0.47,0.34 0.73,0.39 0.41,0.08 0.84,-0.03 1.16,-0.33 0.54,-0.49 0.59,-1.32 0.11,-1.89 v 0 c -0.23,-0.28 -0.56,-0.44 -0.93,-0.47 z" id="path34" style="fill:#ffffff"></path><path class="cls-1" d="m 57.76,81.19 c 0.31,0.06 0.65,0 0.93,-0.19 0.56,-0.38 0.71,-1.14 0.35,-1.73 -0.18,-0.28 -0.46,-0.48 -0.79,-0.55 -0.35,-0.09 -0.68,0 -0.98,0.2 -0.29,0.2 -0.48,0.49 -0.54,0.83 -0.06,0.33 0.02,0.66 0.22,0.93 0.2,0.28 0.49,0.45 0.8,0.51 z" id="path35" style="fill:#ffffff"></path><path class="cls-1" d="m 60.55,77.46 c -0.1,0.3 -0.07,0.61 0.08,0.88 0.17,0.33 0.49,0.54 0.83,0.6 0.24,0.04 0.49,0.02 0.71,-0.09 0.56,-0.28 0.8,-0.95 0.54,-1.53 v 0 c -0.13,-0.28 -0.36,-0.5 -0.65,-0.6 -0.3,-0.11 -0.62,-0.09 -0.91,0.05 -0.29,0.14 -0.5,0.39 -0.6,0.69 z" id="path36" style="fill:#ffffff"></path><path class="cls-1" d="m 65.41,77.26 c 0.17,0.03 0.34,0.02 0.51,-0.03 0.54,-0.17 0.85,-0.76 0.69,-1.32 -0.08,-0.27 -0.26,-0.5 -0.51,-0.63 -0.25,-0.14 -0.55,-0.16 -0.83,-0.07 -0.28,0.09 -0.5,0.28 -0.63,0.54 -0.13,0.26 -0.14,0.54 -0.05,0.81 0.13,0.37 0.45,0.63 0.82,0.7 z" id="path37" style="fill:#ffffff"></path><path class="cls-1" d="m 68.78,75.38 c 0.08,0.4 0.39,0.69 0.76,0.77 0.11,0.02 0.22,0.02 0.34,0 0.52,-0.09 0.86,-0.57 0.79,-1.09 v 0 c -0.04,-0.26 -0.17,-0.48 -0.38,-0.63 -0.21,-0.15 -0.47,-0.21 -0.73,-0.17 -0.26,0.04 -0.49,0.19 -0.63,0.4 -0.15,0.21 -0.2,0.47 -0.15,0.72 z" id="path38" style="fill:#ffffff"></path><path class="cls-1" d="m 73.32,74.2 c -0.16,0.17 -0.24,0.39 -0.23,0.62 0.02,0.41 0.32,0.74 0.7,0.81 0.06,0.01 0.12,0.02 0.18,0.01 0.46,-0.01 0.84,-0.4 0.84,-0.87 0,-0.23 -0.09,-0.45 -0.26,-0.61 -0.17,-0.16 -0.39,-0.25 -0.62,-0.24 -0.24,0 -0.45,0.1 -0.61,0.28 z" id="path39" style="fill:#ffffff"></path><path class="cls-1" d="m 77.72,74.37 c -0.16,0.13 -0.26,0.31 -0.28,0.51 -0.04,0.39 0.23,0.75 0.62,0.83 0.02,0 0.04,0 0.05,0 0.41,0.05 0.79,-0.25 0.84,-0.66 0.03,-0.2 -0.03,-0.4 -0.15,-0.56 -0.13,-0.16 -0.3,-0.26 -0.52,-0.29 -0.2,-0.02 -0.41,0.03 -0.57,0.16 z" id="path40" style="fill:#ffffff"></path><path class="cls-1" d="m 82.22,76.39 c 0,0 0.03,0 0.04,0 0.34,0.06 0.67,-0.14 0.76,-0.48 0.05,-0.17 0.03,-0.35 -0.06,-0.5 -0.09,-0.16 -0.23,-0.27 -0.41,-0.31 -0.17,-0.04 -0.35,-0.02 -0.5,0.07 -0.15,0.09 -0.26,0.24 -0.3,0.41 -0.09,0.35 0.13,0.71 0.48,0.8 z" id="path41" style="fill:#ffffff"></path><path class="cls-1" d="m 86.63,76.59 c -0.14,-0.06 -0.29,-0.06 -0.43,0 -0.14,0.06 -0.25,0.17 -0.31,0.31 -0.11,0.29 0.02,0.61 0.3,0.73 0.04,0.02 0.07,0.03 0.11,0.03 0.25,0.05 0.52,-0.08 0.62,-0.33 v 0 c 0.06,-0.14 0.06,-0.29 0,-0.43 -0.06,-0.14 -0.16,-0.25 -0.3,-0.31 z m 0.03,0.63 z" id="path42" style="fill:#ffffff"></path><path class="cls-1" d="m 90.44,78.64 c -0.11,-0.06 -0.23,-0.08 -0.35,-0.05 -0.12,0.03 -0.22,0.1 -0.29,0.21 -0.13,0.22 -0.06,0.5 0.16,0.63 0.05,0.03 0.1,0.05 0.15,0.06 0.18,0.03 0.38,-0.05 0.48,-0.22 0.06,-0.11 0.08,-0.23 0.05,-0.35 -0.03,-0.12 -0.11,-0.22 -0.21,-0.29 z" id="path43" style="fill:#ffffff"></path><path class="cls-1" d="m 45.97,92.34 c -0.16,0.38 -0.16,0.79 0,1.16 0.15,0.36 0.44,0.63 0.81,0.77 0.08,0.03 0.17,0.05 0.25,0.07 0.67,0.13 1.35,-0.22 1.63,-0.85 0.31,-0.72 -0.02,-1.55 -0.73,-1.9 -0.35,-0.17 -0.74,-0.19 -1.11,-0.05 -0.38,0.14 -0.67,0.43 -0.83,0.8 z" id="path44" style="fill:#ffffff"></path><path class="cls-1" d="m 44.61,96.58 c -0.1,0.37 -0.05,0.74 0.15,1.06 0.19,0.31 0.49,0.53 0.84,0.61 0.01,0 0.03,0 0.05,0 0.71,0.13 1.4,-0.29 1.59,-0.98 0.19,-0.7 -0.22,-1.43 -0.93,-1.65 -0.35,-0.11 -0.71,-0.07 -1.04,0.11 -0.33,0.18 -0.56,0.48 -0.66,0.85 z" id="path45" style="fill:#ffffff"></path><path class="cls-1" d="m 45,102.35 c 0.69,0.06 1.29,-0.43 1.37,-1.1 0.08,-0.67 -0.41,-1.27 -1.07,-1.4 -0.33,-0.05 -0.66,0.03 -0.93,0.23 -0.27,0.21 -0.45,0.51 -0.49,0.86 -0.04,0.35 0.05,0.69 0.27,0.95 0.19,0.23 0.44,0.38 0.72,0.43 0.04,0 0.09,0.01 0.13,0.02 z" id="path46" style="fill:#ffffff"></path><path class="cls-1" d="m 44.12,106.2 c 0.16,0.15 0.35,0.25 0.56,0.29 0.09,0.02 0.18,0.02 0.27,0.02 v 0 c 0.64,-0.04 1.12,-0.56 1.11,-1.18 -0.01,-0.63 -0.53,-1.12 -1.16,-1.13 -0.31,0 -0.6,0.12 -0.82,0.34 -0.22,0.23 -0.34,0.53 -0.33,0.85 0,0.32 0.14,0.62 0.37,0.83 z" id="path47" style="fill:#ffffff"></path><path class="cls-1" d="m 44.7,110.46 c 0.12,0.09 0.26,0.14 0.4,0.17 0.13,0.02 0.26,0.02 0.39,0 0.57,-0.11 0.95,-0.65 0.85,-1.21 -0.1,-0.57 -0.62,-0.96 -1.2,-0.87 -0.28,0.04 -0.53,0.18 -0.7,0.41 -0.17,0.23 -0.24,0.52 -0.19,0.81 0.05,0.29 0.21,0.54 0.44,0.7 z" id="path48" style="fill:#ffffff"></path><path class="cls-1" d="m 46.6,114.62 c 0.5,-0.17 0.77,-0.7 0.61,-1.2 -0.16,-0.49 -0.69,-0.77 -1.19,-0.63 -0.25,0.07 -0.45,0.24 -0.57,0.46 -0.12,0.23 -0.15,0.5 -0.07,0.75 0.08,0.25 0.25,0.45 0.49,0.57 0.08,0.04 0.17,0.07 0.25,0.08 0.16,0.03 0.33,0.02 0.48,-0.04 z" id="path49" style="fill:#ffffff"></path><path class="cls-1" d="m 48.65,117.29 c -0.2,-0.42 -0.71,-0.6 -1.14,-0.41 -0.21,0.1 -0.37,0.27 -0.45,0.48 -0.08,0.22 -0.07,0.46 0.04,0.67 0.1,0.21 0.28,0.37 0.5,0.44 0.04,0.01 0.08,0.02 0.12,0.03 0.18,0.03 0.37,0 0.54,-0.08 0.42,-0.21 0.59,-0.73 0.39,-1.14 z" id="path50" style="fill:#ffffff"></path><path class="cls-1" d="m 49.85,122.1 v 0 c 0.2,0.04 0.4,0 0.57,-0.12 0.34,-0.24 0.43,-0.71 0.2,-1.05 -0.23,-0.34 -0.7,-0.43 -1.05,-0.21 -0.17,0.11 -0.29,0.28 -0.33,0.48 -0.04,0.2 0,0.41 0.12,0.58 0.12,0.17 0.29,0.29 0.49,0.32 z" id="path51" style="fill:#ffffff"></path><path class="cls-1" d="m 52.48,125.35 c 0,0 0.06,0 0.09,0.01 0.18,0 0.35,-0.05 0.48,-0.17 v 0 c 0.27,-0.25 0.28,-0.66 0.04,-0.93 -0.24,-0.27 -0.66,-0.29 -0.93,-0.05 -0.13,0.12 -0.21,0.28 -0.22,0.46 -0.01,0.18 0.05,0.35 0.17,0.48 0.1,0.11 0.23,0.18 0.37,0.21 z m 0.37,-0.38 z" id="path52" style="fill:#ffffff"></path><path class="cls-1" d="m 55.24,127.28 c -0.1,0.11 -0.14,0.26 -0.13,0.41 0.01,0.15 0.08,0.29 0.2,0.39 0.07,0.06 0.16,0.1 0.26,0.12 0.05,0 0.11,0.01 0.16,0 0.15,-0.02 0.29,-0.09 0.38,-0.2 0.19,-0.24 0.16,-0.59 -0.07,-0.79 -0.24,-0.2 -0.59,-0.17 -0.79,0.07 z" id="path53" style="fill:#ffffff"></path><path class="cls-1" d="m 59.36,129.74 c -0.22,-0.13 -0.5,-0.06 -0.63,0.15 -0.07,0.11 -0.09,0.23 -0.06,0.35 0.03,0.12 0.1,0.22 0.21,0.29 0.05,0.03 0.1,0.05 0.16,0.06 0.06,0.01 0.13,0.01 0.19,0 0.12,-0.03 0.22,-0.1 0.29,-0.21 0.13,-0.22 0.06,-0.5 -0.15,-0.64 z" id="path54" style="fill:#ffffff"></path><path class="cls-1" d="m 39.32,101.72 c 0.26,0.31 0.6,0.51 0.98,0.58 0.07,0.01 0.13,0.02 0.2,0.03 0.95,0.07 1.79,-0.61 1.9,-1.53 0.11,-0.91 -0.52,-1.75 -1.45,-1.93 h -0.03 c -0.46,-0.08 -0.92,0.03 -1.29,0.31 -0.39,0.29 -0.63,0.72 -0.69,1.21 -0.06,0.49 0.08,0.96 0.39,1.33 z" id="path55" style="fill:#ffffff"></path><path class="cls-1" d="m 40.01,95.37 c -0.12,0.44 -0.05,0.9 0.18,1.28 0.23,0.38 0.59,0.63 1.02,0.73 0.01,0 0.03,0 0.05,0 0.86,0.16 1.69,-0.35 1.91,-1.18 0.22,-0.84 -0.27,-1.72 -1.12,-1.98 -0.41,-0.13 -0.85,-0.09 -1.24,0.12 -0.39,0.22 -0.68,0.58 -0.8,1.02 z" id="path56" style="fill:#ffffff"></path><path class="cls-1" d="m 43.8,89.78 c -0.37,-0.18 -0.78,-0.19 -1.16,-0.05 -0.39,0.15 -0.7,0.44 -0.86,0.83 -0.17,0.39 -0.17,0.82 0,1.2 0.16,0.37 0.46,0.66 0.84,0.8 0.09,0.03 0.18,0.06 0.27,0.08 0.7,0.13 1.41,-0.22 1.69,-0.89 C 44.9,91 44.56,90.13 43.81,89.77 Z" id="path57" style="fill:#ffffff"></path><path class="cls-1" d="m 44.71,88.03 c 0.14,0.08 0.29,0.13 0.44,0.16 0.56,0.11 1.15,-0.13 1.46,-0.64 0.39,-0.65 0.2,-1.49 -0.44,-1.91 v 0 c -0.31,-0.21 -0.69,-0.28 -1.06,-0.19 -0.38,0.08 -0.69,0.31 -0.9,0.65 -0.2,0.33 -0.26,0.72 -0.16,1.1 0.1,0.36 0.33,0.67 0.66,0.85 z" id="path58" style="fill:#ffffff"></path><path class="cls-1" d="m 47.25,82.01 c -0.23,0.28 -0.33,0.62 -0.29,0.97 0.04,0.34 0.21,0.65 0.48,0.86 0.17,0.13 0.36,0.21 0.56,0.25 0.45,0.09 0.92,-0.07 1.23,-0.44 0.44,-0.54 0.38,-1.33 -0.16,-1.8 -0.26,-0.23 -0.59,-0.34 -0.94,-0.31 -0.35,0.03 -0.67,0.19 -0.9,0.47 z" id="path59" style="fill:#ffffff"></path><path class="cls-1" d="m 51.69,78.11 c -0.32,-0.02 -0.63,0.09 -0.87,0.31 -0.24,0.22 -0.38,0.51 -0.39,0.83 0,0.32 0.11,0.61 0.32,0.84 0.18,0.19 0.4,0.3 0.64,0.35 0.35,0.07 0.72,-0.03 1.01,-0.28 0.47,-0.43 0.51,-1.15 0.09,-1.64 -0.2,-0.24 -0.49,-0.38 -0.8,-0.4 z" id="path60" style="fill:#ffffff"></path><path class="cls-1" d="m 55.25,77.29 c 0.27,0.05 0.55,0 0.79,-0.16 0.47,-0.32 0.6,-0.98 0.29,-1.46 -0.15,-0.24 -0.39,-0.4 -0.67,-0.46 -0.3,-0.05 -0.57,0 -0.81,0.17 -0.24,0.16 -0.4,0.41 -0.45,0.69 -0.05,0.28 0.01,0.56 0.18,0.79 0.17,0.23 0.41,0.38 0.67,0.43 z" id="path61" style="fill:#ffffff"></path><path class="cls-1" d="m 59.5,74.72 c 0.19,0.04 0.4,0.01 0.59,-0.08 0.46,-0.22 0.65,-0.79 0.44,-1.25 -0.11,-0.23 -0.3,-0.4 -0.54,-0.49 -0.24,-0.08 -0.5,-0.07 -0.73,0.04 -0.23,0.11 -0.4,0.31 -0.48,0.56 -0.08,0.24 -0.06,0.5 0.06,0.72 0.14,0.27 0.39,0.45 0.67,0.5 z" id="path62" style="fill:#ffffff"></path><path class="cls-1" d="m 64.05,72.77 c 0.13,0.03 0.27,0.02 0.41,-0.03 0.43,-0.14 0.67,-0.61 0.54,-1.04 -0.06,-0.21 -0.21,-0.39 -0.41,-0.49 -0.2,-0.1 -0.43,-0.12 -0.64,-0.05 -0.22,0.07 -0.39,0.22 -0.49,0.42 -0.1,0.2 -0.11,0.43 -0.04,0.64 0.1,0.29 0.35,0.5 0.64,0.55 z" id="path63" style="fill:#ffffff"></path><path class="cls-1" d="m 68.81,71.49 c 0.08,0.02 0.17,0.02 0.25,0 0.38,-0.06 0.65,-0.43 0.59,-0.82 -0.03,-0.19 -0.13,-0.35 -0.29,-0.46 -0.16,-0.11 -0.35,-0.16 -0.55,-0.13 -0.19,0.03 -0.36,0.14 -0.47,0.3 -0.11,0.16 -0.15,0.35 -0.11,0.54 0.06,0.3 0.29,0.52 0.57,0.58 z" id="path64" style="fill:#ffffff"></path><path class="cls-1" d="m 73.7,70.89 c 0,0 0.08,0.01 0.13,0.01 0.33,0 0.59,-0.28 0.59,-0.61 v 0 c 0,-0.16 -0.07,-0.31 -0.19,-0.42 -0.12,-0.11 -0.27,-0.17 -0.43,-0.17 -0.16,0 -0.31,0.07 -0.42,0.19 -0.11,0.12 -0.17,0.27 -0.16,0.44 0.01,0.29 0.22,0.52 0.49,0.57 z" id="path65" style="fill:#ffffff"></path><path class="cls-1" d="m 78.6,70.99 c 0,0 0.02,0 0.03,0 0.27,0.03 0.51,-0.16 0.54,-0.43 v 0 c 0.03,-0.27 -0.18,-0.52 -0.43,-0.54 -0.13,-0.01 -0.26,0.02 -0.36,0.1 -0.1,0.08 -0.17,0.2 -0.18,0.33 -0.03,0.25 0.15,0.49 0.4,0.53 z" id="path66" style="fill:#ffffff"></path><path class="cls-1" d="m 40.43,103.84 c -0.44,-0.01 -0.85,0.15 -1.16,0.47 -0.32,0.32 -0.49,0.75 -0.48,1.2 0.01,0.46 0.2,0.88 0.53,1.18 0.22,0.2 0.49,0.33 0.77,0.39 0.13,0.02 0.27,0.03 0.4,0.02 0.89,-0.06 1.57,-0.79 1.55,-1.67 -0.02,-0.87 -0.74,-1.57 -1.63,-1.59 z" id="path67" style="fill:#ffffff"></path><path class="cls-1" d="m 41.17,111.83 c 0.81,-0.17 1.35,-0.94 1.21,-1.74 -0.13,-0.8 -0.89,-1.35 -1.71,-1.25 -0.4,0.05 -0.76,0.26 -1,0.58 -0.25,0.34 -0.35,0.75 -0.28,1.17 0.07,0.42 0.3,0.78 0.64,1.01 0.17,0.12 0.36,0.2 0.56,0.23 0.2,0.03 0.38,0.03 0.58,0 z" id="path68" style="fill:#ffffff"></path><path class="cls-1" d="m 41.41,116.36 c 0.11,0.06 0.23,0.1 0.36,0.12 0.24,0.04 0.48,0.03 0.72,-0.06 0.73,-0.26 1.11,-1.03 0.88,-1.75 -0.23,-0.72 -0.99,-1.13 -1.73,-0.92 -0.36,0.1 -0.66,0.34 -0.84,0.67 -0.18,0.34 -0.22,0.73 -0.1,1.1 0.12,0.37 0.37,0.67 0.72,0.84 z" id="path69" style="fill:#ffffff"></path><path class="cls-1" d="m 43.44,120.86 c 0.05,0.02 0.11,0.03 0.16,0.04 0.28,0.05 0.56,0.01 0.82,-0.12 v 0 c 0.63,-0.33 0.88,-1.08 0.58,-1.71 -0.3,-0.63 -1.05,-0.89 -1.7,-0.61 -0.31,0.14 -0.55,0.39 -0.67,0.72 -0.12,0.33 -0.1,0.69 0.05,1.01 0.15,0.32 0.42,0.56 0.76,0.67 z" id="path70" style="fill:#ffffff"></path><path class="cls-1" d="m 46.07,125.03 v 0 c 0.31,0.06 0.62,-0.01 0.88,-0.19 0.53,-0.38 0.66,-1.09 0.3,-1.62 -0.36,-0.53 -1.07,-0.67 -1.61,-0.33 -0.27,0.17 -0.45,0.43 -0.51,0.74 -0.07,0.31 0,0.63 0.18,0.9 0.18,0.27 0.45,0.44 0.76,0.5 z" id="path71" style="fill:#ffffff"></path><path class="cls-1" d="m 49.1,128.77 c 0.05,0 0.1,0.02 0.16,0.02 0.28,0.01 0.55,-0.09 0.76,-0.29 0.42,-0.4 0.45,-1.06 0.06,-1.49 -0.38,-0.42 -1.05,-0.46 -1.49,-0.09 -0.22,0.19 -0.34,0.44 -0.36,0.73 -0.02,0.29 0.08,0.56 0.27,0.78 0.16,0.18 0.36,0.29 0.59,0.34 z" id="path72" style="fill:#ffffff"></path><path class="cls-1" d="m 52.21,131.84 c 0.13,0.11 0.27,0.18 0.43,0.21 0.09,0.02 0.18,0.02 0.27,0.01 0.25,-0.03 0.48,-0.15 0.64,-0.35 v 0 c 0.32,-0.4 0.26,-1 -0.13,-1.32 -0.39,-0.32 -0.99,-0.28 -1.32,0.11 -0.17,0.19 -0.25,0.44 -0.23,0.69 0.02,0.26 0.14,0.49 0.34,0.65 z" id="path73" style="fill:#ffffff"></path><path class="cls-1" d="m 57.5,134.39 c 0.23,-0.39 0.11,-0.9 -0.28,-1.14 -0.39,-0.24 -0.9,-0.12 -1.14,0.26 -0.12,0.19 -0.16,0.41 -0.11,0.63 0.05,0.22 0.18,0.41 0.38,0.52 0.09,0.06 0.19,0.09 0.28,0.11 0.12,0.02 0.24,0.02 0.35,-0.01 0.22,-0.05 0.4,-0.19 0.51,-0.38 z" id="path74" style="fill:#ffffff"></path><path class="cls-1" d="m 61.41,135.57 c -0.35,-0.16 -0.78,0 -0.94,0.37 -0.08,0.17 -0.09,0.37 -0.02,0.55 0.07,0.18 0.21,0.32 0.39,0.4 0.05,0.02 0.1,0.04 0.15,0.05 0.14,0.03 0.28,0.01 0.41,-0.04 0.18,-0.07 0.31,-0.21 0.39,-0.38 0.15,-0.36 -0.02,-0.78 -0.38,-0.94 z" id="path75" style="fill:#ffffff"></path><path class="cls-1" d="m 65.58,138.42 c 0,0 0.03,0 0.05,0.01 0.14,0.03 0.29,0 0.41,-0.07 0.14,-0.08 0.24,-0.21 0.28,-0.37 0.08,-0.32 -0.11,-0.65 -0.43,-0.74 -0.32,-0.08 -0.65,0.1 -0.74,0.42 -0.04,0.16 -0.02,0.32 0.06,0.46 0.08,0.14 0.21,0.24 0.37,0.28 z" id="path76" style="fill:#ffffff"></path><path class="cls-1" d="m 70.47,139.27 c 0.13,0.02 0.26,-0.02 0.36,-0.1 0.1,-0.08 0.17,-0.2 0.18,-0.33 0.03,-0.27 -0.17,-0.51 -0.42,-0.54 -0.27,-0.03 -0.51,0.16 -0.54,0.42 -0.02,0.13 0.01,0.26 0.09,0.36 0.07,0.1 0.18,0.16 0.3,0.18 0,0 0.02,0 0.03,0 z" id="path77" style="fill:#ffffff"></path><path class="cls-1" d="m 36.28,118.48 c 0.16,0.08 0.32,0.13 0.48,0.16 0.34,0.06 0.68,0.03 1.01,-0.09 1.01,-0.38 1.55,-1.45 1.23,-2.45 -0.32,-1 -1.38,-1.56 -2.42,-1.29 -0.51,0.13 -0.92,0.46 -1.18,0.92 -0.26,0.48 -0.31,1.03 -0.15,1.56 0.17,0.53 0.53,0.95 1.02,1.19 z" id="path78" style="fill:#ffffff"></path><path class="cls-1" d="m 38.45,120.25 c -0.45,0.19 -0.79,0.55 -0.96,1.01 -0.18,0.47 -0.15,0.99 0.07,1.45 0.22,0.46 0.61,0.8 1.09,0.96 0.07,0.02 0.15,0.04 0.22,0.06 0.4,0.08 0.81,0.01 1.17,-0.18 0.88,-0.48 1.24,-1.54 0.81,-2.43 -0.43,-0.88 -1.48,-1.26 -2.41,-0.87 z" id="path79" style="fill:#ffffff"></path><path class="cls-1" d="m 41.71,128.47 h 0.03 c 0.45,0.08 0.9,-0.02 1.26,-0.29 0.75,-0.55 0.94,-1.58 0.42,-2.34 -0.52,-0.76 -1.54,-0.97 -2.33,-0.48 -0.39,0.24 -0.65,0.62 -0.75,1.07 -0.1,0.46 0,0.92 0.26,1.32 0.26,0.39 0.65,0.64 1.1,0.73 z" id="path80" style="fill:#ffffff"></path><path class="cls-1" d="m 45.45,132.79 c 0.42,0.01 0.82,-0.14 1.12,-0.43 0.62,-0.6 0.66,-1.57 0.09,-2.19 -0.57,-0.63 -1.53,-0.69 -2.19,-0.13 -0.32,0.27 -0.51,0.65 -0.54,1.07 -0.03,0.43 0.12,0.84 0.41,1.17 0.24,0.26 0.54,0.43 0.88,0.5 0.08,0.02 0.16,0.02 0.25,0.03 z" id="path81" style="fill:#ffffff"></path><path class="cls-1" d="m 50.47,134 c -0.6,-0.5 -1.48,-0.42 -2.01,0.17 -0.26,0.29 -0.38,0.66 -0.35,1.04 0.03,0.39 0.21,0.75 0.52,1 0.19,0.16 0.42,0.27 0.66,0.31 0.14,0.03 0.28,0.03 0.42,0.02 0.38,-0.04 0.73,-0.23 0.96,-0.53 0.48,-0.63 0.4,-1.51 -0.2,-2.01 z" id="path82" style="fill:#ffffff"></path><path class="cls-1" d="m 54.8,137.27 c -0.6,-0.37 -1.39,-0.19 -1.78,0.41 -0.19,0.29 -0.26,0.64 -0.18,0.99 0.08,0.35 0.29,0.64 0.6,0.83 0.14,0.09 0.29,0.15 0.45,0.17 0.18,0.03 0.38,0.03 0.56,-0.02 0.34,-0.09 0.62,-0.3 0.8,-0.6 0.36,-0.63 0.17,-1.41 -0.44,-1.78 z" id="path83" style="fill:#ffffff"></path><path class="cls-1" d="m 59.57,139.89 c -0.58,-0.25 -1.27,0.02 -1.54,0.6 -0.13,0.29 -0.14,0.61 -0.03,0.9 0.11,0.3 0.34,0.53 0.63,0.66 0.08,0.04 0.17,0.06 0.25,0.08 0.22,0.04 0.45,0.02 0.66,-0.07 0.29,-0.12 0.52,-0.35 0.64,-0.64 v 0 c 0.24,-0.6 -0.03,-1.27 -0.62,-1.53 z" id="path84" style="fill:#ffffff"></path><path class="cls-1" d="m 64.14,143.84 c 0,0 0.06,0.01 0.08,0.02 0.25,0.05 0.5,0 0.72,-0.13 0.24,-0.14 0.41,-0.37 0.48,-0.64 0.14,-0.55 -0.19,-1.12 -0.74,-1.27 -0.53,-0.15 -1.12,0.18 -1.28,0.72 -0.08,0.27 -0.05,0.55 0.09,0.79 0.14,0.25 0.37,0.42 0.64,0.5 z" id="path85" style="fill:#ffffff"></path><path class="cls-1" d="m 69.03,143.79 c -0.03,0.24 0.03,0.48 0.18,0.68 0.14,0.18 0.33,0.3 0.55,0.34 0.02,0 0.04,0 0.06,0 0.25,0.03 0.49,-0.04 0.68,-0.19 0.19,-0.15 0.31,-0.37 0.34,-0.61 v 0 c 0.05,-0.5 -0.31,-0.95 -0.79,-1.01 -0.49,-0.06 -0.95,0.29 -1.02,0.78 z" id="path86" style="fill:#ffffff"></path><path class="cls-1" d="m 75.56,144.99 c 0.21,0 0.41,-0.09 0.55,-0.24 0.14,-0.15 0.22,-0.35 0.21,-0.56 -0.01,-0.43 -0.37,-0.77 -0.8,-0.76 -0.42,0 -0.77,0.36 -0.77,0.79 0,0.21 0.08,0.4 0.23,0.55 0.11,0.11 0.25,0.18 0.4,0.21 0.05,0 0.11,0.01 0.16,0.01 z" id="path87" style="fill:#ffffff"></path><path class="cls-1" d="m 81.79,143.59 c -0.06,-0.35 -0.4,-0.59 -0.74,-0.53 -0.35,0.06 -0.59,0.39 -0.54,0.74 0.03,0.17 0.12,0.32 0.26,0.43 0.08,0.06 0.17,0.1 0.26,0.11 0.07,0.01 0.15,0.01 0.23,0 0.17,-0.03 0.32,-0.12 0.43,-0.26 0.1,-0.14 0.14,-0.31 0.11,-0.48 v 0 z m -0.29,0.05 z" id="path88" style="fill:#ffffff"></path><path class="cls-1" d="m 87.11,142.26 c -0.09,-0.27 -0.38,-0.42 -0.65,-0.34 -0.27,0.08 -0.43,0.37 -0.34,0.65 0.04,0.13 0.13,0.24 0.26,0.31 0.05,0.02 0.09,0.04 0.14,0.05 0.08,0.02 0.17,0.01 0.25,-0.02 0.13,-0.04 0.24,-0.13 0.31,-0.26 0.06,-0.12 0.08,-0.26 0.03,-0.39 z" id="path89" style="fill:#ffffff"></path><path class="cls-1" d="m 34.78,112.77 c 0.21,0.14 0.43,0.23 0.67,0.28 0.24,0.05 0.47,0.04 0.7,-0.01 0.98,-0.21 1.62,-1.13 1.46,-2.1 -0.16,-0.97 -1.07,-1.63 -2.07,-1.51 -0.49,0.06 -0.92,0.31 -1.21,0.7 -0.3,0.41 -0.42,0.91 -0.34,1.41 0.09,0.51 0.36,0.94 0.78,1.23 z" id="path90" style="fill:#ffffff"></path><path class="cls-1" d="m 35.35,107.34 c 0.93,-0.06 1.65,-0.83 1.62,-1.74 -0.03,-0.91 -0.78,-1.64 -1.7,-1.66 -0.45,0 -0.88,0.17 -1.2,0.49 -0.33,0.33 -0.51,0.78 -0.49,1.25 0.01,0.47 0.21,0.91 0.55,1.23 0.23,0.21 0.51,0.35 0.81,0.41 0.14,0.03 0.28,0.03 0.42,0.03 z" id="path91" style="fill:#ffffff"></path><path class="cls-1" d="m 35.22,101.56 c 0.05,0.01 0.11,0.02 0.17,0.02 0.86,0.07 1.61,-0.54 1.71,-1.38 0.1,-0.84 -0.46,-1.61 -1.34,-1.74 -0.41,-0.06 -0.83,0.04 -1.16,0.29 -0.34,0.26 -0.56,0.64 -0.61,1.08 -0.05,0.43 0.07,0.86 0.34,1.19 0.23,0.28 0.54,0.47 0.89,0.53 z" id="path92" style="fill:#ffffff"></path><path class="cls-1" d="m 36.25,95.9 c 0,0 0.04,0 0.06,0.01 0.75,0.14 1.48,-0.31 1.68,-1.04 0.2,-0.75 -0.24,-1.52 -1,-1.75 -0.37,-0.11 -0.76,-0.07 -1.09,0.12 -0.34,0.19 -0.59,0.51 -0.69,0.89 -0.1,0.39 -0.05,0.78 0.16,1.12 0.2,0.33 0.52,0.56 0.89,0.65 z" id="path93" style="fill:#ffffff"></path><path class="cls-1" d="m 37.21,88.67 c -0.14,0.33 -0.14,0.7 0,1.02 0.14,0.32 0.39,0.57 0.71,0.7 0.08,0.03 0.16,0.05 0.24,0.07 0.6,0.11 1.22,-0.2 1.46,-0.77 0.28,-0.65 -0.02,-1.4 -0.67,-1.7 v 0 c -0.32,-0.15 -0.67,-0.16 -1,-0.03 -0.33,0.13 -0.59,0.38 -0.74,0.71 z" id="path94" style="fill:#ffffff"></path><path class="cls-1" d="m 40.38,85.19 c 0.12,0.07 0.24,0.11 0.37,0.14 0.47,0.09 0.97,-0.11 1.23,-0.54 0.33,-0.54 0.16,-1.26 -0.38,-1.6 -0.26,-0.17 -0.58,-0.22 -0.89,-0.15 -0.31,0.07 -0.58,0.26 -0.74,0.54 -0.17,0.28 -0.22,0.6 -0.14,0.91 0.08,0.31 0.27,0.56 0.55,0.72 z" id="path95" style="fill:#ffffff"></path><path class="cls-1" d="m 43.58,80.41 c 0.14,0.11 0.29,0.18 0.45,0.21 0.37,0.07 0.76,-0.06 1,-0.36 0.36,-0.43 0.3,-1.09 -0.13,-1.46 -0.21,-0.18 -0.48,-0.27 -0.76,-0.25 -0.28,0.02 -0.54,0.16 -0.72,0.38 -0.18,0.22 -0.26,0.5 -0.23,0.78 0.03,0.28 0.17,0.53 0.39,0.7 z" id="path96" style="fill:#ffffff"></path><path class="cls-1" d="m 47.93,76.41 c 0.27,0.05 0.57,-0.02 0.79,-0.22 0.36,-0.33 0.39,-0.91 0.06,-1.28 v 0 c -0.16,-0.19 -0.39,-0.29 -0.63,-0.3 -0.25,-0.01 -0.48,0.07 -0.67,0.24 -0.18,0.17 -0.29,0.4 -0.3,0.64 0,0.24 0.08,0.48 0.25,0.65 0.14,0.14 0.31,0.23 0.5,0.27 z" id="path97" style="fill:#ffffff"></path><path class="cls-1" d="m 52.36,72.78 c 0.2,0.04 0.41,0 0.59,-0.12 0.35,-0.24 0.44,-0.72 0.21,-1.08 v 0 c -0.12,-0.17 -0.29,-0.29 -0.5,-0.33 v 0 c -0.21,-0.04 -0.41,0 -0.59,0.12 -0.17,0.12 -0.29,0.3 -0.33,0.51 -0.04,0.21 0,0.41 0.13,0.58 0.12,0.17 0.3,0.28 0.5,0.32 z" id="path98" style="fill:#ffffff"></path><path class="cls-1" d="m 57.24,69.82 c 0.13,0.03 0.27,0 0.4,-0.05 0.32,-0.16 0.45,-0.54 0.3,-0.87 v 0 c -0.08,-0.16 -0.21,-0.28 -0.37,-0.33 -0.17,-0.06 -0.34,-0.05 -0.5,0.03 -0.16,0.08 -0.27,0.21 -0.33,0.38 -0.06,0.17 -0.04,0.34 0.04,0.5 0.1,0.19 0.27,0.31 0.46,0.35 z" id="path99" style="fill:#ffffff"></path><path class="cls-1" d="m 62.47,67.57 c 0.08,0.02 0.17,0.01 0.25,-0.02 0.13,-0.04 0.24,-0.13 0.3,-0.26 0.06,-0.12 0.07,-0.26 0.03,-0.39 -0.04,-0.13 -0.13,-0.24 -0.25,-0.3 -0.12,-0.06 -0.27,-0.08 -0.4,-0.03 -0.13,0.04 -0.24,0.14 -0.3,0.26 -0.06,0.12 -0.07,0.27 -0.03,0.4 0.06,0.18 0.22,0.31 0.4,0.35 z" id="path100" style="fill:#ffffff"></path><path class="cls-1" d="m 42.73,133.69 c -0.38,-0.42 -0.9,-0.67 -1.49,-0.71 -0.59,-0.04 -1.15,0.15 -1.6,0.52 -0.46,0.38 -0.74,0.92 -0.78,1.52 -0.04,0.59 0.17,1.19 0.58,1.64 0.33,0.37 0.78,0.62 1.25,0.71 0.11,0.02 0.21,0.03 0.32,0.04 0.6,0.02 1.16,-0.2 1.59,-0.62 0.41,-0.41 0.65,-0.95 0.68,-1.54 0.02,-0.58 -0.18,-1.13 -0.56,-1.55 z" id="path101" style="fill:#ffffff"></path><path class="cls-1" d="m 47.07,138.07 c -0.85,-0.71 -2.12,-0.6 -2.88,0.23 -0.37,0.41 -0.55,0.94 -0.52,1.49 0.04,0.57 0.31,1.08 0.75,1.45 0.28,0.24 0.61,0.39 0.95,0.45 0.2,0.04 0.41,0.05 0.62,0.02 0.55,-0.06 1.04,-0.34 1.37,-0.78 0.68,-0.9 0.55,-2.16 -0.29,-2.87 z" id="path102" style="fill:#ffffff"></path><path class="cls-1" d="m 52,141.8 c -0.88,-0.54 -2.02,-0.28 -2.61,0.59 -0.29,0.42 -0.38,0.93 -0.27,1.43 0.11,0.52 0.42,0.95 0.88,1.23 0.21,0.13 0.43,0.21 0.66,0.26 0.27,0.05 0.56,0.04 0.83,-0.03 0.5,-0.13 0.91,-0.45 1.16,-0.89 v 0 c 0.51,-0.92 0.23,-2.06 -0.65,-2.6 z" id="path103" style="fill:#ffffff"></path><path class="cls-1" d="m 57.43,144.79 c -0.87,-0.38 -1.88,0.01 -2.3,0.89 -0.2,0.42 -0.22,0.9 -0.06,1.34 0.17,0.45 0.51,0.81 0.96,1 0.13,0.05 0.26,0.09 0.39,0.12 0.34,0.06 0.68,0.03 1,-0.11 0.44,-0.18 0.77,-0.52 0.94,-0.96 v 0 c 0.35,-0.9 -0.06,-1.9 -0.93,-2.28 z" id="path104" style="fill:#ffffff"></path><path class="cls-1" d="m 63.26,146.99 c -0.84,-0.22 -1.71,0.26 -1.97,1.1 -0.13,0.41 -0.08,0.84 0.13,1.22 0.21,0.39 0.57,0.66 1,0.78 0.04,0.01 0.09,0.02 0.13,0.03 0.39,0.07 0.79,0 1.13,-0.2 0.37,-0.22 0.63,-0.57 0.73,-0.99 0.2,-0.86 -0.3,-1.72 -1.14,-1.95 z" id="path105" style="fill:#ffffff"></path><path class="cls-1" d="m 69.36,148.35 c -0.79,-0.1 -1.5,0.45 -1.62,1.24 -0.06,0.39 0.04,0.77 0.27,1.08 0.22,0.29 0.54,0.48 0.89,0.55 0.03,0 0.06,0.01 0.1,0.02 0.4,0.05 0.79,-0.06 1.1,-0.31 0.3,-0.24 0.49,-0.59 0.53,-0.98 0.08,-0.8 -0.48,-1.52 -1.27,-1.6 z" id="path106" style="fill:#ffffff"></path><path class="cls-1" d="m 75.61,148.83 c -0.7,0.01 -1.28,0.6 -1.28,1.31 0,0.35 0.13,0.68 0.38,0.92 0.19,0.19 0.42,0.31 0.67,0.36 0.09,0.02 0.18,0.02 0.27,0.02 0.36,0 0.69,-0.15 0.93,-0.41 0.24,-0.26 0.36,-0.59 0.35,-0.94 -0.03,-0.71 -0.63,-1.28 -1.33,-1.26 z" id="path107" style="fill:#ffffff"></path><path class="cls-1" d="m 81.89,148.42 c -0.62,0.1 -1.05,0.69 -0.96,1.31 0.04,0.31 0.2,0.58 0.45,0.76 0.14,0.1 0.3,0.17 0.47,0.21 0.13,0.02 0.27,0.03 0.4,0 0.31,-0.05 0.58,-0.22 0.76,-0.48 0.18,-0.25 0.25,-0.56 0.19,-0.86 -0.11,-0.62 -0.71,-1.04 -1.32,-0.94 z" id="path108" style="fill:#ffffff"></path><path class="cls-1" d="m 88.07,147.13 c -0.52,0.16 -0.82,0.72 -0.66,1.25 0.07,0.26 0.25,0.47 0.48,0.6 0.09,0.05 0.19,0.08 0.29,0.1 0.16,0.03 0.33,0.02 0.49,-0.03 0.26,-0.08 0.47,-0.26 0.6,-0.5 0.12,-0.24 0.14,-0.51 0.06,-0.77 -0.17,-0.52 -0.74,-0.81 -1.26,-0.65 z" id="path109" style="fill:#ffffff"></path><path class="cls-1" d="m 95.16,145.35 c -0.21,-0.42 -0.72,-0.6 -1.14,-0.39 -0.42,0.2 -0.6,0.71 -0.41,1.13 0.09,0.21 0.27,0.37 0.48,0.44 0.04,0.02 0.09,0.03 0.14,0.04 0.18,0.03 0.36,0 0.53,-0.07 0.21,-0.1 0.36,-0.28 0.44,-0.49 0.07,-0.22 0.06,-0.45 -0.04,-0.65 v 0 z" id="path110" style="fill:#ffffff"></path><path class="cls-1" d="m 100.59,142.13 c -0.22,-0.32 -0.65,-0.4 -0.97,-0.19 -0.32,0.21 -0.41,0.65 -0.2,0.97 0.1,0.16 0.26,0.27 0.45,0.3 h 0.01 c 0.18,0.04 0.37,0 0.52,-0.11 0.16,-0.11 0.26,-0.27 0.3,-0.45 0.04,-0.18 0,-0.37 -0.11,-0.53 v 0 z" id="path111" style="fill:#ffffff"></path><path class="cls-1" d="m 105.53,138.2 v 0 c -0.21,-0.23 -0.55,-0.24 -0.78,-0.04 -0.23,0.2 -0.25,0.55 -0.05,0.78 0.08,0.09 0.19,0.15 0.31,0.18 0.02,0 0.05,0 0.07,0 0.15,0.01 0.29,-0.04 0.41,-0.14 0.11,-0.1 0.17,-0.23 0.18,-0.38 0,-0.15 -0.04,-0.29 -0.14,-0.4 z m -0.22,0.2 z" id="path112" style="fill:#ffffff"></path><path class="cls-1" d="m 35.98,128.35 v 0 c -0.47,0.29 -0.79,0.74 -0.91,1.28 -0.12,0.56 0,1.13 0.32,1.61 0.32,0.47 0.79,0.78 1.34,0.89 h 0.04 c 0.55,0.1 1.09,-0.03 1.53,-0.36 0.91,-0.68 1.13,-1.92 0.51,-2.84 -0.62,-0.91 -1.86,-1.17 -2.82,-0.58 z" id="path113" style="fill:#ffffff"></path><path class="cls-1" d="m 33.07,122.75 c -0.47,0.2 -0.82,0.58 -1,1.06 -0.18,0.49 -0.16,1.03 0.08,1.51 0.23,0.48 0.64,0.84 1.14,1 0.08,0.02 0.16,0.04 0.23,0.06 0.42,0.08 0.84,0.01 1.22,-0.19 0.92,-0.5 1.3,-1.61 0.85,-2.54 -0.45,-0.92 -1.56,-1.32 -2.52,-0.9 z" id="path114" style="fill:#ffffff"></path><path class="cls-1" d="m 33.15,117.95 c -0.29,-0.91 -1.25,-1.41 -2.18,-1.15 -0.45,0.13 -0.83,0.42 -1.05,0.84 -0.23,0.43 -0.27,0.92 -0.13,1.38 0.15,0.47 0.47,0.84 0.9,1.06 0.14,0.07 0.29,0.12 0.45,0.15 0.3,0.06 0.6,0.03 0.9,-0.07 0.91,-0.33 1.4,-1.29 1.11,-2.2 z" id="path115" style="fill:#ffffff"></path><path class="cls-1" d="m 31.54,111.93 c -0.14,-0.86 -0.94,-1.44 -1.82,-1.33 -0.43,0.06 -0.8,0.28 -1.06,0.63 -0.26,0.35 -0.37,0.79 -0.29,1.23 0.07,0.44 0.31,0.82 0.68,1.07 0.18,0.13 0.39,0.21 0.6,0.25 0.2,0.04 0.4,0.04 0.6,0 0.87,-0.18 1.44,-0.99 1.29,-1.85 z" id="path116" style="fill:#ffffff"></path><path class="cls-1" d="m 30.8,105.73 c -0.02,-0.79 -0.66,-1.41 -1.47,-1.42 -0.39,0 -0.76,0.15 -1.03,0.43 -0.28,0.28 -0.43,0.66 -0.42,1.06 0,0.4 0.18,0.77 0.47,1.04 0.2,0.19 0.44,0.31 0.71,0.36 0.11,0.02 0.23,0.03 0.34,0.02 0.8,-0.04 1.42,-0.7 1.4,-1.49 z" id="path117" style="fill:#ffffff"></path><path class="cls-1" d="m 29.52,100.6 c 0.71,0.07 1.35,-0.45 1.43,-1.15 0.08,-0.7 -0.42,-1.35 -1.13,-1.45 -0.35,-0.05 -0.69,0.04 -0.97,0.25 -0.28,0.22 -0.46,0.53 -0.5,0.89 -0.04,0.36 0.06,0.71 0.28,0.98 0.19,0.24 0.46,0.4 0.76,0.46 0.04,0 0.08,0.01 0.12,0.02 z" id="path118" style="fill:#ffffff"></path><path class="cls-1" d="m 30.58,94.07 c 0,0 0.04,0 0.06,0.01 0.59,0.11 1.19,-0.25 1.34,-0.84 0.16,-0.6 -0.2,-1.23 -0.81,-1.41 -0.3,-0.09 -0.61,-0.05 -0.88,0.1 -0.27,0.15 -0.47,0.41 -0.55,0.71 -0.08,0.31 -0.04,0.62 0.12,0.89 0.16,0.27 0.41,0.45 0.71,0.53 z" id="path119" style="fill:#ffffff"></path><path class="cls-1" d="m 32.58,87.77 c 0.06,0.03 0.13,0.04 0.19,0.06 0.46,0.09 0.93,-0.15 1.12,-0.59 0.21,-0.5 -0.02,-1.09 -0.52,-1.31 -0.24,-0.11 -0.52,-0.12 -0.77,-0.02 -0.25,0.1 -0.45,0.29 -0.56,0.55 -0.11,0.25 -0.11,0.53 0,0.78 0.1,0.25 0.3,0.44 0.55,0.54 z" id="path120" style="fill:#ffffff"></path><path class="cls-1" d="m 35.48,81.82 c 0.09,0.05 0.18,0.08 0.27,0.1 0.34,0.06 0.7,-0.08 0.89,-0.39 0.24,-0.4 0.11,-0.92 -0.28,-1.17 -0.19,-0.12 -0.42,-0.16 -0.65,-0.11 -0.22,0.05 -0.41,0.19 -0.53,0.39 -0.12,0.2 -0.16,0.43 -0.1,0.65 0.06,0.22 0.2,0.41 0.39,0.52 z" id="path121" style="fill:#ffffff"></path><path class="cls-1" d="m 39.21,76.36 c 0.09,0.07 0.2,0.12 0.31,0.14 0.24,0.05 0.51,-0.04 0.67,-0.24 0.24,-0.3 0.2,-0.74 -0.09,-0.99 -0.14,-0.12 -0.33,-0.18 -0.51,-0.16 -0.19,0.02 -0.36,0.11 -0.48,0.25 -0.12,0.15 -0.18,0.33 -0.16,0.52 0.02,0.19 0.11,0.36 0.26,0.47 z" id="path122" style="fill:#ffffff"></path><path class="cls-1" d="m 44,71.67 c 0.17,0.03 0.34,-0.01 0.48,-0.13 0.22,-0.2 0.24,-0.55 0.04,-0.78 -0.1,-0.11 -0.24,-0.17 -0.38,-0.18 -0.15,0 -0.29,0.04 -0.4,0.14 -0.11,0.1 -0.17,0.24 -0.18,0.38 0,0.15 0.05,0.29 0.15,0.4 0.08,0.09 0.19,0.15 0.3,0.17 z" id="path123" style="fill:#ffffff"></path></g><path class="cls-1" d="m 174.69377,35.562138 c 2.92,0 5.22,0.9 6.9,2.7 1.68,1.8 2.52,4.39 2.52,7.78 v 15.72 h -7.05 v -15.01 c 0,-3.76 -1.5,-5.64 -4.48,-5.64 -1.51,0 -2.73,0.6 -3.65,1.79 -0.92,1.19 -1.39,2.91 -1.39,5.16 v 13.7 h -7.05 v -25.59 h 6.6 v 3.22 h 0.1 c 1.88,-2.55 4.38,-3.83 7.51,-3.83 z" id="path124" style="fill:#ffffff"></path><g id="g187" style="fill:#ffffff" transform="translate(-27.826226,-64.927862)"><path class="cls-1" d="m 174.92,135.51 v 6.08 h 3.5 v 1.04 h -4.7 v -7.12 z" id="path125" style="fill:#ffffff"></path><path class="cls-1" d="m 181.26,141.94 c 0.32,0 0.58,-0.08 0.79,-0.23 0.2,-0.15 0.33,-0.36 0.38,-0.61 h 1.17 c -0.1,0.48 -0.36,0.88 -0.77,1.2 -0.41,0.32 -0.94,0.48 -1.57,0.48 -0.77,0 -1.37,-0.25 -1.8,-0.75 -0.44,-0.5 -0.66,-1.17 -0.66,-2 0,-0.77 0.22,-1.4 0.66,-1.89 0.44,-0.49 1.03,-0.74 1.78,-0.74 0.57,0 1.06,0.16 1.47,0.47 0.4,0.31 0.67,0.73 0.81,1.26 0.09,0.3 0.14,0.7 0.14,1.19 h -3.73 c 0.02,0.55 0.15,0.95 0.4,1.22 0.24,0.27 0.56,0.4 0.94,0.4 z m 0.85,-3.36 c -0.23,-0.23 -0.52,-0.34 -0.88,-0.34 -0.36,0 -0.64,0.11 -0.87,0.34 -0.23,0.23 -0.37,0.56 -0.42,0.99 h 2.57 c -0.04,-0.43 -0.17,-0.76 -0.41,-0.99 z" id="path126" style="fill:#ffffff"></path><path class="cls-1" d="m 189.71,137.42 c 0.65,0 1.16,0.24 1.54,0.72 0.38,0.48 0.58,1.13 0.58,1.95 0,0.82 -0.19,1.46 -0.57,1.94 -0.38,0.48 -0.89,0.72 -1.54,0.72 -0.32,0 -0.61,-0.07 -0.88,-0.21 -0.26,-0.14 -0.47,-0.33 -0.62,-0.58 h -0.02 v 2.51 h -1.14 v -6.93 h 1.11 v 0.7 h 0.02 c 0.15,-0.26 0.36,-0.46 0.62,-0.61 0.27,-0.15 0.57,-0.22 0.89,-0.22 z m -0.33,0.89 c -0.37,0 -0.67,0.16 -0.9,0.48 -0.23,0.32 -0.33,0.75 -0.33,1.3 0,0.55 0.11,0.98 0.33,1.3 0.22,0.32 0.52,0.48 0.9,0.48 0.38,0 0.69,-0.16 0.92,-0.49 0.23,-0.33 0.34,-0.75 0.34,-1.29 0,-0.54 -0.11,-0.97 -0.34,-1.29 -0.23,-0.32 -0.53,-0.49 -0.92,-0.49 z" id="path127" style="fill:#ffffff"></path><path class="cls-1" d="m 195.47,137.48 c 0.13,0 0.27,0.02 0.42,0.05 v 1.01 c -0.13,-0.03 -0.26,-0.04 -0.4,-0.04 -0.45,0 -0.8,0.14 -1.04,0.42 -0.24,0.28 -0.36,0.69 -0.36,1.21 v 2.49 h -1.14 v -5.08 h 1.06 v 0.75 h 0.02 c 0.34,-0.55 0.82,-0.82 1.45,-0.82 z" id="path128" style="fill:#ffffff"></path><path class="cls-1" d="m 196.88,138.12 c 0.45,-0.48 1.06,-0.73 1.83,-0.73 0.77,0 1.38,0.24 1.83,0.73 0.45,0.49 0.67,1.14 0.67,1.96 0,0.82 -0.22,1.48 -0.67,1.96 -0.45,0.48 -1.06,0.73 -1.83,0.73 -0.77,0 -1.38,-0.24 -1.83,-0.73 -0.45,-0.49 -0.68,-1.14 -0.68,-1.96 0,-0.82 0.23,-1.48 0.68,-1.96 z m 2.79,0.66 c -0.23,-0.32 -0.55,-0.48 -0.96,-0.48 -0.41,0 -0.73,0.16 -0.96,0.48 -0.23,0.32 -0.35,0.76 -0.35,1.31 0,0.55 0.12,0.99 0.35,1.31 0.23,0.32 0.55,0.48 0.96,0.48 0.41,0 0.73,-0.16 0.96,-0.48 0.23,-0.32 0.35,-0.76 0.35,-1.31 0,-0.55 -0.12,-0.99 -0.35,-1.31 z" id="path129" style="fill:#ffffff"></path><path class="cls-1" d="m 204.2,137.41 c 0.61,0 1.11,0.28 1.48,0.85 h 0.02 v -0.71 h 1.08 v 4.76 c 0,0.75 -0.2,1.31 -0.6,1.69 -0.4,0.38 -0.97,0.56 -1.71,0.56 -0.67,0 -1.2,-0.14 -1.58,-0.42 -0.38,-0.28 -0.58,-0.68 -0.6,-1.18 h 1.14 c 0.01,0.25 0.11,0.44 0.3,0.57 0.19,0.13 0.44,0.2 0.76,0.2 0.39,0 0.69,-0.11 0.89,-0.34 0.2,-0.23 0.29,-0.6 0.29,-1.11 v -0.5 h -0.02 c -0.37,0.53 -0.86,0.8 -1.47,0.8 -0.65,0 -1.16,-0.23 -1.54,-0.7 -0.38,-0.47 -0.57,-1.09 -0.57,-1.88 0,-0.79 0.19,-1.41 0.58,-1.88 0.39,-0.47 0.9,-0.7 1.55,-0.7 z m 0.26,0.95 c -0.37,0 -0.66,0.15 -0.88,0.44 -0.22,0.29 -0.33,0.69 -0.33,1.19 0,0.5 0.11,0.9 0.33,1.19 0.22,0.3 0.51,0.45 0.88,0.45 0.39,0 0.69,-0.15 0.92,-0.45 0.22,-0.3 0.33,-0.69 0.33,-1.19 0,-0.5 -0.11,-0.9 -0.33,-1.19 -0.22,-0.29 -0.53,-0.44 -0.92,-0.44 z" id="path130" style="fill:#ffffff"></path><path class="cls-1" d="m 210.77,137.48 c 0.13,0 0.27,0.02 0.42,0.05 v 1.01 c -0.13,-0.03 -0.26,-0.04 -0.4,-0.04 -0.45,0 -0.8,0.14 -1.04,0.42 -0.24,0.28 -0.37,0.69 -0.37,1.21 v 2.49 h -1.14 v -5.08 h 1.06 v 0.75 h 0.02 c 0.34,-0.55 0.82,-0.82 1.45,-0.82 z" id="path131" style="fill:#ffffff"></path><path class="cls-1" d="m 213.71,137.4 c 0.68,0 1.2,0.17 1.55,0.5 0.36,0.33 0.54,0.83 0.54,1.49 v 1.9 c 0,0.55 0.04,0.99 0.13,1.34 h -1.03 c -0.05,-0.21 -0.07,-0.44 -0.07,-0.71 h -0.02 c -0.37,0.55 -0.94,0.82 -1.71,0.82 -0.52,0 -0.94,-0.14 -1.25,-0.43 -0.31,-0.28 -0.47,-0.64 -0.47,-1.08 0,-0.44 0.15,-0.78 0.45,-1.04 0.3,-0.26 0.8,-0.45 1.5,-0.56 0.43,-0.07 0.88,-0.12 1.37,-0.15 v -0.2 c 0,-0.7 -0.33,-1.05 -0.99,-1.05 -0.31,0 -0.55,0.08 -0.72,0.24 -0.17,0.16 -0.27,0.38 -0.28,0.65 h -1.12 c 0.03,-0.51 0.22,-0.92 0.58,-1.24 0.36,-0.32 0.88,-0.48 1.54,-0.48 z m 0.99,3.07 v -0.25 c -0.43,0.03 -0.82,0.07 -1.17,0.13 -0.37,0.06 -0.62,0.15 -0.78,0.27 -0.16,0.12 -0.22,0.3 -0.22,0.53 0,0.23 0.08,0.41 0.23,0.55 0.16,0.14 0.38,0.2 0.67,0.2 0.39,0 0.69,-0.11 0.92,-0.34 0.13,-0.14 0.23,-0.29 0.28,-0.44 0.05,-0.16 0.08,-0.37 0.08,-0.65 z" id="path132" style="fill:#ffffff"></path><path class="cls-1" d="m 222.85,137.43 c 0.55,0 0.97,0.18 1.28,0.53 0.31,0.35 0.46,0.87 0.46,1.54 v 3.13 h -1.14 v -3.02 c 0,-0.84 -0.31,-1.26 -0.92,-1.26 -0.33,0 -0.59,0.14 -0.79,0.41 -0.19,0.27 -0.28,0.65 -0.28,1.13 v 2.74 h -1.14 v -3.14 c 0,-0.36 -0.08,-0.64 -0.23,-0.84 -0.16,-0.2 -0.38,-0.3 -0.68,-0.3 -0.34,0 -0.6,0.14 -0.79,0.41 -0.19,0.27 -0.28,0.66 -0.28,1.15 v 2.72 h -1.14 v -5.08 h 1.09 v 0.61 h 0.02 c 0.36,-0.49 0.83,-0.73 1.41,-0.73 0.73,0 1.23,0.31 1.5,0.92 0.39,-0.61 0.94,-0.92 1.63,-0.92 z" id="path133" style="fill:#ffffff"></path><path class="cls-1" d="m 231.65,137.43 c 0.55,0 0.97,0.18 1.28,0.53 0.31,0.35 0.46,0.87 0.46,1.54 v 3.13 h -1.14 v -3.02 c 0,-0.84 -0.31,-1.26 -0.92,-1.26 -0.33,0 -0.59,0.14 -0.79,0.41 -0.19,0.27 -0.28,0.65 -0.28,1.13 v 2.74 h -1.14 v -3.14 c 0,-0.36 -0.08,-0.64 -0.23,-0.84 -0.16,-0.2 -0.38,-0.3 -0.68,-0.3 -0.34,0 -0.6,0.14 -0.79,0.41 -0.19,0.27 -0.28,0.66 -0.28,1.15 v 2.72 H 226 v -5.08 h 1.09 v 0.61 h 0.02 c 0.36,-0.49 0.83,-0.73 1.41,-0.73 0.73,0 1.23,0.31 1.5,0.92 0.39,-0.61 0.94,-0.92 1.63,-0.92 z" id="path134" style="fill:#ffffff"></path><path class="cls-1" d="m 236.91,141.94 c 0.32,0 0.58,-0.08 0.79,-0.23 0.21,-0.15 0.33,-0.36 0.38,-0.61 h 1.17 c -0.1,0.48 -0.36,0.88 -0.77,1.2 -0.41,0.32 -0.94,0.48 -1.57,0.48 -0.77,0 -1.37,-0.25 -1.8,-0.75 -0.44,-0.5 -0.66,-1.17 -0.66,-2 0,-0.77 0.22,-1.4 0.66,-1.89 0.44,-0.49 1.03,-0.74 1.79,-0.74 0.57,0 1.06,0.16 1.46,0.47 0.4,0.31 0.67,0.73 0.81,1.26 0.09,0.3 0.14,0.7 0.14,1.19 h -3.73 c 0.02,0.55 0.15,0.95 0.39,1.22 0.24,0.27 0.55,0.4 0.94,0.4 z m 0.86,-3.36 c -0.23,-0.23 -0.52,-0.34 -0.88,-0.34 -0.36,0 -0.65,0.11 -0.88,0.34 -0.23,0.23 -0.37,0.56 -0.42,0.99 h 2.57 c -0.04,-0.43 -0.18,-0.76 -0.4,-0.99 z" id="path135" style="fill:#ffffff"></path><path class="cls-1" d="m 244.84,137.4 c 0.64,0 1.17,0.19 1.58,0.56 0.42,0.37 0.65,0.85 0.71,1.43 h -1.19 c -0.03,-0.33 -0.14,-0.6 -0.34,-0.79 -0.2,-0.2 -0.45,-0.29 -0.76,-0.29 -0.4,0 -0.71,0.16 -0.93,0.47 -0.22,0.32 -0.33,0.76 -0.33,1.32 0,0.56 0.11,1 0.33,1.32 0.22,0.32 0.54,0.47 0.93,0.47 0.31,0 0.56,-0.11 0.76,-0.33 0.2,-0.22 0.31,-0.5 0.33,-0.85 h 1.2 c -0.05,0.62 -0.29,1.12 -0.7,1.5 -0.41,0.38 -0.94,0.58 -1.59,0.58 -0.75,0 -1.35,-0.24 -1.8,-0.73 -0.45,-0.49 -0.67,-1.14 -0.67,-1.96 0,-0.82 0.22,-1.47 0.67,-1.96 0.45,-0.49 1.05,-0.73 1.8,-0.73 z" id="path136" style="fill:#ffffff"></path><path class="cls-1" d="m 250.1,137.4 c 0.68,0 1.2,0.17 1.55,0.5 0.36,0.33 0.54,0.83 0.54,1.49 v 1.9 c 0,0.55 0.04,0.99 0.13,1.34 h -1.03 c -0.05,-0.21 -0.07,-0.44 -0.07,-0.71 h -0.02 c -0.37,0.55 -0.94,0.82 -1.71,0.82 -0.52,0 -0.94,-0.14 -1.25,-0.43 -0.31,-0.28 -0.47,-0.64 -0.47,-1.08 0,-0.44 0.15,-0.78 0.45,-1.04 0.3,-0.26 0.8,-0.45 1.5,-0.56 0.43,-0.07 0.88,-0.12 1.37,-0.15 v -0.2 c 0,-0.7 -0.33,-1.05 -0.99,-1.05 -0.31,0 -0.55,0.08 -0.72,0.24 -0.17,0.16 -0.27,0.38 -0.28,0.65 h -1.12 c 0.03,-0.51 0.22,-0.92 0.58,-1.24 0.36,-0.32 0.88,-0.48 1.54,-0.48 z m 0.99,3.07 v -0.25 c -0.43,0.03 -0.82,0.07 -1.17,0.13 -0.37,0.06 -0.62,0.15 -0.78,0.27 -0.15,0.12 -0.22,0.3 -0.22,0.53 0,0.23 0.08,0.41 0.23,0.55 0.16,0.14 0.38,0.2 0.67,0.2 0.39,0 0.69,-0.11 0.92,-0.34 0.13,-0.14 0.23,-0.29 0.28,-0.44 0.05,-0.16 0.08,-0.37 0.08,-0.65 z" id="path137" style="fill:#ffffff"></path><path class="cls-1" d="m 256.21,137.43 c 0.59,0 1.04,0.18 1.37,0.53 0.33,0.35 0.49,0.87 0.49,1.56 v 3.11 h -1.14 v -3.01 c 0,-0.85 -0.34,-1.27 -1.03,-1.27 -0.34,0 -0.62,0.13 -0.83,0.38 -0.22,0.25 -0.33,0.61 -0.33,1.08 v 2.82 h -1.14 v -5.08 h 1.08 v 0.66 h 0.02 c 0.36,-0.52 0.87,-0.78 1.52,-0.78 z" id="path138" style="fill:#ffffff"></path><path class="cls-1" d="m 261.37,137.4 c 0.68,0 1.2,0.17 1.55,0.5 0.36,0.33 0.54,0.83 0.54,1.49 v 1.9 c 0,0.55 0.04,0.99 0.13,1.34 h -1.03 c -0.05,-0.21 -0.07,-0.44 -0.07,-0.71 h -0.02 c -0.37,0.55 -0.94,0.82 -1.71,0.82 -0.52,0 -0.94,-0.14 -1.25,-0.43 -0.31,-0.28 -0.47,-0.64 -0.47,-1.08 0,-0.44 0.15,-0.78 0.45,-1.04 0.3,-0.26 0.8,-0.45 1.5,-0.56 0.43,-0.07 0.88,-0.12 1.37,-0.15 v -0.2 c 0,-0.7 -0.33,-1.05 -0.99,-1.05 -0.31,0 -0.55,0.08 -0.72,0.24 -0.17,0.16 -0.27,0.38 -0.28,0.65 h -1.12 c 0.03,-0.51 0.22,-0.92 0.58,-1.24 0.36,-0.32 0.88,-0.48 1.54,-0.48 z m 0.99,3.07 v -0.25 c -0.43,0.03 -0.82,0.07 -1.17,0.13 -0.37,0.06 -0.62,0.15 -0.78,0.27 -0.15,0.12 -0.22,0.3 -0.22,0.53 0,0.23 0.08,0.41 0.23,0.55 0.16,0.14 0.38,0.2 0.67,0.2 0.39,0 0.69,-0.11 0.92,-0.34 0.13,-0.14 0.23,-0.29 0.28,-0.44 0.05,-0.16 0.08,-0.37 0.08,-0.65 z" id="path139" style="fill:#ffffff"></path><path class="cls-1" d="m 269.26,135.51 v 7.12 h -1.11 v -0.7 h -0.02 c -0.15,0.26 -0.35,0.46 -0.62,0.61 -0.27,0.14 -0.56,0.21 -0.88,0.21 -0.65,0 -1.16,-0.24 -1.54,-0.73 -0.38,-0.48 -0.58,-1.13 -0.58,-1.93 0,-0.8 0.19,-1.46 0.57,-1.95 0.38,-0.49 0.89,-0.72 1.54,-0.72 0.32,0 0.61,0.07 0.88,0.21 0.26,0.14 0.47,0.33 0.62,0.58 h 0.02 v -2.7 h 1.14 z m -2.31,2.8 c -0.39,0 -0.69,0.16 -0.92,0.49 -0.23,0.33 -0.34,0.75 -0.34,1.29 0,0.54 0.11,0.97 0.34,1.29 0.23,0.32 0.53,0.49 0.92,0.49 0.39,0 0.67,-0.16 0.89,-0.48 0.22,-0.32 0.33,-0.75 0.33,-1.3 0,-0.55 -0.11,-0.99 -0.33,-1.3 -0.22,-0.32 -0.52,-0.48 -0.89,-0.48 z" id="path140" style="fill:#ffffff"></path><path class="cls-1" d="m 271.87,135.51 v 1.09 h -1.14 v -1.09 z m 0,2.04 v 5.08 h -1.14 v -5.08 z" id="path141" style="fill:#ffffff"></path><path class="cls-1" d="m 275.43,141.94 c 0.32,0 0.58,-0.08 0.79,-0.23 0.21,-0.15 0.33,-0.36 0.38,-0.61 h 1.17 c -0.1,0.48 -0.36,0.88 -0.77,1.2 -0.41,0.32 -0.94,0.48 -1.57,0.48 -0.77,0 -1.37,-0.25 -1.8,-0.75 -0.43,-0.5 -0.66,-1.17 -0.66,-2 0,-0.77 0.22,-1.4 0.66,-1.89 0.44,-0.49 1.03,-0.74 1.79,-0.74 0.57,0 1.06,0.16 1.46,0.47 0.4,0.31 0.67,0.73 0.81,1.26 0.09,0.3 0.14,0.7 0.14,1.19 h -3.73 c 0.02,0.55 0.15,0.95 0.4,1.22 0.24,0.27 0.55,0.4 0.93,0.4 z m 0.86,-3.36 c -0.23,-0.23 -0.52,-0.34 -0.88,-0.34 -0.36,0 -0.65,0.11 -0.88,0.34 -0.23,0.23 -0.37,0.56 -0.42,0.99 h 2.57 c -0.04,-0.43 -0.17,-0.76 -0.4,-0.99 z" id="path142" style="fill:#ffffff"></path><path class="cls-1" d="m 281.56,137.43 c 0.59,0 1.04,0.18 1.37,0.53 0.33,0.35 0.49,0.87 0.49,1.56 v 3.11 h -1.14 v -3.01 c 0,-0.85 -0.34,-1.27 -1.03,-1.27 -0.34,0 -0.62,0.13 -0.83,0.38 -0.22,0.25 -0.33,0.61 -0.33,1.08 v 2.82 h -1.14 v -5.08 h 1.08 v 0.66 h 0.02 c 0.36,-0.52 0.87,-0.78 1.52,-0.78 z" id="path143" style="fill:#ffffff"></path><path class="cls-1" d="m 291.53,135.51 v 7.12 h -1.11 v -0.7 h -0.02 c -0.15,0.26 -0.35,0.46 -0.62,0.61 -0.27,0.14 -0.56,0.21 -0.88,0.21 -0.65,0 -1.16,-0.24 -1.54,-0.73 -0.38,-0.48 -0.58,-1.13 -0.58,-1.93 0,-0.8 0.19,-1.46 0.57,-1.95 0.38,-0.49 0.89,-0.72 1.54,-0.72 0.32,0 0.61,0.07 0.88,0.21 0.26,0.14 0.47,0.33 0.62,0.58 h 0.02 v -2.7 h 1.14 z m -2.31,2.8 c -0.39,0 -0.69,0.16 -0.92,0.49 -0.23,0.33 -0.34,0.75 -0.34,1.29 0,0.54 0.11,0.97 0.34,1.29 0.23,0.32 0.53,0.49 0.92,0.49 0.39,0 0.67,-0.16 0.89,-0.48 0.22,-0.32 0.33,-0.75 0.33,-1.3 0,-0.55 -0.11,-0.99 -0.33,-1.3 -0.22,-0.32 -0.52,-0.48 -0.89,-0.48 z" id="path144" style="fill:#ffffff"></path><path class="cls-1" d="m 295.1,141.94 c 0.32,0 0.58,-0.08 0.79,-0.23 0.21,-0.15 0.33,-0.36 0.38,-0.61 h 1.17 c -0.1,0.48 -0.36,0.88 -0.77,1.2 -0.41,0.32 -0.94,0.48 -1.57,0.48 -0.77,0 -1.37,-0.25 -1.8,-0.75 -0.43,-0.5 -0.66,-1.17 -0.66,-2 0,-0.77 0.22,-1.4 0.66,-1.89 0.44,-0.49 1.03,-0.74 1.79,-0.74 0.57,0 1.06,0.16 1.46,0.47 0.4,0.31 0.67,0.73 0.81,1.26 0.09,0.3 0.14,0.7 0.14,1.19 h -3.73 c 0.02,0.55 0.15,0.95 0.4,1.22 0.24,0.27 0.55,0.4 0.93,0.4 z m 0.86,-3.36 c -0.23,-0.23 -0.52,-0.34 -0.88,-0.34 -0.36,0 -0.65,0.11 -0.88,0.34 -0.23,0.23 -0.37,0.56 -0.42,0.99 h 2.57 c -0.04,-0.43 -0.17,-0.76 -0.4,-0.99 z" id="path145" style="fill:#ffffff"></path><path class="cls-1" d="m 303.03,137.4 c 0.64,0 1.17,0.19 1.58,0.56 0.42,0.37 0.65,0.85 0.71,1.43 h -1.19 c -0.03,-0.33 -0.14,-0.6 -0.34,-0.79 -0.2,-0.2 -0.45,-0.29 -0.76,-0.29 -0.4,0 -0.71,0.16 -0.93,0.47 -0.22,0.32 -0.33,0.76 -0.33,1.32 0,0.56 0.11,1 0.33,1.32 0.22,0.32 0.54,0.47 0.93,0.47 0.31,0 0.56,-0.11 0.76,-0.33 0.2,-0.22 0.31,-0.5 0.33,-0.85 h 1.2 c -0.05,0.62 -0.29,1.12 -0.7,1.5 -0.41,0.38 -0.94,0.58 -1.59,0.58 -0.75,0 -1.35,-0.24 -1.8,-0.73 -0.45,-0.49 -0.67,-1.14 -0.67,-1.96 0,-0.82 0.22,-1.47 0.67,-1.96 0.45,-0.49 1.05,-0.73 1.8,-0.73 z" id="path146" style="fill:#ffffff"></path><path class="cls-1" d="m 308.92,137.48 c 0.13,0 0.27,0.02 0.42,0.05 v 1.01 c -0.13,-0.03 -0.26,-0.04 -0.4,-0.04 -0.45,0 -0.8,0.14 -1.04,0.42 -0.24,0.28 -0.37,0.69 -0.37,1.21 v 2.49 h -1.14 v -5.08 h 1.06 v 0.75 h 0.02 c 0.34,-0.55 0.82,-0.82 1.45,-0.82 z" id="path147" style="fill:#ffffff"></path><path class="cls-1" d="m 312.11,141.94 c 0.32,0 0.58,-0.08 0.79,-0.23 0.21,-0.15 0.33,-0.36 0.38,-0.61 h 1.17 c -0.1,0.48 -0.36,0.88 -0.77,1.2 -0.41,0.32 -0.94,0.48 -1.57,0.48 -0.77,0 -1.37,-0.25 -1.8,-0.75 -0.43,-0.5 -0.66,-1.17 -0.66,-2 0,-0.77 0.22,-1.4 0.66,-1.89 0.44,-0.49 1.03,-0.74 1.79,-0.74 0.57,0 1.06,0.16 1.46,0.47 0.4,0.31 0.67,0.73 0.81,1.26 0.09,0.3 0.14,0.7 0.14,1.19 h -3.73 c 0.02,0.55 0.15,0.95 0.4,1.22 0.24,0.27 0.55,0.4 0.93,0.4 z m 0.86,-3.36 c -0.23,-0.23 -0.52,-0.34 -0.88,-0.34 -0.36,0 -0.65,0.11 -0.88,0.34 -0.23,0.23 -0.37,0.56 -0.42,0.99 h 2.57 c -0.04,-0.43 -0.17,-0.76 -0.4,-0.99 z m 0.59,-3.07 -1.32,1.44 h -0.93 l 0.81,-1.44 z" id="path148" style="fill:#ffffff"></path><path class="cls-1" d="m 317.52,137.4 c 0.68,0 1.2,0.17 1.55,0.5 0.36,0.33 0.54,0.83 0.54,1.49 v 1.9 c 0,0.55 0.04,0.99 0.13,1.34 h -1.03 c -0.05,-0.21 -0.07,-0.44 -0.07,-0.71 h -0.02 c -0.37,0.55 -0.94,0.82 -1.71,0.82 -0.52,0 -0.94,-0.14 -1.25,-0.43 -0.31,-0.28 -0.47,-0.64 -0.47,-1.08 0,-0.44 0.15,-0.78 0.45,-1.04 0.3,-0.26 0.8,-0.45 1.5,-0.56 0.43,-0.07 0.88,-0.12 1.37,-0.15 v -0.2 c 0,-0.7 -0.33,-1.05 -0.99,-1.05 -0.31,0 -0.55,0.08 -0.72,0.24 -0.17,0.16 -0.27,0.38 -0.28,0.65 h -1.12 c 0.03,-0.51 0.22,-0.92 0.58,-1.24 0.36,-0.32 0.88,-0.48 1.54,-0.48 z m 0.99,3.07 v -0.25 c -0.43,0.03 -0.82,0.07 -1.17,0.13 -0.37,0.06 -0.62,0.15 -0.78,0.27 -0.15,0.12 -0.22,0.3 -0.22,0.53 0,0.23 0.08,0.41 0.23,0.55 0.16,0.14 0.38,0.2 0.67,0.2 0.39,0 0.69,-0.11 0.92,-0.34 0.13,-0.14 0.23,-0.29 0.28,-0.44 0.05,-0.16 0.08,-0.37 0.08,-0.65 z" id="path149" style="fill:#ffffff"></path><path class="cls-1" d="m 322.95,141.76 c 0.15,0 0.26,-0.02 0.35,-0.05 v 0.89 c -0.21,0.06 -0.42,0.09 -0.64,0.09 -0.54,0 -0.93,-0.12 -1.18,-0.36 -0.25,-0.24 -0.36,-0.64 -0.36,-1.2 v -2.71 h -0.85 v -0.87 h 0.85 v -1.27 h 1.14 v 1.27 h 0.99 v 0.87 h -0.99 v 2.54 c 0,0.29 0.05,0.49 0.16,0.62 0.11,0.12 0.28,0.18 0.53,0.18 z" id="path150" style="fill:#ffffff"></path><path class="cls-1" d="m 325.44,135.51 v 1.09 h -1.14 v -1.09 z m 0,2.04 v 5.08 h -1.14 v -5.08 z" id="path151" style="fill:#ffffff"></path><path class="cls-1" d="m 331.13,137.55 -1.77,5.08 h -1.48 l -1.77,-5.08 h 1.19 l 0.66,2.07 c 0.22,0.67 0.44,1.41 0.65,2.22 h 0.02 c 0.21,-0.81 0.43,-1.55 0.65,-2.22 l 0.66,-2.07 z" id="path152" style="fill:#ffffff"></path><path class="cls-1" d="m 332.94,135.51 v 1.09 h -1.14 v -1.09 z m 0,2.04 v 5.08 h -1.14 v -5.08 z" id="path153" style="fill:#ffffff"></path><path class="cls-1" d="m 336.44,141.76 c 0.15,0 0.26,-0.02 0.35,-0.05 v 0.89 c -0.21,0.06 -0.42,0.09 -0.64,0.09 -0.54,0 -0.93,-0.12 -1.18,-0.36 -0.25,-0.24 -0.36,-0.64 -0.36,-1.2 v -2.71 h -0.85 v -0.87 h 0.85 v -1.27 h 1.14 v 1.27 h 0.99 v 0.87 h -0.99 v 2.54 c 0,0.29 0.05,0.49 0.16,0.62 0.11,0.12 0.28,0.18 0.53,0.18 z" id="path154" style="fill:#ffffff"></path><path class="cls-1" d="m 339.74,141.94 c 0.32,0 0.58,-0.08 0.79,-0.23 0.21,-0.15 0.33,-0.36 0.38,-0.61 h 1.17 c -0.1,0.48 -0.36,0.88 -0.77,1.2 -0.41,0.32 -0.94,0.48 -1.57,0.48 -0.77,0 -1.37,-0.25 -1.8,-0.75 -0.43,-0.5 -0.66,-1.17 -0.66,-2 0,-0.77 0.22,-1.4 0.66,-1.89 0.44,-0.49 1.03,-0.74 1.79,-0.74 0.57,0 1.06,0.16 1.46,0.47 0.4,0.31 0.67,0.73 0.81,1.26 0.09,0.3 0.14,0.7 0.14,1.19 h -3.73 c 0.02,0.55 0.15,0.95 0.4,1.22 0.24,0.27 0.55,0.4 0.93,0.4 z m 0.86,-3.36 c -0.23,-0.23 -0.52,-0.34 -0.88,-0.34 -0.36,0 -0.65,0.11 -0.88,0.34 -0.23,0.23 -0.37,0.56 -0.42,0.99 h 2.57 c -0.04,-0.43 -0.17,-0.76 -0.4,-0.99 z m 0.59,-3.07 -1.32,1.44 h -0.93 l 0.81,-1.44 z" id="path155" style="fill:#ffffff"></path><path class="cls-1" d="m 344.39,141.21 v 1.42 l -0.63,1.58 h -0.71 l 0.46,-1.58 h -0.44 v -1.42 z" id="path156" style="fill:#ffffff"></path><path class="cls-1" d="m 177.98,147.51 v 7.12 h -1.11 v -0.7 h -0.02 c -0.15,0.26 -0.35,0.46 -0.62,0.61 -0.27,0.14 -0.56,0.21 -0.88,0.21 -0.65,0 -1.16,-0.24 -1.54,-0.73 -0.38,-0.48 -0.58,-1.13 -0.58,-1.93 0,-0.8 0.19,-1.46 0.57,-1.95 0.38,-0.48 0.89,-0.72 1.54,-0.72 0.32,0 0.61,0.07 0.88,0.21 0.26,0.14 0.47,0.33 0.61,0.58 h 0.02 v -2.7 h 1.14 z m -2.31,2.8 c -0.39,0 -0.69,0.16 -0.92,0.49 -0.23,0.32 -0.34,0.75 -0.34,1.29 0,0.54 0.11,0.97 0.34,1.29 0.23,0.32 0.53,0.49 0.92,0.49 0.39,0 0.67,-0.16 0.9,-0.48 0.22,-0.32 0.33,-0.75 0.33,-1.3 0,-0.55 -0.11,-0.99 -0.33,-1.3 -0.22,-0.32 -0.52,-0.48 -0.9,-0.48 z" id="path157" style="fill:#ffffff"></path><path class="cls-1" d="m 180.51,147.51 v 1.25 l -0.55,1.4 h -0.62 l 0.41,-1.4 h -0.39 v -1.25 z" id="path158" style="fill:#ffffff"></path><path class="cls-1" d="m 183.04,147.51 v 1.09 h -1.14 v -1.09 z m 0,2.04 v 5.08 h -1.14 v -5.08 z" id="path159" style="fill:#ffffff"></path><path class="cls-1" d="m 187.12,149.43 c 0.59,0 1.04,0.18 1.37,0.53 0.33,0.35 0.49,0.87 0.49,1.56 v 3.11 h -1.14 v -3.01 c 0,-0.85 -0.34,-1.27 -1.03,-1.27 -0.34,0 -0.62,0.13 -0.83,0.38 -0.22,0.25 -0.32,0.61 -0.32,1.08 v 2.82 h -1.14 v -5.08 h 1.08 v 0.66 h 0.02 c 0.36,-0.52 0.87,-0.78 1.52,-0.78 z" id="path160" style="fill:#ffffff"></path><path class="cls-1" d="m 193,149.43 c 0.59,0 1.04,0.18 1.37,0.53 0.33,0.35 0.49,0.87 0.49,1.56 v 3.11 h -1.14 v -3.01 c 0,-0.85 -0.34,-1.27 -1.03,-1.27 -0.34,0 -0.62,0.13 -0.83,0.38 -0.22,0.25 -0.32,0.61 -0.32,1.08 v 2.82 h -1.14 v -5.08 h 1.08 v 0.66 h 0.02 c 0.36,-0.52 0.87,-0.78 1.52,-0.78 z" id="path161" style="fill:#ffffff"></path><path class="cls-1" d="m 196.59,150.12 c 0.45,-0.48 1.06,-0.73 1.83,-0.73 0.77,0 1.38,0.24 1.83,0.73 0.45,0.49 0.67,1.14 0.67,1.96 0,0.82 -0.22,1.48 -0.67,1.96 -0.45,0.48 -1.06,0.73 -1.83,0.73 -0.77,0 -1.38,-0.24 -1.83,-0.73 -0.45,-0.49 -0.68,-1.14 -0.68,-1.96 0,-0.82 0.23,-1.48 0.68,-1.96 z m 2.79,0.66 c -0.23,-0.32 -0.55,-0.48 -0.96,-0.48 -0.41,0 -0.73,0.16 -0.96,0.48 -0.23,0.32 -0.35,0.76 -0.35,1.31 0,0.55 0.12,0.99 0.35,1.31 0.23,0.32 0.55,0.48 0.96,0.48 0.41,0 0.73,-0.16 0.96,-0.48 0.23,-0.32 0.35,-0.76 0.35,-1.31 0,-0.55 -0.12,-0.99 -0.35,-1.31 z" id="path162" style="fill:#ffffff"></path><path class="cls-1" d="m 206.21,149.55 -1.77,5.08 h -1.48 l -1.77,-5.08 h 1.19 l 0.66,2.07 c 0.22,0.67 0.44,1.41 0.65,2.22 h 0.02 c 0.21,-0.81 0.43,-1.55 0.65,-2.22 l 0.66,-2.07 z" id="path163" style="fill:#ffffff"></path><path class="cls-1" d="m 208.66,149.4 c 0.68,0 1.2,0.17 1.55,0.5 0.36,0.33 0.54,0.83 0.54,1.49 v 1.9 c 0,0.55 0.04,0.99 0.13,1.34 h -1.03 c -0.05,-0.21 -0.07,-0.44 -0.07,-0.71 h -0.02 c -0.37,0.55 -0.94,0.82 -1.71,0.82 -0.52,0 -0.94,-0.14 -1.25,-0.43 -0.31,-0.28 -0.47,-0.64 -0.47,-1.08 0,-0.44 0.15,-0.78 0.45,-1.04 0.3,-0.26 0.8,-0.45 1.5,-0.56 0.43,-0.07 0.88,-0.12 1.37,-0.15 v -0.2 c 0,-0.7 -0.33,-1.05 -0.99,-1.05 -0.31,0 -0.55,0.08 -0.72,0.24 -0.17,0.16 -0.27,0.38 -0.28,0.65 h -1.12 c 0.03,-0.51 0.22,-0.92 0.58,-1.24 0.36,-0.32 0.88,-0.48 1.54,-0.48 z m 0.99,3.07 v -0.25 c -0.43,0.03 -0.82,0.07 -1.17,0.13 -0.37,0.06 -0.62,0.15 -0.78,0.27 -0.16,0.12 -0.22,0.3 -0.22,0.53 0,0.23 0.08,0.41 0.23,0.55 0.16,0.14 0.38,0.2 0.67,0.2 0.39,0 0.69,-0.11 0.92,-0.34 0.13,-0.14 0.23,-0.29 0.28,-0.44 0.05,-0.16 0.08,-0.37 0.08,-0.65 z" id="path164" style="fill:#ffffff"></path><path class="cls-1" d="m 214.09,153.76 c 0.15,0 0.26,-0.02 0.35,-0.05 v 0.89 c -0.21,0.06 -0.42,0.09 -0.64,0.09 -0.54,0 -0.93,-0.12 -1.17,-0.36 -0.24,-0.24 -0.37,-0.64 -0.37,-1.2 v -2.71 h -0.85 v -0.87 h 0.85 v -1.27 h 1.14 v 1.27 h 0.99 v 0.87 h -0.99 v 2.54 c 0,0.29 0.05,0.49 0.16,0.62 0.11,0.12 0.28,0.18 0.53,0.18 z" id="path165" style="fill:#ffffff"></path><path class="cls-1" d="m 216.58,147.51 v 1.09 h -1.14 v -1.09 z m 0,2.04 v 5.08 h -1.14 v -5.08 z" id="path166" style="fill:#ffffff"></path><path class="cls-1" d="m 218.37,150.12 c 0.45,-0.48 1.06,-0.73 1.83,-0.73 0.77,0 1.38,0.24 1.82,0.73 0.45,0.48 0.68,1.14 0.68,1.96 0,0.82 -0.23,1.48 -0.68,1.96 -0.45,0.48 -1.06,0.73 -1.82,0.73 -0.76,0 -1.38,-0.24 -1.83,-0.73 -0.45,-0.48 -0.68,-1.14 -0.68,-1.96 0,-0.82 0.23,-1.48 0.68,-1.96 z m 2.79,0.66 c -0.23,-0.32 -0.55,-0.48 -0.96,-0.48 -0.41,0 -0.73,0.16 -0.96,0.48 -0.23,0.32 -0.35,0.76 -0.35,1.31 0,0.55 0.12,0.99 0.35,1.31 0.23,0.32 0.55,0.48 0.96,0.48 0.41,0 0.73,-0.16 0.96,-0.48 0.23,-0.32 0.35,-0.76 0.35,-1.31 0,-0.55 -0.12,-0.99 -0.35,-1.31 z" id="path167" style="fill:#ffffff"></path><path class="cls-1" d="m 226.43,149.43 c 0.59,0 1.04,0.18 1.36,0.53 0.32,0.35 0.49,0.87 0.49,1.56 v 3.11 h -1.14 v -3.01 c 0,-0.85 -0.34,-1.27 -1.03,-1.27 -0.34,0 -0.62,0.13 -0.83,0.38 -0.22,0.25 -0.33,0.61 -0.33,1.08 v 2.82 h -1.14 v -5.08 h 1.08 v 0.66 h 0.02 c 0.36,-0.52 0.87,-0.78 1.52,-0.78 z" id="path168" style="fill:#ffffff"></path><path class="cls-1" d="m 234.1,153.94 c 0.32,0 0.58,-0.08 0.79,-0.23 0.21,-0.15 0.33,-0.36 0.38,-0.61 h 1.17 c -0.1,0.48 -0.36,0.88 -0.77,1.2 -0.41,0.32 -0.94,0.48 -1.57,0.48 -0.77,0 -1.37,-0.25 -1.8,-0.75 -0.43,-0.5 -0.66,-1.17 -0.66,-2 0,-0.77 0.22,-1.4 0.66,-1.89 0.44,-0.49 1.03,-0.74 1.79,-0.74 0.57,0 1.06,0.16 1.46,0.47 0.4,0.31 0.67,0.73 0.81,1.26 0.09,0.3 0.14,0.7 0.14,1.19 h -3.73 c 0.02,0.55 0.15,0.95 0.4,1.22 0.25,0.27 0.55,0.4 0.93,0.4 z m 0.86,-3.36 c -0.23,-0.23 -0.52,-0.34 -0.88,-0.34 -0.36,0 -0.65,0.11 -0.88,0.34 -0.23,0.23 -0.37,0.56 -0.42,0.99 h 2.57 c -0.04,-0.43 -0.18,-0.76 -0.41,-0.99 z" id="path169" style="fill:#ffffff"></path><path class="cls-1" d="m 239.59,153.76 c 0.15,0 0.26,-0.02 0.35,-0.05 v 0.89 c -0.21,0.06 -0.42,0.09 -0.64,0.09 -0.54,0 -0.93,-0.12 -1.18,-0.36 -0.25,-0.24 -0.36,-0.64 -0.36,-1.2 v -2.71 h -0.85 v -0.87 h 0.85 v -1.27 h 1.14 v 1.27 h 0.99 v 0.87 h -0.99 v 2.54 c 0,0.29 0.05,0.49 0.16,0.62 0.11,0.12 0.28,0.18 0.53,0.18 z" id="path170" style="fill:#ffffff"></path><path class="cls-1" d="m 247.65,147.51 v 7.12 h -1.11 v -0.7 h -0.02 c -0.15,0.26 -0.35,0.46 -0.62,0.61 -0.27,0.14 -0.56,0.21 -0.88,0.21 -0.65,0 -1.16,-0.24 -1.54,-0.73 -0.38,-0.48 -0.58,-1.13 -0.58,-1.93 0,-0.8 0.19,-1.46 0.57,-1.95 0.38,-0.49 0.89,-0.72 1.54,-0.72 0.32,0 0.61,0.07 0.88,0.21 0.26,0.14 0.47,0.33 0.62,0.58 h 0.02 v -2.7 h 1.14 z m -2.31,2.8 c -0.39,0 -0.69,0.16 -0.92,0.49 -0.23,0.33 -0.34,0.75 -0.34,1.29 0,0.54 0.11,0.97 0.34,1.29 0.23,0.32 0.53,0.49 0.92,0.49 0.39,0 0.67,-0.16 0.89,-0.48 0.22,-0.32 0.33,-0.75 0.33,-1.3 0,-0.55 -0.11,-0.99 -0.33,-1.3 -0.22,-0.32 -0.52,-0.48 -0.89,-0.48 z" id="path171" style="fill:#ffffff"></path><path class="cls-1" d="m 250.18,147.51 v 1.25 l -0.55,1.4 h -0.62 l 0.41,-1.4 h -0.39 v -1.25 z" id="path172" style="fill:#ffffff"></path><path class="cls-1" d="m 253.08,153.94 c 0.32,0 0.58,-0.08 0.79,-0.23 0.21,-0.15 0.33,-0.36 0.38,-0.61 h 1.17 c -0.1,0.48 -0.36,0.88 -0.77,1.2 -0.41,0.32 -0.94,0.48 -1.57,0.48 -0.77,0 -1.37,-0.25 -1.8,-0.75 -0.43,-0.5 -0.66,-1.17 -0.66,-2 0,-0.77 0.22,-1.4 0.66,-1.89 0.44,-0.49 1.03,-0.74 1.79,-0.74 0.57,0 1.06,0.16 1.46,0.47 0.4,0.31 0.67,0.73 0.81,1.26 0.09,0.3 0.14,0.7 0.14,1.19 h -3.73 c 0.02,0.55 0.15,0.95 0.4,1.22 0.24,0.27 0.55,0.4 0.93,0.4 z m 0.86,-3.36 c -0.23,-0.23 -0.52,-0.34 -0.88,-0.34 -0.36,0 -0.65,0.11 -0.88,0.34 -0.23,0.23 -0.37,0.56 -0.42,0.99 h 2.57 c -0.04,-0.43 -0.17,-0.76 -0.4,-0.99 z" id="path173" style="fill:#ffffff"></path><path class="cls-1" d="m 259.21,149.43 c 0.59,0 1.04,0.18 1.37,0.53 0.33,0.35 0.49,0.87 0.49,1.56 v 3.11 h -1.14 v -3.01 c 0,-0.85 -0.34,-1.27 -1.03,-1.27 -0.34,0 -0.62,0.13 -0.83,0.38 -0.22,0.25 -0.33,0.61 -0.33,1.08 v 2.82 h -1.14 v -5.08 h 1.08 v 0.66 h 0.02 c 0.36,-0.52 0.87,-0.78 1.52,-0.78 z" id="path174" style="fill:#ffffff"></path><path class="cls-1" d="m 264.43,153.76 c 0.15,0 0.26,-0.02 0.35,-0.05 v 0.89 c -0.21,0.06 -0.42,0.09 -0.64,0.09 -0.54,0 -0.93,-0.12 -1.18,-0.36 -0.25,-0.24 -0.36,-0.64 -0.36,-1.2 v -2.71 h -0.85 v -0.87 h 0.85 v -1.27 h 1.14 v 1.27 h 0.99 v 0.87 h -0.99 v 2.54 c 0,0.29 0.05,0.49 0.16,0.62 0.11,0.12 0.28,0.18 0.53,0.18 z" id="path175" style="fill:#ffffff"></path><path class="cls-1" d="m 268.31,149.48 c 0.13,0 0.27,0.02 0.42,0.05 v 1.01 c -0.13,-0.03 -0.26,-0.04 -0.4,-0.04 -0.45,0 -0.8,0.14 -1.04,0.42 -0.24,0.28 -0.37,0.69 -0.37,1.21 v 2.49 h -1.14 v -5.08 h 1.06 v 0.75 h 0.02 c 0.34,-0.55 0.82,-0.82 1.45,-0.82 z" id="path176" style="fill:#ffffff"></path><path class="cls-1" d="m 271.5,153.94 c 0.32,0 0.58,-0.08 0.79,-0.23 0.21,-0.15 0.33,-0.36 0.38,-0.61 h 1.17 c -0.1,0.48 -0.36,0.88 -0.77,1.2 -0.41,0.32 -0.94,0.48 -1.57,0.48 -0.77,0 -1.37,-0.25 -1.8,-0.75 -0.43,-0.5 -0.66,-1.17 -0.66,-2 0,-0.77 0.22,-1.4 0.66,-1.89 0.44,-0.49 1.03,-0.74 1.79,-0.74 0.57,0 1.06,0.16 1.46,0.47 0.4,0.31 0.67,0.73 0.81,1.26 0.09,0.3 0.14,0.7 0.14,1.19 h -3.73 c 0.02,0.55 0.15,0.95 0.4,1.22 0.24,0.27 0.55,0.4 0.93,0.4 z m 0.86,-3.36 c -0.23,-0.23 -0.52,-0.34 -0.88,-0.34 -0.36,0 -0.65,0.11 -0.88,0.34 -0.23,0.23 -0.37,0.56 -0.42,0.99 h 2.57 c -0.04,-0.43 -0.17,-0.76 -0.4,-0.99 z" id="path177" style="fill:#ffffff"></path><path class="cls-1" d="m 277.65,149.42 c 0.65,0 1.16,0.24 1.54,0.72 0.38,0.48 0.58,1.13 0.58,1.95 0,0.82 -0.19,1.46 -0.57,1.94 -0.38,0.48 -0.89,0.72 -1.54,0.72 -0.32,0 -0.61,-0.07 -0.88,-0.21 -0.27,-0.14 -0.47,-0.33 -0.62,-0.58 h -0.02 v 2.51 H 275 v -6.93 h 1.11 v 0.7 h 0.02 c 0.15,-0.26 0.35,-0.46 0.62,-0.61 0.27,-0.15 0.56,-0.22 0.88,-0.22 z m -0.33,0.89 c -0.37,0 -0.67,0.16 -0.9,0.48 -0.22,0.32 -0.33,0.75 -0.33,1.3 0,0.55 0.11,0.98 0.33,1.3 0.22,0.32 0.52,0.48 0.9,0.48 0.38,0 0.69,-0.16 0.92,-0.49 0.23,-0.33 0.34,-0.75 0.34,-1.29 0,-0.54 -0.11,-0.97 -0.34,-1.29 -0.23,-0.32 -0.53,-0.49 -0.92,-0.49 z" id="path178" style="fill:#ffffff"></path><path class="cls-1" d="m 283.41,149.48 c 0.13,0 0.27,0.02 0.42,0.05 v 1.01 c -0.13,-0.03 -0.26,-0.04 -0.4,-0.04 -0.45,0 -0.8,0.14 -1.04,0.42 -0.24,0.28 -0.37,0.69 -0.37,1.21 v 2.49 h -1.14 v -5.08 h 1.06 v 0.75 h 0.02 c 0.34,-0.55 0.82,-0.82 1.45,-0.82 z" id="path179" style="fill:#ffffff"></path><path class="cls-1" d="m 286.6,153.94 c 0.32,0 0.58,-0.08 0.79,-0.23 0.21,-0.15 0.33,-0.36 0.38,-0.61 h 1.17 c -0.1,0.48 -0.36,0.88 -0.77,1.2 -0.41,0.32 -0.94,0.48 -1.57,0.48 -0.77,0 -1.37,-0.25 -1.8,-0.75 -0.43,-0.5 -0.66,-1.17 -0.66,-2 0,-0.77 0.22,-1.4 0.66,-1.89 0.44,-0.49 1.03,-0.74 1.79,-0.74 0.57,0 1.06,0.16 1.46,0.47 0.4,0.31 0.67,0.73 0.81,1.26 0.09,0.3 0.14,0.7 0.14,1.19 h -3.73 c 0.02,0.55 0.15,0.95 0.4,1.22 0.24,0.27 0.55,0.4 0.93,0.4 z m 0.86,-3.36 c -0.23,-0.23 -0.52,-0.34 -0.88,-0.34 -0.36,0 -0.65,0.11 -0.88,0.34 -0.23,0.23 -0.37,0.56 -0.42,0.99 h 2.57 c -0.04,-0.43 -0.17,-0.76 -0.4,-0.99 z" id="path180" style="fill:#ffffff"></path><path class="cls-1" d="m 292.73,149.43 c 0.59,0 1.04,0.18 1.37,0.53 0.33,0.35 0.49,0.87 0.49,1.56 v 3.11 h -1.14 v -3.01 c 0,-0.85 -0.34,-1.27 -1.03,-1.27 -0.34,0 -0.62,0.13 -0.83,0.38 -0.22,0.25 -0.33,0.61 -0.33,1.08 v 2.82 h -1.14 v -5.08 h 1.08 v 0.66 h 0.02 c 0.36,-0.52 0.87,-0.78 1.52,-0.78 z" id="path181" style="fill:#ffffff"></path><path class="cls-1" d="m 298.1,153.94 c 0.32,0 0.58,-0.08 0.79,-0.23 0.21,-0.15 0.33,-0.36 0.38,-0.61 h 1.17 c -0.1,0.48 -0.36,0.88 -0.77,1.2 -0.41,0.32 -0.94,0.48 -1.57,0.48 -0.77,0 -1.37,-0.25 -1.8,-0.75 -0.43,-0.5 -0.66,-1.17 -0.66,-2 0,-0.77 0.22,-1.4 0.66,-1.89 0.44,-0.49 1.03,-0.74 1.79,-0.74 0.57,0 1.06,0.16 1.46,0.47 0.4,0.31 0.67,0.73 0.81,1.26 0.09,0.3 0.14,0.7 0.14,1.19 h -3.73 c 0.02,0.55 0.15,0.95 0.4,1.22 0.24,0.27 0.55,0.4 0.93,0.4 z m 0.86,-3.36 c -0.23,-0.23 -0.52,-0.34 -0.88,-0.34 -0.36,0 -0.65,0.11 -0.88,0.34 -0.23,0.23 -0.37,0.56 -0.42,0.99 h 2.57 c -0.04,-0.43 -0.17,-0.76 -0.4,-0.99 z" id="path182" style="fill:#ffffff"></path><path class="cls-1" d="m 303.41,154.75 c -0.59,0 -1.04,-0.18 -1.37,-0.53 -0.33,-0.35 -0.49,-0.87 -0.49,-1.56 v -3.11 h 1.14 v 3.01 c 0,0.85 0.34,1.27 1.03,1.27 0.34,0 0.62,-0.13 0.83,-0.38 0.22,-0.25 0.33,-0.61 0.33,-1.08 v -2.82 h 1.14 v 5.08 h -1.08 v -0.66 h -0.02 c -0.36,0.52 -0.87,0.78 -1.52,0.78 z" id="path183" style="fill:#ffffff"></path><path class="cls-1" d="m 310.02,149.48 c 0.13,0 0.27,0.02 0.42,0.05 v 1.01 c -0.13,-0.03 -0.26,-0.04 -0.4,-0.04 -0.45,0 -0.8,0.14 -1.04,0.42 -0.24,0.28 -0.37,0.69 -0.37,1.21 v 2.49 h -1.14 v -5.08 h 1.06 v 0.75 h 0.02 c 0.34,-0.55 0.82,-0.82 1.45,-0.82 z" id="path184" style="fill:#ffffff"></path><path class="cls-1" d="m 312.4,147.51 v 1.09 h -1.14 v -1.09 z m 0,2.04 v 5.08 h -1.14 v -5.08 z" id="path185" style="fill:#ffffff"></path><path class="cls-1" d="m 315.75,149.4 c 0.68,0 1.2,0.17 1.55,0.5 0.36,0.33 0.54,0.83 0.54,1.49 v 1.9 c 0,0.55 0.04,0.99 0.13,1.34 h -1.03 c -0.05,-0.21 -0.07,-0.44 -0.07,-0.71 h -0.02 c -0.37,0.55 -0.94,0.82 -1.71,0.82 -0.52,0 -0.94,-0.14 -1.25,-0.43 -0.31,-0.28 -0.47,-0.64 -0.47,-1.08 0,-0.44 0.15,-0.78 0.45,-1.04 0.3,-0.26 0.8,-0.45 1.5,-0.56 0.43,-0.07 0.88,-0.12 1.37,-0.15 v -0.2 c 0,-0.7 -0.33,-1.05 -0.99,-1.05 -0.31,0 -0.55,0.08 -0.72,0.24 -0.17,0.16 -0.27,0.38 -0.28,0.65 h -1.12 c 0.03,-0.51 0.22,-0.92 0.58,-1.24 0.36,-0.32 0.88,-0.48 1.54,-0.48 z m 0.99,3.07 v -0.25 c -0.43,0.03 -0.82,0.07 -1.17,0.13 -0.37,0.06 -0.62,0.15 -0.78,0.27 -0.15,0.12 -0.22,0.3 -0.22,0.53 0,0.23 0.08,0.41 0.23,0.55 0.16,0.14 0.38,0.2 0.67,0.2 0.39,0 0.69,-0.11 0.92,-0.34 0.13,-0.14 0.23,-0.29 0.28,-0.44 0.05,-0.16 0.08,-0.37 0.08,-0.65 z" id="path186" style="fill:#ffffff"></path><path class="cls-1" d="m 321.18,153.76 c 0.15,0 0.26,-0.02 0.35,-0.05 v 0.89 c -0.21,0.06 -0.42,0.09 -0.64,0.09 -0.54,0 -0.93,-0.12 -1.18,-0.36 -0.25,-0.24 -0.36,-0.64 -0.36,-1.2 v -2.71 h -0.85 v -0.87 h 0.85 v -1.27 h 1.14 v 1.27 h 0.99 v 0.87 h -0.99 v 2.54 c 0,0.29 0.05,0.49 0.16,0.62 0.11,0.12 0.28,0.18 0.53,0.18 z" id="path187" style="fill:#ffffff"></path></g></svg> 