<svg xmlns:inkscape="http://www.inkscape.org/namespaces/inkscape" xmlns:sodipodi="http://sodipodi.sourceforge.net/DTD/sodipodi-0.dtd" xmlns="http://www.w3.org/2000/svg" xmlns:svg="http://www.w3.org/2000/svg" id="Layer_1" data-name="Layer 1" viewBox="0 0 310.53241 44.03584" sodipodi:docname="University-of-Regina-Hill-Levene-Schools-of-Business-Logo.svg" width="310.53241" height="44.035839" inkscape:version="1.3 (0e150ed6c4, 2023-07-21)"><defs id="defs1"><style id="style1"> .cls-1 { fill: #ffc52f; } .cls-1, .cls-2, .cls-3, .cls-4, .cls-5, .cls-6, .cls-7 { stroke-width: 0px; } .cls-2 { fill: #003764; } .cls-4 { fill: #8e1537; } .cls-5 { fill: #154734; } .cls-6 { fill: #020000; } .cls-7 { fill: #231f20; } </style></defs><g id="g60" transform="translate(-24.71,-23.13416)"><path class="cls-7" d="m 60.21,23.64 h -35.5 v 0.31 c 0,0.13 0.04,13.22 0,16.85 0.06,5.17 1.21,9.75 3.62,14.43 2.48,4.1 6.63,9.8 14.02,11.92 l 0.08,0.02 0.08,-0.02 c 3.56,-1.02 8.88,-3.37 14.07,-11.94 2.4,-4.66 3.55,-9.24 3.61,-14.41 -0.04,-3.68 0,-16.73 0,-16.85 v -0.31 z" id="path1"/><path class="cls-5" d="M 42.47,44.81 29.05,55.2 h -0.01 c 0,0 0,0.02 0,0.02 3.84,6.24 7.97,9.73 13.39,11.32 v 0 c 0,0 0,0 0,0 7.08,-2.07 11.05,-7.45 13.43,-11.32 v 0 c 0,0 -13.4,-10.4 -13.4,-10.4 h -0.01 z" id="path2"/><path class="cls-5" d="m 58.81,47.5 v -0.03 c 0.5,-2.15 0.75,-4.33 0.78,-6.67 -0.04,-3.57 0,-16 0,-16.53 V 24.25 H 25.33 v 0.02 c 0,2.18 0.04,13.2 0,16.53 0.03,2.34 0.28,4.52 0.78,6.68 v 0.02 c 0,0 16.37,-12.45 16.37,-12.45 l 16.32,12.43 0.02,0.02 z" id="path3"/><path class="cls-1" d="m 58.65,48.16 v 0 c 0,0 -16.19,-12.33 -16.19,-12.33 L 26.27,48.15 v 0 c 0,0 0,0.02 0,0.02 0,0.02 0,0.05 0.01,0.08 0.25,0.98 0.56,1.97 0.93,2.95 0.55,1.45 1.15,2.76 1.56,3.43 v 0.02 c 0,0 13.7,-10.6 13.7,-10.6 l 13.68,10.6 h 0.01 c 0,0 0,0 0,0 0.07,-0.11 0.14,-0.23 0.21,-0.37 1,-2.04 1.74,-4.04 2.27,-6.1" id="path4"/><path class="cls-7" d="M 47.18,27.68 H 46.3 c 0,0 -0.77,-0.83 -0.77,-0.83 l -0.08,0.03 c -0.31,0.09 -0.52,0.07 -0.86,-0.07 -0.37,-0.21 -0.65,-0.29 -1.04,-0.29 -0.39,0 -0.81,0.19 -1.09,0.47 -0.27,-0.28 -0.71,-0.47 -1.09,-0.47 -0.38,0 -0.66,0.08 -1.02,0.29 -0.36,0.15 -0.57,0.17 -0.87,0.07 l -0.08,-0.03 -0.77,0.83 h -0.88 c 0,0 0,6.48 0,6.48 l 3.96,0.02 c 0.13,0.16 0.42,0.28 0.75,0.28 0.33,0 0.62,-0.11 0.75,-0.28 l 3.96,-0.02 v -6.47 z" id="path5"/><path class="cls-1" d="m 40.57,31.79 c 0.21,-0.11 0.47,-0.25 0.84,-0.26 0.39,-0.01 0.72,0.16 0.91,0.29 v -4.56 c -0.2,-0.25 -0.61,-0.45 -0.94,-0.45 -0.33,0 -0.57,0.07 -0.9,0.26 -0.39,0.16 -0.64,0.19 -0.94,0.12 v 4.57 c 0.16,0.13 0.28,0.2 0.6,0.2 0.14,0 0.27,-0.08 0.43,-0.16" id="path6"/><path class="cls-1" d="m 39.3,32.18 c 0.19,0.13 0.46,0.2 0.77,0.18 0.15,0 0.29,-0.06 0.46,-0.13 0.23,-0.09 0.48,-0.19 0.84,-0.2 0.45,0 0.71,0.17 0.83,0.28 0,-0.01 0.01,-0.03 0.02,-0.04 0.04,-0.07 0.07,-0.14 0.11,-0.2 v -0.02 c -0.15,-0.12 -0.49,-0.35 -0.92,-0.34 -0.33,0 -0.56,0.13 -0.76,0.24 -0.17,0.09 -0.33,0.17 -0.51,0.17 -0.34,0 -0.5,-0.06 -0.68,-0.2 l -0.16,0.23 z" id="path7"/><path class="cls-1" d="m 44.37,31.8 c 0.16,0.08 0.29,0.14 0.43,0.14 0.33,0 0.45,-0.06 0.6,-0.18 V 27.2 c -0.31,0.07 -0.56,0.04 -0.93,-0.11 -0.35,-0.2 -0.58,-0.29 -0.92,-0.29 -0.34,0 -0.74,0.22 -0.94,0.47 v 4.56 c 0.19,-0.14 0.52,-0.3 0.91,-0.29 0.37,0 0.63,0.16 0.84,0.27" id="path8"/><path class="cls-1" d="m 38.21,27.85 v 5.51 h 3.69 c 0,0 -0.02,-0.07 -0.03,-0.1 -0.01,-0.04 -0.02,-0.09 -0.02,-0.14 0,-0.02 0,-0.03 0,-0.05 -0.02,0 -0.04,0.01 -0.07,0.01 h -3.21 c 0,0 0,-5.24 0,-5.24 H 38.2 Z" id="path9"/><polygon class="cls-1" points="38.87,27.85 38.87,32.46 38.94,32.37 38.94,27.78 " id="polygon9"/><path class="cls-1" d="m 43.04,33.86 v 0 c 0,0 3.81,-0.03 3.81,-0.03 v -0.29 h -3.98 c -0.11,0.1 -0.26,0.16 -0.42,0.16 -0.16,0 -0.31,-0.06 -0.42,-0.16 h -3.97 v 0.29 l 3.81,0.02 v 0.02 c 0.08,0.15 0.31,0.25 0.58,0.25 0.27,0 0.51,-0.11 0.57,-0.27" id="path10"/><path class="cls-1" d="m 43.02,33.37 h 3.71 v -5.52 h -0.37 v 5.25 h -3.2 c 0,0 -0.06,-0.01 -0.09,-0.02 0,0.02 0,0.03 0,0.05 0,0.06 -0.01,0.12 -0.03,0.17 0,0.02 -0.01,0.05 -0.02,0.07" id="path11"/><path class="cls-1" d="m 38.87,32.79 h 2.91 c 0,0 0.1,-0.03 0.14,-0.07 -0.11,-0.08 -0.37,-0.2 -0.78,-0.19 -0.34,0 -0.56,0.07 -0.76,0.12 -0.16,0.04 -0.3,0.08 -0.47,0.08 -0.41,0 -0.7,-0.06 -0.88,-0.18 l -0.16,0.22 v 0 z" id="path12"/><path class="cls-1" d="m 42.6,32.08 c 0.04,0.06 0.07,0.13 0.11,0.2 0,0.01 0.01,0.03 0.02,0.04 0.12,-0.11 0.39,-0.29 0.83,-0.28 0.36,0 0.62,0.11 0.85,0.2 0.16,0.06 0.31,0.12 0.45,0.13 0.32,0.02 0.58,-0.05 0.77,-0.18 l -0.16,-0.23 c -0.18,0.13 -0.34,0.2 -0.68,0.2 -0.18,0 -0.34,-0.08 -0.51,-0.17 -0.2,-0.11 -0.44,-0.23 -0.76,-0.24 -0.42,-0.02 -0.77,0.21 -0.92,0.34 v 0.02 z" id="path13"/><path class="cls-1" d="m 42.47,32.39 c 0,0 0,0 0,0.01 -0.11,0.2 -0.24,0.44 -0.42,0.56 -0.02,0.05 -0.03,0.1 -0.03,0.16 0,0.24 0.21,0.43 0.46,0.43 0.25,0 0.46,-0.19 0.46,-0.43 0,-0.06 -0.02,-0.12 -0.05,-0.18 -0.17,-0.13 -0.29,-0.35 -0.4,-0.54 0,0 0,0 0,-0.01" id="path14"/><polygon class="cls-1" points="39.23,31.95 39.36,31.78 39.36,27.31 39.23,27.45 " id="polygon14"/><path class="cls-1" d="m 39.91,32.64 c 0.15,0 0.29,-0.04 0.45,-0.08 0.2,-0.05 0.43,-0.12 0.78,-0.12 0.46,0 0.73,0.13 0.85,0.21 0.06,-0.07 0.12,-0.16 0.17,-0.25 -0.1,-0.1 -0.35,-0.28 -0.79,-0.27 -0.34,0 -0.59,0.11 -0.81,0.19 -0.17,0.07 -0.32,0.13 -0.48,0.13 -0.34,0.01 -0.62,-0.06 -0.83,-0.2 l -0.16,0.23 c 0.16,0.1 0.44,0.16 0.83,0.16" id="path15"/><polygon class="cls-1" points="39.03,32.24 39.14,32.08 39.14,27.55 39.03,27.68 " id="polygon15"/><path class="cls-1" d="m 45.03,32.73 c -0.17,0 -0.31,-0.04 -0.47,-0.08 -0.2,-0.05 -0.42,-0.11 -0.76,-0.12 -0.41,-0.01 -0.66,0.11 -0.78,0.19 0.05,0.04 0.1,0.07 0.15,0.07 h 2.9 c 0,0 0,0 0,0 l -0.16,-0.22 c -0.18,0.11 -0.47,0.18 -0.88,0.18" id="path16"/><polygon class="cls-1" points="46,32.37 46.06,32.46 46.06,27.85 46,27.78 " id="polygon16"/><polygon class="cls-1" points="45.8,32.08 45.91,32.24 45.91,27.68 45.8,27.55 " id="polygon17"/><path class="cls-1" d="m 44.87,32.45 c -0.16,0 -0.31,-0.07 -0.48,-0.13 -0.22,-0.09 -0.47,-0.18 -0.81,-0.19 -0.43,0 -0.68,0.18 -0.79,0.27 0.05,0.09 0.11,0.18 0.17,0.25 0.12,-0.08 0.39,-0.22 0.85,-0.21 0.35,0 0.58,0.07 0.78,0.12 0.16,0.04 0.29,0.08 0.45,0.08 0.39,0 0.66,-0.06 0.83,-0.16 l -0.16,-0.23 c -0.2,0.14 -0.49,0.21 -0.83,0.2" id="path17"/><polygon class="cls-1" points="45.58,31.77 45.71,31.95 45.71,27.45 45.58,27.31 " id="polygon18"/><path class="cls-7" d="m 35.4,27.07 c -0.38,0 -0.7,0.23 -0.82,0.56 -0.03,0 -0.06,0 -0.09,0 -0.14,0 -0.27,0.03 -0.39,0.08 -0.1,0.04 -0.19,0.1 -0.27,0.17 0,0 -0.01,0 -0.02,0.02 -0.19,0.18 -0.31,0.43 -0.31,0.71 0,0.15 0.04,0.3 0.1,0.43 0.1,0.21 0.28,0.38 0.5,0.47 0,0.61 -0.13,0.99 -0.31,1.04 -0.15,0.04 -0.37,-0.14 -0.63,-0.53 -0.06,-0.09 -0.12,-0.19 -0.18,-0.29 -0.06,0.11 -0.13,0.2 -0.19,0.29 -0.25,0.34 -0.54,0.5 -0.68,0.45 -0.12,-0.04 -0.2,-0.26 -0.22,-0.56 0,-0.1 0,-0.2 0.01,-0.31 v 0 c 0,0 0.02,-0.11 0.02,-0.15 v 0 c 0,0 0,-0.01 0,-0.01 v 0 c 0.08,0.01 0.16,0 0.25,-0.01 0.02,0 0.03,0 0.05,-0.01 0.08,-0.02 0.17,-0.06 0.25,-0.11 0.21,-0.13 0.32,-0.31 0.37,-0.48 0.06,-0.19 0.05,-0.37 0.04,-0.45 -0.02,-0.21 -0.15,-0.49 -0.39,-0.62 -0.06,-0.03 -0.18,-0.08 -0.31,-0.1 v 0 c 0,0 0,-0.01 0,-0.01 0.05,-0.21 0.02,-0.43 -0.07,-0.62 -0.09,-0.17 -0.23,-0.29 -0.44,-0.39 -0.11,-0.05 -0.24,-0.07 -0.4,-0.07 -0.16,0 -0.29,0.03 -0.4,0.07 -0.21,0.09 -0.35,0.21 -0.44,0.39 -0.1,0.19 -0.13,0.41 -0.07,0.62 v 0 c 0,0 0,0.01 0,0.01 -0.13,0.02 -0.25,0.07 -0.32,0.1 -0.23,0.13 -0.36,0.4 -0.38,0.62 0,0.08 -0.02,0.26 0.04,0.45 0.05,0.17 0.16,0.35 0.37,0.48 0.09,0.06 0.18,0.1 0.28,0.12 0.01,0 0.02,0 0.03,0 0.08,0.02 0.16,0.02 0.24,0.01 v 0 c 0,0 0,0 0,0 v 0 c 0,0 0,0.06 0,0.09 0,0.02 0,0.04 0,0.06 0,0.11 0.02,0.24 0.01,0.33 -0.01,0.3 -0.1,0.51 -0.22,0.56 -0.14,0.05 -0.42,-0.11 -0.68,-0.45 -0.06,-0.08 -0.13,-0.18 -0.19,-0.29 -0.06,0.11 -0.12,0.21 -0.18,0.29 -0.26,0.38 -0.47,0.57 -0.63,0.53 -0.18,-0.05 -0.32,-0.43 -0.31,-1.04 0.22,-0.09 0.4,-0.26 0.5,-0.47 0.06,-0.13 0.1,-0.27 0.1,-0.43 0,-0.28 -0.12,-0.53 -0.31,-0.71 0,0 -0.01,0 -0.02,-0.02 -0.08,-0.07 -0.17,-0.13 -0.27,-0.17 -0.12,-0.05 -0.25,-0.08 -0.39,-0.08 -0.03,0 -0.06,0 -0.09,0 -0.13,-0.33 -0.45,-0.56 -0.82,-0.56 -0.49,0 -0.88,0.39 -0.88,0.88 0,0.4 0.27,0.8 0.63,0.91 l 0.71,3.95 0.05,0.33 v 0 c 0.07,0.1 0.66,0.72 3.58,0.72 v 0 c 2.94,0 3.53,-0.63 3.59,-0.72 v 0 c 0.02,-0.11 0.03,-0.21 0.05,-0.31 0.25,-1.35 0.5,-2.62 0.74,-3.97 0.38,-0.13 0.63,-0.54 0.63,-0.91 0,-0.52 -0.51,-0.88 -0.88,-0.88" id="path18"/><path class="cls-1" d="m 34.44,33.05 c -0.29,-0.17 -1.11,-0.49 -3.17,-0.49 -2.06,0 -2.89,0.32 -3.18,0.49 0.29,0.17 1.11,0.49 3.17,0.49 2.06,0 2.89,-0.32 3.18,-0.49" id="path19"/><path class="cls-1" d="m 35.27,29.19 0.07,-0.3 0.05,-0.3 c 0.29,-0.03 0.59,-0.35 0.59,-0.64 0,-0.32 -0.26,-0.57 -0.58,-0.57 -0.23,0 -0.43,0.14 -0.52,0.33 -0.03,0.07 -0.05,0.15 -0.05,0.24 0,0.03 0,0.05 0,0.08 -0.09,-0.05 -0.2,-0.09 -0.31,-0.09 0,0 -0.02,0 -0.03,0 -0.11,0 -0.21,0.03 -0.3,0.07 -0.1,0.05 -0.19,0.13 -0.26,0.23 -0.07,0.11 -0.12,0.24 -0.12,0.37 0,0.22 0.11,0.42 0.28,0.54 0.09,0.07 0.2,0.11 0.32,0.12 0,0.11 0,0.21 0,0.31 0,0.09 0,0.17 0,0.25 -0.05,0.73 -0.31,0.95 -0.52,1.01 -0.04,0.01 -0.08,0.02 -0.13,0.02 -0.2,0 -0.44,-0.12 -0.77,-0.57 -0.24,0.3 -0.54,0.49 -0.8,0.49 -0.05,0 -0.11,0 -0.16,-0.03 -0.25,-0.09 -0.4,-0.38 -0.42,-0.83 0,-0.1 0,-0.21 0,-0.33 v 0 c 0,0 0,-0.04 0,-0.05 0,-0.07 0,-0.14 0.01,-0.21 0,-0.02 0,-0.05 0,-0.07 l 0.02,-0.24 c 0,0 0.02,0.01 0.03,0.02 0.04,0.02 0.1,0.05 0.17,0.07 0.05,0 0.1,0.02 0.15,0.01 0,0 0.01,0 0.02,0 0.06,0 0.17,-0.02 0.29,-0.09 0.08,-0.05 0.15,-0.12 0.2,-0.21 0.07,-0.12 0.1,-0.27 0.07,-0.42 0,-0.01 -0.06,-0.28 -0.29,-0.39 -0.1,-0.05 -0.2,-0.05 -0.31,-0.05 -0.11,0 -0.23,0.02 -0.34,0.05 0.07,-0.09 0.13,-0.19 0.18,-0.29 0.03,-0.07 0.08,-0.18 0.07,-0.31 0,-0.04 0,-0.13 -0.06,-0.23 0,0 -0.02,-0.04 -0.05,-0.08 -0.05,-0.07 -0.13,-0.12 -0.24,-0.17 -0.07,-0.03 -0.16,-0.05 -0.27,-0.05 -0.11,0 -0.2,0.02 -0.27,0.05 -0.11,0.05 -0.19,0.1 -0.24,0.17 -0.03,0.03 -0.04,0.07 -0.05,0.08 -0.05,0.1 -0.05,0.19 -0.06,0.23 0,0.13 0.04,0.24 0.07,0.31 0.04,0.1 0.1,0.2 0.18,0.29 -0.11,-0.03 -0.23,-0.05 -0.34,-0.05 -0.11,0 -0.2,0 -0.31,0.05 -0.23,0.11 -0.29,0.38 -0.29,0.39 -0.03,0.15 0,0.3 0.07,0.42 0.05,0.09 0.12,0.16 0.2,0.21 0.12,0.07 0.23,0.09 0.29,0.09 0,0 0.01,0 0.02,0 0.05,0 0.09,0 0.13,0 0.08,-0.02 0.15,-0.04 0.2,-0.07 0.02,0 0.03,-0.02 0.04,-0.02 l 0.02,0.24 c 0,0 0,0.05 0,0.07 0,0.09 0.01,0.17 0.02,0.25 0,0.11 0,0.24 0,0.35 -0.02,0.45 -0.17,0.74 -0.42,0.83 -0.05,0.02 -0.11,0.03 -0.16,0.03 -0.26,0 -0.55,-0.19 -0.8,-0.49 -0.33,0.45 -0.57,0.57 -0.77,0.57 -0.05,0 -0.09,0 -0.13,-0.02 -0.21,-0.06 -0.47,-0.28 -0.52,-1.01 0,-0.08 0,-0.16 0,-0.25 0,-0.1 0,-0.2 0,-0.31 0.12,-0.01 0.23,-0.06 0.32,-0.12 0.17,-0.12 0.28,-0.32 0.28,-0.54 0,-0.14 -0.04,-0.27 -0.11,-0.37 -0.07,-0.1 -0.15,-0.17 -0.26,-0.23 -0.09,-0.04 -0.19,-0.07 -0.3,-0.07 0,0 -0.02,0 -0.03,0 -0.11,0 -0.22,0.04 -0.31,0.09 0,-0.03 0,-0.05 0,-0.08 0,-0.09 -0.02,-0.17 -0.05,-0.24 -0.09,-0.2 -0.29,-0.33 -0.52,-0.33 -0.32,0 -0.58,0.26 -0.58,0.57 0,0.29 0.3,0.61 0.59,0.64 l 0.05,0.3 0.07,0.3 0.66,3.53 v 0.02 0 0.02 c 0.41,-0.21 1.32,-0.5 3.3,-0.5 v 0 c 2.01,0 2.92,0.3 3.31,0.51 v -0.02 0 c 0,0 0.23,-1.2 0.23,-1.2 l 0.44,-2.36 z" id="path20"/><path class="cls-7" d="m 57.73,27.07 c -0.38,0 -0.7,0.23 -0.82,0.56 -0.03,0 -0.06,0 -0.09,0 -0.14,0 -0.27,0.03 -0.39,0.08 -0.1,0.04 -0.19,0.1 -0.27,0.17 0,0 -0.01,0 -0.02,0.02 -0.19,0.18 -0.31,0.43 -0.31,0.71 0,0.15 0.04,0.3 0.1,0.43 0.1,0.21 0.28,0.38 0.5,0.47 0,0.61 -0.13,0.99 -0.31,1.04 -0.15,0.04 -0.37,-0.14 -0.63,-0.53 -0.06,-0.09 -0.12,-0.19 -0.18,-0.29 -0.06,0.11 -0.13,0.2 -0.19,0.29 -0.25,0.34 -0.54,0.5 -0.68,0.45 -0.12,-0.04 -0.2,-0.26 -0.22,-0.56 0,-0.1 0,-0.2 0,-0.31 v 0 c 0,0 0.02,-0.11 0.02,-0.15 v 0 c 0,0 0,-0.01 0,-0.01 v 0 c 0.08,0.01 0.16,0 0.25,-0.01 0.02,0 0.03,0 0.05,-0.01 0.08,-0.02 0.17,-0.06 0.25,-0.11 0.21,-0.13 0.32,-0.31 0.37,-0.48 0.06,-0.19 0.05,-0.37 0.04,-0.45 -0.02,-0.21 -0.15,-0.49 -0.38,-0.62 -0.07,-0.03 -0.18,-0.08 -0.32,-0.1 v 0 c 0,0 0,-0.01 0,-0.01 0.05,-0.21 0.02,-0.43 -0.07,-0.62 -0.09,-0.17 -0.23,-0.29 -0.44,-0.39 -0.11,-0.05 -0.24,-0.07 -0.4,-0.07 -0.16,0 -0.29,0.03 -0.4,0.07 -0.21,0.09 -0.35,0.21 -0.44,0.39 -0.1,0.19 -0.13,0.41 -0.07,0.62 v 0 c 0,0 0,0.01 0,0.01 -0.13,0.02 -0.25,0.07 -0.31,0.1 -0.24,0.13 -0.36,0.4 -0.39,0.62 0,0.08 -0.02,0.26 0.04,0.45 0.05,0.17 0.16,0.35 0.37,0.48 0.09,0.06 0.18,0.1 0.28,0.12 0.01,0 0.02,0 0.03,0 0.08,0.02 0.16,0.02 0.24,0.01 v 0 c 0,0 0,0 0,0 v 0 c 0,0 0,0.06 0,0.09 0,0.02 0,0.04 0,0.06 0,0.11 0.02,0.24 0.01,0.33 -0.01,0.3 -0.1,0.51 -0.22,0.56 -0.14,0.05 -0.42,-0.11 -0.68,-0.45 -0.06,-0.08 -0.13,-0.18 -0.19,-0.29 -0.06,0.11 -0.12,0.21 -0.18,0.29 -0.26,0.38 -0.47,0.57 -0.63,0.53 -0.18,-0.05 -0.32,-0.43 -0.31,-1.04 0.22,-0.09 0.4,-0.26 0.5,-0.47 0.06,-0.13 0.1,-0.27 0.1,-0.43 0,-0.28 -0.12,-0.53 -0.31,-0.71 0,0 -0.01,0 -0.02,-0.02 -0.08,-0.07 -0.17,-0.13 -0.27,-0.17 -0.12,-0.05 -0.25,-0.08 -0.39,-0.08 -0.03,0 -0.06,0 -0.09,0 -0.13,-0.33 -0.45,-0.56 -0.82,-0.56 -0.49,0 -0.88,0.39 -0.88,0.88 0,0.4 0.27,0.8 0.63,0.91 l 0.71,3.95 0.05,0.33 v 0 c 0.07,0.1 0.66,0.72 3.58,0.72 v 0 c 2.94,0 3.53,-0.63 3.59,-0.72 v 0 c 0,0 0,0 0,0 v 0 c 0.02,-0.1 0.03,-0.21 0.05,-0.31 0.25,-1.35 0.5,-2.62 0.74,-3.97 0.38,-0.13 0.63,-0.54 0.63,-0.91 0,-0.52 -0.51,-0.88 -0.88,-0.88" id="path21"/><path class="cls-1" d="m 56.78,33.05 c -0.29,-0.17 -1.11,-0.49 -3.17,-0.49 -2.06,0 -2.89,0.32 -3.18,0.49 0.29,0.17 1.11,0.49 3.17,0.49 2.06,0 2.89,-0.32 3.18,-0.49" id="path22"/><path class="cls-1" d="m 57.6,29.19 0.07,-0.3 0.05,-0.3 c 0.29,-0.03 0.59,-0.35 0.59,-0.64 0,-0.32 -0.26,-0.57 -0.58,-0.57 -0.23,0 -0.43,0.14 -0.52,0.33 -0.03,0.07 -0.05,0.15 -0.05,0.24 0,0.03 0,0.05 0,0.08 -0.09,-0.05 -0.2,-0.09 -0.31,-0.09 0,0 -0.02,0 -0.03,0 -0.11,0 -0.21,0.03 -0.3,0.07 -0.1,0.05 -0.19,0.13 -0.26,0.23 -0.07,0.11 -0.11,0.24 -0.11,0.37 0,0.22 0.11,0.42 0.28,0.54 0.09,0.07 0.2,0.11 0.32,0.12 0,0.11 0.01,0.21 0,0.31 0,0.09 0,0.17 0,0.25 -0.05,0.73 -0.31,0.95 -0.52,1.01 -0.04,0.01 -0.08,0.02 -0.13,0.02 -0.2,0 -0.44,-0.12 -0.77,-0.57 -0.24,0.3 -0.54,0.49 -0.8,0.49 -0.05,0 -0.11,0 -0.16,-0.03 -0.25,-0.09 -0.4,-0.38 -0.42,-0.83 0,-0.1 0,-0.21 0,-0.33 v 0 c 0,0 0,-0.04 0,-0.05 0,-0.07 0,-0.14 0.01,-0.21 0,-0.02 0,-0.05 0,-0.07 l 0.02,-0.24 c 0,0 0.02,0.01 0.03,0.02 0.04,0.02 0.1,0.05 0.17,0.07 0.05,0 0.1,0.02 0.15,0.01 0,0 0.01,0 0.02,0 0.06,0 0.17,-0.02 0.29,-0.09 0.08,-0.05 0.15,-0.12 0.2,-0.21 0.07,-0.12 0.1,-0.27 0.07,-0.42 0,-0.01 -0.06,-0.28 -0.29,-0.39 -0.1,-0.05 -0.2,-0.05 -0.31,-0.05 -0.11,0 -0.23,0.02 -0.34,0.05 0.07,-0.09 0.13,-0.19 0.18,-0.29 0.03,-0.07 0.08,-0.18 0.07,-0.31 0,-0.04 0,-0.13 -0.06,-0.23 0,0 -0.02,-0.04 -0.05,-0.08 -0.05,-0.07 -0.13,-0.12 -0.24,-0.17 -0.07,-0.03 -0.16,-0.05 -0.27,-0.05 -0.11,0 -0.2,0.02 -0.27,0.05 -0.11,0.05 -0.19,0.1 -0.24,0.17 -0.03,0.03 -0.04,0.07 -0.05,0.08 -0.05,0.1 -0.05,0.19 -0.06,0.23 0,0.13 0.04,0.24 0.07,0.31 0.04,0.1 0.1,0.2 0.18,0.29 -0.11,-0.03 -0.23,-0.05 -0.34,-0.05 -0.11,0 -0.2,0 -0.31,0.05 -0.23,0.11 -0.29,0.38 -0.29,0.39 -0.03,0.15 0,0.3 0.07,0.42 0.05,0.09 0.12,0.16 0.2,0.21 0.12,0.07 0.23,0.09 0.29,0.09 0,0 0.01,0 0.02,0 0.05,0 0.09,0 0.13,0 0.08,-0.02 0.15,-0.04 0.2,-0.07 0.02,0 0.03,-0.02 0.04,-0.02 l 0.02,0.24 c 0,0 0,0.05 0,0.07 0,0.09 0.01,0.17 0.02,0.25 0,0.11 0,0.24 0,0.35 -0.02,0.45 -0.17,0.74 -0.42,0.83 -0.05,0.02 -0.11,0.03 -0.16,0.03 -0.25,0 -0.55,-0.19 -0.8,-0.49 -0.33,0.45 -0.57,0.57 -0.77,0.57 -0.05,0 -0.09,0 -0.13,-0.02 -0.21,-0.06 -0.47,-0.28 -0.52,-1.01 0,-0.08 0,-0.16 0,-0.25 0,-0.1 0,-0.2 0,-0.31 0.12,-0.01 0.23,-0.06 0.32,-0.12 0.17,-0.12 0.28,-0.32 0.28,-0.54 0,-0.14 -0.04,-0.27 -0.11,-0.37 -0.07,-0.1 -0.15,-0.17 -0.26,-0.23 -0.09,-0.04 -0.19,-0.07 -0.3,-0.07 0,0 -0.02,0 -0.03,0 -0.11,0 -0.22,0.04 -0.31,0.09 0,-0.03 0,-0.05 0,-0.08 0,-0.09 -0.02,-0.17 -0.05,-0.24 -0.09,-0.2 -0.29,-0.33 -0.52,-0.33 -0.32,0 -0.58,0.26 -0.58,0.57 0,0.29 0.3,0.61 0.59,0.64 l 0.05,0.3 0.07,0.3 0.66,3.53 v 0.02 c 0,0 0,0.02 0,0.02 0.41,-0.21 1.32,-0.5 3.3,-0.5 v 0 c 2.01,0 2.92,0.3 3.31,0.51 v -0.02 0 c 0,0 0.23,-1.2 0.23,-1.2 l 0.44,-2.36 z" id="path23"/><path class="cls-7" d="m 46.48,53.75 c 0.18,-0.44 0.1,-0.55 0.1,-0.55 l 0.41,-1.22 -0.56,0.85 c 0,0 -0.07,-0.06 -0.16,-0.08 0,0 0.34,-0.29 0.21,-0.48 0,0 -0.07,-0.17 -0.48,-0.12 0,0 0.06,-0.42 -0.07,-0.57 l 0.1,-1.74 -0.42,1.46 c 0,0 -0.11,-0.14 -0.23,-0.13 0,0 0.11,-0.11 0.16,-0.21 0,0 0.19,-0.34 -0.16,-0.39 0,0 -0.15,-0.02 -0.3,0.02 0,0 0.04,-0.43 -0.1,-0.57 v -1.74 c 0,0 -0.39,1.7 -0.39,1.7 0,0 -0.13,0.02 -0.23,0.53 0,0 -0.22,-0.17 -0.53,-0.04 l -0.17,-1.56 -0.2,1.73 c 0,0 -0.11,0.09 -0.13,0.26 0,0 -0.05,-0.02 -0.11,-0.02 0,0 0.15,-0.19 0.16,-0.3 0,0 0.05,-0.27 -0.18,-0.3 0,0 -0.15,-0.03 -0.34,0.05 0,0 -0.02,-0.47 -0.17,-0.55 l -0.19,-1.73 -0.2,1.73 c 0,0 -0.18,0.06 -0.17,0.53 0,0 -0.41,-0.11 -0.51,0.04 0,0 -0.11,0.27 0.14,0.53 0,0 -0.17,0 -0.21,0.07 l -0.07,-0.08 -0.19,-1.73 -0.2,1.73 c 0,0 -0.09,0.05 -0.12,0.22 0,0 -0.1,-0.1 -0.25,-0.08 0,0 0.12,-0.18 0.12,-0.34 0,0 0.06,-0.41 -0.55,-0.16 0,0 -0.05,-0.42 -0.22,-0.53 l -0.36,-1.7 -0.02,1.76 c 0,0 -0.17,0.04 -0.1,0.57 0,0 -0.26,-0.14 -0.51,0.04 l -0.29,-1.03 0.1,1.74 c 0,0 -0.13,0.11 -0.07,0.57 0,0 -0.95,-0.15 -0.27,0.6 0,0 -0.57,0.15 -0.03,0.58 l -0.14,0.05 -0.8,-1 0.48,1.18 c 0,0 -0.07,0.15 0.14,0.54 0,0 -0.83,0.15 0,0.64 0.02,-0.01 -0.47,0.29 0.18,0.55 0,0 -0.32,0.32 0.2,0.55 0,0 -0.24,0.36 0.31,0.52 0,0 -0.29,0.27 0.29,0.56 -0.13,0.06 -0.21,0.21 -0.08,0.52 l 0.31,0.5 c 0,0 -0.46,0.55 -0.02,0.84 v 0.12 c 0.03,0.44 -1.06,2.62 -1.29,3.01 -0.16,0.25 -0.06,0.82 0.17,1 0.18,0.13 0.48,0.22 0.7,0.2 0.08,0.22 0.24,0.4 0.44,0.48 0.18,0.08 0.39,0.09 0.5,0.09 0.05,0 0.15,0 0.25,-0.02 0.13,0.19 0.36,0.36 0.56,0.4 0.08,0.02 0.18,0.03 0.29,0.03 0.11,0 0.35,0 0.54,-0.11 0.19,0.16 0.54,0.28 0.79,0.28 h 0.04 c 0.28,-0.02 0.5,-0.2 0.62,-0.32 0.09,0.06 0.33,0.2 0.59,0.2 h 0.03 c 0.23,-0.01 0.52,-0.14 0.68,-0.3 0.15,0.05 0.39,0.06 0.58,0 0.18,-0.07 0.41,-0.2 0.52,-0.4 0.22,0 0.43,-0.05 0.57,-0.15 0.19,-0.13 0.38,-0.38 0.36,-0.61 L 46.31,62.4 c -0.08,-0.15 -1.28,-3.05 -1.54,-3.81 0.14,-0.11 0.38,-0.33 0.39,-0.59 0,0 0.02,-0.11 0.07,-0.16 0,0 0.33,-0.49 0.18,-0.75 h 0.03 c 0.41,-0.16 0.32,-0.39 0.32,-0.39 0,-0.04 -0.06,-0.1 -0.06,-0.1 0.56,-0.33 0.2,-0.51 0.2,-0.51 0.53,-0.19 0.29,-0.55 0.29,-0.55 0.54,-0.33 0.13,-0.55 0.13,-0.55 0.65,-0.28 0.17,-0.56 0.17,-0.56 0.77,-0.54 -0.05,-0.64 -0.05,-0.64" id="path24"/><path class="cls-1" d="m 39.73,58.74 c -0.07,0.76 -1.31,3.09 -1.32,3.11 -0.12,0.18 0,0.51 0.09,0.58 0.1,0.08 0.3,0.14 0.44,0.14 0.05,0 0.08,0 0.09,-0.01 0.12,-0.28 1.03,-2.95 1.09,-3.17 0.02,-0.08 0.11,-0.13 0.19,-0.11 0.09,0.02 0.14,0.11 0.11,0.2 0,0.02 -0.95,2.89 -1.14,3.27 0.02,0.08 0.09,0.26 0.27,0.34 0.1,0.04 0.23,0.07 0.37,0.07 0.12,0 0.19,-0.02 0.22,-0.03 0.1,-0.24 0.47,-2.22 0.6,-2.88 0.06,-0.32 0.1,-0.51 0.11,-0.56 0.02,-0.08 0.11,-0.14 0.19,-0.12 0.09,0.02 0.14,0.11 0.12,0.19 0,0.04 -0.05,0.23 -0.09,0.5 v 0.04 c -0.41,2.14 -0.55,2.73 -0.63,2.95 0.06,0.1 0.23,0.25 0.38,0.29 0.06,0.01 0.14,0.02 0.22,0.02 0.21,0 0.36,-0.04 0.41,-0.09 0.07,-0.39 0.27,-3.22 0.27,-3.48 0,-0.09 0.07,-0.16 0.16,-0.16 0.09,0 0.16,0.07 0.16,0.16 0,0.19 -0.19,2.94 -0.28,3.52 0.1,0.09 0.38,0.22 0.6,0.22 h 0.03 c 0.17,-0.01 0.35,-0.15 0.46,-0.28 -0.01,-0.48 -0.24,-3 -0.26,-3.18 -0.01,-0.09 0.05,-0.17 0.14,-0.18 0.04,0 0.08,0 0.12,0.03 0.03,0.03 0.06,0.06 0.06,0.11 0,0.02 0.25,2.49 0.25,3.21 0.09,0.06 0.28,0.17 0.46,0.17 0.21,0 0.44,-0.15 0.51,-0.23 -0.02,-0.23 -0.3,-1.47 -0.4,-1.82 -0.02,-0.08 0.03,-0.17 0.11,-0.2 0.04,-0.01 0.08,0 0.12,0.02 0.04,0.02 0.06,0.06 0.07,0.1 0,0.01 0.35,1.38 0.4,1.84 0.1,0.03 0.26,0.04 0.37,0 0.18,-0.07 0.33,-0.19 0.36,-0.3 -0.02,-0.12 -0.32,-1 -1.29,-3.57 l -0.02,-0.04 c 0,0 -0.01,-0.08 0,-0.12 0.02,-0.04 0.05,-0.07 0.09,-0.08 0.08,-0.03 0.17,0.01 0.21,0.09 l 0.02,0.04 c 0.76,2 1.18,3.16 1.28,3.56 v 0 c 0.14,0 0.28,-0.03 0.37,-0.09 0.13,-0.08 0.21,-0.23 0.22,-0.29 -0.14,-0.31 -1.22,-2.89 -1.53,-3.77 -0.43,0.14 -1.21,0.13 -1.21,0.13 0,0.29 0.37,1.05 0.37,1.05 -0.98,0.04 -1.74,-1.03 -1.74,-1.03 -0.96,-0.03 -1.83,-0.15 -2.12,-0.19 0,0 -0.09,-0.02 -0.1,0.05" id="path25"/><path class="cls-1" d="m 43.43,57.4 c 0,0 0.17,0.24 -0.09,1.14 0,0 0.84,-0.03 1,-0.07 0,0 0.11,-0.03 0.15,-0.07 0,0 0.26,-0.16 0.32,-0.25 0,0 0.05,-0.07 0.08,-0.2 0,0 0.01,-0.18 0.09,-0.25 0,0 0.13,-0.17 0.19,-0.4 0,0 0.08,-0.15 -0.2,-0.11 0,0 -0.28,0.04 -0.44,0.09 0,0 -0.15,0.12 -1.11,0.12" id="path26"/><path class="cls-1" d="m 42.62,58.21 -0.3,-0.86 c 0,0 -0.11,-0.34 -0.48,-0.27 0,0 -0.36,0.11 -0.07,0.45 0,0 0.14,0.15 0.17,0.43 0,0 0,0.91 1.22,1.54 0,0 -0.26,-0.62 -0.1,-1.16 0,0 0.4,-1.1 -0.37,-1.33 0,0 -0.25,-0.1 -0.13,0.13 0,0 0.07,0.09 0.06,0.42 z" id="path27"/><path class="cls-1" d="m 41.34,57.3 c 0,0 -1.38,-0.21 -1.65,-0.27 l -0.24,-0.06 c 0,0 -0.12,-0.03 -0.05,0.09 0,0 0.03,0.08 0.06,0.11 l 0.24,0.39 c 0,0 0.11,0.19 -0.04,0.39 0,0 -0.42,0.4 0.42,0.45 0,0 1.44,0.16 1.69,0.14 0,0 -0.13,-0.36 -0.15,-0.58 0,-0.04 -0.03,-0.18 -0.15,-0.32 0,0 -0.14,-0.18 -0.14,-0.36" id="path28"/><path class="cls-1" d="m 41.02,56.51 c 0,0 0,-0.06 -0.04,-0.08 -0.02,0 -0.04,0 -0.07,0.01 l -0.47,0.37 h 0.01 c 0.16,0.03 0.34,0.06 0.53,0.09 v 0 c 0,0 0,0 0,0 0.03,-0.09 0.08,-0.27 0.04,-0.4 v 0 z" id="path29"/><path class="cls-1" d="M 40.26,54.28 40.28,54.26 40,54.37 v 0 c 0,0 0,0 0,0 0.07,0.08 0.07,0.22 0.07,0.29 v 0 c 0,0 0.08,-0.04 0.08,-0.04 v 0 c -0.05,-0.18 0.05,-0.3 0.11,-0.35" id="path30"/><path class="cls-1" d="m 44.97,52.15 c 0,0 0,0.14 0.03,0.18 l 0.37,0.64 -0.48,-0.21 c -0.11,-0.05 -0.14,-0.04 -0.16,-0.02 -0.02,0.03 0.02,0.12 0.05,0.15 l 0.5,0.61 -0.54,-0.18 v 0 c 0,0 0,0 0,0 -0.01,0.05 -0.08,0.11 -0.12,0.14 v 0 c 0,0 0,0 0,0 0.12,0.03 0.19,0.08 0.21,0.15 0.04,0.15 -0.13,0.35 -0.19,0.4 v 0 c 0,0 0,0 0,0 0.06,0.02 0.18,0.09 0.15,0.3 v 0 c 0,0 0,0 0,0 0,0 0.01,0 0.02,0 v 0 c 0,0 0,0 0.01,0 v 0 c 0,0 0.09,-0.03 0.14,-0.03 0,0 0.02,0 0.03,0 v 0 c 0,0 0,0 0,0 -0.01,-0.05 -0.07,-0.3 0.04,-0.42 0.06,-0.06 0.16,-0.08 0.3,-0.04 v 0 c 0,0 0,0 0,0 0,-0.07 -0.04,-0.41 0.11,-0.51 0.07,-0.05 0.17,-0.03 0.3,0.04 v 0 c 0,0 0,0 0,0 0.02,-0.01 0.19,-0.14 0.28,-0.18 v 0 c 0,0 0.1,-0.13 0.2,-0.17 v 0 c 0,0 0,0 0,0 -0.16,-0.16 -0.79,0.05 -0.82,0.06 h -0.01 c 0,0 0.72,-0.56 0.72,-0.56 0.09,-0.09 0.09,-0.13 0.08,-0.15 -0.02,-0.04 -0.17,0 -0.17,0 l -0.28,0.11 -0.02,-0.72 v 0 c 0,0 -0.03,-0.05 -0.05,-0.06 -0.04,-0.01 -0.08,0.02 -0.08,0.02 v 0 c -0.05,0.11 -0.24,0.62 -0.24,0.62 v 0 c 0,0 -0.28,-0.15 -0.28,-0.15 -0.09,-0.06 -0.13,-0.06 -0.14,-0.04" id="path31"/><path class="cls-1" d="m 42.12,52.54 v 0 c 0,0 0.08,0.01 0.11,0.03 v 0 c 0,0 0,0 0,0 0,-0.04 0.02,-0.16 0.02,-0.19 v -0.02 c 0,0 0,0.02 0,0.02 -0.02,0.04 -0.06,0.09 -0.13,0.16 z" id="path32"/><path class="cls-1" d="m 41.9,51.36 v 0 c 0,0 0,0 0,0 0.14,0 0.22,0.04 0.26,0.11 0.08,0.16 -0.1,0.43 -0.13,0.48 v 0 c 0,0 0,0 0,0 0,0 0.02,0 0.03,0 0,0 0.01,0 0.02,0 0,0 0.01,0 0.02,0 0.13,0.03 0.19,0.11 0.2,0.13 v 0 c 0,0 0.13,-1.17 0.13,-1.17 l 0.15,1.45 v 0 c 0,0 0,0 0,0 0.07,-0.07 0.14,-0.09 0.17,-0.1 v 0 c 0,0 0,0 0,0 -0.14,-0.17 -0.19,-0.3 -0.15,-0.4 0.05,-0.12 0.23,-0.15 0.28,-0.16 v 0 c 0,0 0,0 0,0 -0.18,-0.19 -0.15,-0.42 -0.14,-0.49 v 0 c 0,0 -0.25,0.04 -0.25,0.04 l 0.29,-0.33 c 0.34,-0.3 0.33,-0.41 0.33,-0.43 v 0 c 0,0 0,0 0,0 -0.01,0 -0.03,0 -0.04,0 -0.15,0 -0.38,0.18 -0.39,0.19 v 0 c 0,0 0,0 0,0 -0.05,-0.06 -0.08,-0.25 -0.08,-0.26 -0.01,-0.19 -0.05,-0.37 -0.06,-0.39 v 0 c -0.03,-0.06 -0.05,-0.08 -0.08,-0.08 -0.04,0 -0.07,0.07 -0.08,0.08 l -0.05,0.33 c -0.02,0.14 -0.08,0.3 -0.08,0.32 v 0 c 0,0 0,0 0,0 -0.33,-0.23 -0.42,-0.19 -0.43,-0.18 v 0 c 0,0 0,0 0,0 -0.03,0.07 0.14,0.26 0.14,0.26 l 0.38,0.49 v 0 c -0.14,-0.06 -0.4,-0.14 -0.41,-0.14 -0.19,-0.04 -0.24,-0.02 -0.25,0 -0.02,0.05 0.14,0.18 0.21,0.23" id="path33"/><path class="cls-1" d="m 40.01,51.51 h 0.02 c 0,0 -0.02,0 -0.02,0 0,0 -0.41,-0.16 -0.64,-0.2 h -0.01 c 0,0 0,0 0,0 0.04,0.05 0.16,0.25 0.19,0.46 v 0 c 0,0 0,0 0,0 0.06,-0.03 0.35,-0.16 0.48,-0.05 0.09,0.08 0.08,0.25 -0.02,0.52 v 0 c 0,0 0,0 0,0 h 0.01 c 0.06,0 0.19,0 0.26,0.09 0.04,0.05 0.06,0.12 0.04,0.2 v 0 c 0,0 0,0 0,0 0.02,-0.01 0.06,-0.03 0.09,-0.04 v 0 c 0,0 0,0 0,0 -0.05,-0.05 -0.19,-0.23 -0.15,-0.37 0.03,-0.09 0.12,-0.15 0.27,-0.18 v 0 c 0,0 -0.06,-0.08 -0.06,-0.08 v 0 c 0,0 -0.36,0.05 -0.36,0.05 l 0.27,-0.25 v 0 c 0,0 0,0 0,0 0,-0.02 -0.04,-0.15 0.03,-0.23 0.06,-0.07 0.16,-0.09 0.31,-0.08 v 0 c 0,0 0.06,-0.08 0.05,-0.1 0,-0.02 -0.04,-0.03 -0.16,0 -0.01,0 -0.37,0.13 -0.56,0.26 h -0.01 c 0,0 0.48,-0.68 0.48,-0.68 0.02,-0.04 0.08,-0.16 0.06,-0.18 v 0 c 0,0 -0.13,-0.04 -0.41,0.22 v 0 c 0,0 0,0 0,0 -0.01,-0.02 -0.11,-0.23 -0.15,-0.43 0,0 -0.04,-0.2 -0.07,-0.25 v 0 c 0,0 -0.03,-0.03 -0.07,-0.03 0,0 0,0 0,0 -0.02,0 -0.04,0.02 -0.06,0.04 v 0 c 0,0 -0.02,0.23 -0.02,0.41 0,0.02 0,0.23 -0.05,0.3 v 0 c 0,0 0,0 0,0 0,0 -0.2,-0.15 -0.41,-0.15 v 0 c 0,0 -0.02,0 -0.03,0.01 0,0.01 0,0.03 0,0.06 0,0.02 0.27,0.37 0.68,0.66" id="path34"/><path class="cls-1" d="m 39.16,53.23 h -0.01 c -0.06,0 -0.26,0 -0.47,0.07 h -0.01 c 0,0 0.01,0 0.01,0 0.09,0.04 0.21,0.12 0.22,0.13 v 0 c 0,0 0,0 0,0 0.12,-0.09 0.22,-0.11 0.3,-0.07 0.15,0.09 0.15,0.42 0.15,0.49 v 0 c 0,0 0,0 0,0 0.13,-0.04 0.24,-0.04 0.3,0.02 0.12,0.11 0.08,0.34 0.07,0.41 v 0 c 0,0 0,0 0,0 0.02,0 0.04,0 0.07,0 v 0 l 0.35,-0.31 v 0 c 0,0 0,0 0,0 0,-0.02 -0.02,-0.08 0.01,-0.15 0.03,-0.05 0.08,-0.09 0.15,-0.11 v 0 c 0,0 0,0 0,0 -0.03,-0.02 -0.08,-0.06 -0.1,-0.11 v 0 c 0,0 -0.61,0.17 -0.61,0.17 l 0.55,-0.46 v 0 c 0,0 0,0 0,0 0,-0.02 -0.02,-0.12 0.14,-0.2 v 0 c 0,0 0,0 0,0 0,0 0,-0.01 -0.01,-0.02 -0.02,-0.02 -0.09,-0.04 -0.29,0.02 l -0.55,0.15 0.48,-0.44 v 0 c 0,0 0,-0.01 0.03,-0.04 0.08,-0.09 0.18,-0.21 0.16,-0.25 v 0 c 0,0 -0.05,-0.04 -0.24,0.04 l -0.46,0.24 0.35,-0.56 c 0,0 0.14,-0.23 0.11,-0.3 v 0 c 0,0 0,0 0,0 -0.01,0 -0.07,-0.02 -0.24,0.11 l -0.15,0.15 v 0 c 0,0 -0.12,-0.2 -0.14,-0.32 0,-0.03 -0.08,-0.28 -0.13,-0.37 v 0 c 0,0 0,0 0,0 -0.01,0 -0.08,-0.01 -0.12,0.02 v 0 c 0,0 -0.02,0.25 0,0.45 0,0 0.01,0.2 -0.03,0.28 v 0 c 0,0 0,0 0,0 -0.04,-0.02 -0.35,-0.18 -0.45,-0.11 v 0 c 0,0 0,0.15 0.35,0.35 l 0.38,0.28 -0.49,-0.05 v 0 c -0.07,0 -0.23,0 -0.25,0.05 -0.01,0.02 0,0.06 0.05,0.1 l 0.53,0.35 z" id="path35"/><path class="cls-1" d="m 46.62,54.05 c 0,0 0,-0.01 0,-0.02 v 0 c 0,0 0,0 0,0 0,0 0,0 0,-0.01 v 0 c 0,0 0,0 0,0 v 0 c -0.07,-0.07 -0.4,0 -0.42,0 v 0 c 0,0 0.18,-0.68 0.18,-0.68 0,-0.04 0,-0.06 0,-0.07 -0.01,-0.01 -0.04,0 -0.06,0 -0.14,0.12 -0.43,0.57 -0.43,0.58 v 0 c 0,0 -0.13,-0.2 -0.13,-0.2 -0.05,-0.08 -0.09,-0.1 -0.12,-0.1 0,0 -0.02,0 -0.02,0 -0.06,0.03 -0.02,0.23 -0.02,0.23 l 0.1,0.63 -0.3,-0.31 c -0.07,-0.05 -0.12,-0.07 -0.15,-0.06 -0.05,0.03 -0.02,0.15 -0.01,0.17 l 0.24,0.61 -0.36,-0.26 c -0.09,-0.05 -0.16,-0.06 -0.19,-0.03 -0.07,0.06 0.02,0.27 0.04,0.32 l 0.33,0.57 -0.49,-0.35 c -0.07,-0.05 -0.11,-0.05 -0.13,-0.05 -0.02,0 -0.03,0.02 -0.03,0.02 v 0 c -0.06,0.07 0.04,0.27 0.04,0.27 l 0.24,0.62 -0.43,-0.35 v 0 c 0,0 -0.07,-0.01 -0.09,0 -0.06,0.05 -0.03,0.2 -0.03,0.22 l 0.38,0.63 -0.47,-0.31 c -0.07,-0.05 -0.11,-0.07 -0.13,-0.05 -0.03,0.03 0,0.14 0.03,0.19 l 0.36,0.57 -0.52,-0.31 c 0,0 -0.05,-0.02 -0.07,0 -0.03,0.02 -0.04,0.07 -0.04,0.08 -0.04,0.17 0.07,0.4 0.09,0.45 v 0 c 0,0 0.02,0 0.02,0 v 0 c 0.22,-0.02 0.31,-0.04 0.32,-0.04 0.54,-0.18 0.82,-0.15 0.95,-0.1 v 0 c 0,0 0,0 0,0 0.25,-0.07 0.31,-0.13 0.3,-0.17 0,-0.06 -0.13,-0.09 -0.13,-0.09 -0.32,-0.08 -0.54,-0.14 -0.55,-0.15 v 0 c 0,0 0,0 0,0 0.23,-0.03 0.76,-0.15 0.76,-0.15 0.07,-0.03 0.11,-0.07 0.11,-0.1 0,-0.06 -0.14,-0.09 -0.14,-0.09 l -0.73,-0.12 0.93,-0.18 c 0.14,-0.05 0.21,-0.1 0.21,-0.15 0,-0.07 -0.11,-0.12 -0.11,-0.12 l -0.54,-0.18 0.72,-0.11 c 0.09,-0.03 0.14,-0.06 0.14,-0.1 0,-0.06 -0.1,-0.1 -0.1,-0.1 l -0.57,-0.21 0.75,-0.17 c 0.06,-0.02 0.12,-0.05 0.12,-0.09 0,-0.05 -0.14,-0.08 -0.14,-0.08 l -0.52,-0.08 0.62,-0.26 c 0.17,-0.09 0.2,-0.13 0.2,-0.15" id="path36"/><path class="cls-1" d="m 43.13,56.86 v 0 c 0,0 0,0 0,0 0.06,0.05 0.1,0.1 0.11,0.12 v 0 c 0,0 0,0 0,0 0.08,-0.08 0.11,-0.13 0.09,-0.16 -0.03,-0.04 -0.18,0.02 -0.21,0.03" id="path37"/><path class="cls-1" d="m 43.34,56.32 c 0,0 -0.1,-0.03 -0.13,-0.03 l -0.73,0.1 h 0.01 c 0.45,-0.21 0.8,-0.5 0.8,-0.51 0.05,-0.06 0.07,-0.1 0.05,-0.12 -0.01,-0.03 -0.07,-0.02 -0.1,-0.02 v 0 c 0,0 -0.01,0 -0.02,0 v 0 l -0.95,0.23 0.7,-0.42 c 0.39,-0.22 0.37,-0.37 0.37,-0.38 0,-0.02 -0.01,-0.03 -0.02,-0.04 -0.05,-0.03 -0.17,-0.01 -0.21,0 l -0.64,0.08 0.76,-0.45 v 0 c 0.05,-0.05 0.07,-0.1 0.06,-0.12 -0.02,-0.03 -0.08,-0.04 -0.11,-0.04 v 0 l -0.76,0.06 0.48,-0.29 c 0.28,-0.17 0.33,-0.26 0.34,-0.3 0,-0.02 0,-0.02 0,-0.02 -0.09,-0.11 -0.79,0.19 -0.8,0.2 h -0.01 c 0,0 0,0 0,0 l 0.47,-0.48 c 0.19,-0.19 0.21,-0.28 0.21,-0.31 0,-0.02 0,-0.02 0,-0.03 v 0 c 0,0 -0.02,0 -0.04,0 -0.12,0 -0.37,0.16 -0.4,0.18 v 0 c 0,0 -0.12,-0.58 -0.12,-0.58 -0.02,-0.11 -0.05,-0.18 -0.08,-0.2 0,0 -0.02,0 -0.02,0 v 0 c 0,0 0,0 0,0 -0.08,0 -0.11,0.46 -0.11,0.47 -0.01,0.11 -0.08,0.3 -0.08,0.32 v 0 c 0,0 0,0 0,0 -0.29,-0.23 -0.42,-0.19 -0.43,-0.18 v 0 c 0,0 0,0 0,0 -0.02,0.03 0.06,0.15 0.09,0.2 l 0.53,0.61 -0.54,-0.19 c -0.19,-0.04 -0.22,0 -0.22,0 -0.02,0.04 0.05,0.11 0.08,0.14 l 0.59,0.47 v 0 c -0.64,-0.13 -0.74,-0.04 -0.74,-0.04 -0.06,0.09 0.1,0.2 0.1,0.2 l 0.75,0.42 v 0 0 l 0.09,0.05 -0.8,-0.13 c -0.17,-0.03 -0.18,0 -0.19,0.02 0,0 0,0 0,0 v 0 c 0,0 0,0 0,0 -0.01,0.1 0.12,0.2 0.13,0.2 l 0.65,0.51 -0.45,-0.13 c -0.08,-0.02 -0.13,-0.03 -0.14,-0.03 h -0.01 c -0.09,0 -0.15,0.02 -0.16,0.05 -0.03,0.07 0.11,0.19 0.13,0.2 l 0.77,0.48 -0.77,-0.14 c 0,0 -0.06,-0.02 -0.09,-0.02 -0.03,0 -0.05,0.01 -0.05,0.02 -0.02,0.03 0.05,0.1 0.09,0.13 l 0.65,0.37 v 0 c 0,0 0,0 0,0 0.18,-0.28 0.57,-0.12 0.58,-0.12 v 0 c 0,0 0,0 0,0 0.26,-0.11 0.43,-0.27 0.43,-0.27 0.04,-0.04 0.08,-0.09 0.07,-0.12" id="path38"/><path class="cls-1" d="m 41.58,56.81 c 0,0 -0.05,0 -0.06,0.02 -0.01,0.02 0,0.03 0,0.06 v 0 c 0,0 0,0 0,0 0.03,-0.03 0.05,-0.05 0.08,-0.07 h 0.01 c 0,0 -0.01,0 -0.01,0 -0.01,0 -0.02,0 -0.03,0" id="path39"/><path class="cls-1" d="m 40.74,56.01 c 0,0 -0.07,0 -0.13,0.06 l -0.48,0.38 0.36,-0.68 v 0 c 0,0 0.01,-0.18 -0.05,-0.22 -0.02,-0.02 -0.06,-0.02 -0.1,0 l -0.54,0.64 0.33,-0.89 c 0,0 0.08,-0.21 0.02,-0.27 v 0 c 0,0 0,-0.02 -0.03,-0.02 -0.02,0 -0.06,0 -0.13,0.06 l -0.45,0.33 0.27,-0.55 c 0,0 0.1,-0.24 0.02,-0.31 -0.03,-0.03 -0.1,-0.02 -0.2,0.04 l -0.35,0.28 0.21,-0.62 c 0,0 0.02,-0.14 -0.02,-0.17 -0.03,-0.02 -0.08,0 -0.15,0.07 l -0.31,0.38 0.09,-0.69 c 0,0 0.02,-0.22 -0.04,-0.25 v 0 c 0,0 0,0 0,0 -0.01,0 -0.08,0.04 -0.12,0.12 l -0.11,0.21 v 0 c 0,0 -0.33,-0.44 -0.48,-0.55 v 0 c 0,0 -0.05,-0.01 -0.06,0 -0.01,0.01 -0.01,0.04 0,0.07 l 0.23,0.66 v 0 c -0.07,0 -0.43,-0.04 -0.45,0.06 v 0 c 0,0 0,0 0,0.01 0,0.02 0.05,0.07 0.23,0.14 l 0.72,0.25 -0.6,0.08 c 0,0 -0.14,0.04 -0.14,0.09 0,0.02 0.02,0.05 0.14,0.09 l 0.8,0.09 -0.59,0.28 c 0,0 -0.1,0.05 -0.1,0.1 0,0.04 0.05,0.07 0.15,0.1 l 0.92,0.06 -0.72,0.22 c 0,0 -0.13,0.05 -0.13,0.11 0,0.06 0.08,0.11 0.25,0.16 l 0.68,0.09 -0.46,0.19 c 0,0 -0.15,0.05 -0.15,0.1 0,0.03 0.04,0.06 0.13,0.09 v 0 c 0.18,0.02 0.63,0.07 0.82,0.08 v 0 c 0,0 0,0 0,0 0,0 -0.06,0.03 -0.46,0.16 h -0.02 c 0,0 0.02,0 0.02,0 0.01,0 0.03,0 0.04,0 v 0 c 0.14,0.04 0.39,0.09 0.75,0.15 v 0 c 0,0 0.34,-0.61 0.34,-0.61 0.02,-0.04 0.05,-0.17 0.01,-0.19" id="path40"/><path class="cls-1" d="m 41.28,55.14 c 0.01,-0.09 0.07,-0.16 0.17,-0.21 v 0 c 0,0 0,0 0,0 -0.03,-0.04 -0.17,-0.25 -0.11,-0.41 0.03,-0.08 0.1,-0.14 0.21,-0.17 v 0 c 0,0 0,0 0,0 -0.03,-0.03 -0.13,-0.14 -0.15,-0.23 v 0 c 0,0 -0.32,0.07 -0.32,0.07 l 0.31,-0.21 v 0 c 0,0 0.06,-0.17 0.28,-0.18 v 0 0 c -0.04,-0.06 -0.18,-0.24 -0.13,-0.43 v 0 c 0,0 -0.15,0 -0.15,0 l 0.25,-0.15 c 0,0 0.03,-0.02 0.05,-0.03 v 0 c 0,0 0,0 0,0 0.01,-0.01 0.03,-0.02 0.04,-0.03 L 42,53.01 v 0 c 0,0 0.15,-0.11 0.13,-0.16 -0.01,-0.03 -0.07,-0.04 -0.16,-0.04 l -0.71,0.06 v 0 c 0,0 0.62,-0.38 0.69,-0.47 0.02,-0.02 0.1,-0.1 0.07,-0.14 0,-0.02 -0.05,-0.04 -0.17,0 -0.03,0 -0.19,0.06 -0.28,0.1 l -0.29,0.13 0.55,-0.64 c 0,0 0.12,-0.15 0.08,-0.2 -0.01,-0.02 -0.06,-0.03 -0.19,0.03 0,0 -0.15,0.05 -0.24,0.15 v 0 c 0,0 0,0 0,0 0,0 -0.08,-0.19 -0.1,-0.47 0,0 -0.01,-0.19 -0.06,-0.25 v 0 c 0,0 0,0 0,0 -0.01,0 -0.08,-0.02 -0.11,0 v 0 c -0.01,0.06 -0.05,0.24 -0.06,0.42 0,0.02 -0.04,0.23 -0.09,0.31 v 0 c 0,0 0,0 0,0 0,0 -0.24,-0.19 -0.39,-0.19 -0.02,0 -0.03,0 -0.04,0 v 0 c 0,0 0,0 0,0 0,0.02 -0.02,0.14 0.33,0.44 l 0.32,0.36 -0.57,-0.19 c 0,0 -0.2,-0.05 -0.22,0 -0.01,0.02 0,0.07 0.15,0.19 l 0.48,0.37 -0.5,-0.04 c 0,0 -0.17,0 -0.19,0.08 -0.02,0.05 0.04,0.13 0.17,0.22 l 0.81,0.41 -0.82,-0.11 c 0,0 -0.17,-0.03 -0.2,0.03 -0.02,0.03 0.02,0.09 0.11,0.17 l 0.25,0.18 c 0.05,0.04 0.23,0.17 0.32,0.25 v 0 c 0,0 -0.47,-0.07 -0.47,-0.07 v 0 c 0,0 -0.19,0 -0.21,0.07 -0.02,0.04 0.03,0.11 0.15,0.19 l 0.72,0.42 -0.74,-0.1 h -0.01 c 0,0 -0.12,0 -0.13,0.04 0,0.02 0,0.06 0.11,0.12 l 0.68,0.4 -0.77,-0.07 v 0 c 0,0 0,0 0,0 0.03,0.12 0,0.27 0,0.31 v 0 c 0,0 0,0 0,0 0.08,-0.01 0.15,0 0.2,0.05 0.12,0.11 0.11,0.36 0.1,0.41 v 0 c 0,0 0,0 0,0 h 0.01 c 0.08,0 0.15,0.03 0.19,0.08 0.09,0.11 0.06,0.31 0.05,0.35 v 0 c 0,0 0,0 0,0 0.1,0 0.17,0.05 0.22,0.11 0.13,0.17 0.07,0.5 0.04,0.63 v 0 c 0,0 0.09,0.02 0.09,0.02 v 0 c 0,0 -0.04,-0.16 0,-0.26 0.02,-0.05 0.06,-0.08 0.11,-0.1 v 0 c 0,0 0,0 0,0 -0.02,-0.03 -0.15,-0.2 -0.12,-0.34 0.01,-0.07 0.06,-0.12 0.13,-0.15 v 0 c 0,0 0,0 0,0 -0.03,-0.04 -0.17,-0.25 -0.12,-0.4 0.02,-0.07 0.07,-0.12 0.16,-0.15 v 0 c 0,0 0,0 0,0 -0.04,-0.04 -0.21,-0.22 -0.19,-0.39" id="path41"/><path class="cls-1" d="m 44.33,51.13 v 0 c 0,0 0,0 0,0 0.01,0 0.14,0.01 0.19,0.11 0.05,0.1 0,0.26 -0.13,0.47 v 0 c 0,0 0,0 0,0 0.05,0 0.22,0.04 0.27,0.16 0.04,0.1 -0.02,0.24 -0.17,0.41 v 0 c 0,0 0,0 0,0 0.05,0 0.16,0.04 0.3,0.17 l 0.02,0.02 v -0.02 c -0.06,-0.11 -0.13,-0.31 0.01,-0.52 v 0 c 0,0 0,0 0,0 0.26,-0.05 0.4,0.05 0.43,0.09 v 0 c 0,0 0.02,-0.11 0.02,-0.11 v 0 c -0.2,-0.06 -0.35,-0.04 -0.42,-0.03 v 0 c 0,0 0,0 0,0 0.04,-0.04 0.08,-0.09 0.14,-0.12 l 0.32,-0.23 c 0,0 0.07,-0.07 0.06,-0.11 -0.01,-0.03 -0.08,-0.03 -0.12,-0.03 l -0.63,0.13 0.63,-0.56 c 0,0 0.1,-0.11 0.07,-0.15 -0.01,-0.02 -0.05,-0.03 -0.17,0 0,0 -0.11,0.05 -0.26,0.14 v 0 c 0,0 -0.07,-0.69 -0.07,-0.69 0,-0.01 -0.02,-0.07 -0.06,-0.08 -0.03,0 -0.06,0.02 -0.09,0.06 l -0.21,0.65 v 0 c 0,0 -0.15,-0.17 -0.33,-0.22 -0.02,0 -0.07,-0.02 -0.08,0 -0.02,0.02 0,0.06 0.02,0.1 0.01,0.02 0.12,0.25 0.27,0.37" id="path42"/><path class="cls-1" d="m 44.71,54.77 c 0,0 0,-0.01 0,-0.02 v 0 c 0,0 -1.03,0.14 -1.03,0.14 l 0.72,-0.42 c 0.15,-0.12 0.17,-0.18 0.16,-0.2 -0.02,-0.05 -0.14,-0.04 -0.17,-0.04 l -0.68,0.11 0.71,-0.43 c 0.13,-0.11 0.15,-0.15 0.14,-0.17 -0.02,-0.03 -0.12,-0.02 -0.16,-0.01 l -0.91,0.18 0.85,-0.51 c 0.17,-0.14 0.24,-0.23 0.21,-0.29 -0.03,-0.06 -0.16,-0.04 -0.19,-0.04 l -0.55,0.08 0.6,-0.42 c 0.08,-0.06 0.11,-0.11 0.1,-0.14 -0.02,-0.04 -0.11,-0.05 -0.14,-0.05 v 0 l -0.68,0.05 0.61,-0.42 c 0.12,-0.09 0.17,-0.15 0.16,-0.19 -0.02,-0.05 -0.19,-0.02 -0.26,0 l -0.53,0.22 0.54,-0.62 c 0.11,-0.12 0.16,-0.19 0.14,-0.22 0,0 -0.02,-0.01 -0.04,-0.01 -0.06,0 -0.17,0.04 -0.25,0.08 l -0.17,0.11 -0.15,-0.68 c 0,0 -0.04,-0.07 -0.07,-0.07 v 0 c 0,0 -0.07,0.07 -0.07,0.07 L 43.46,51.5 43.2,51.38 c -0.12,-0.05 -0.16,-0.03 -0.17,-0.02 -0.03,0.04 0.05,0.14 0.08,0.18 l 0.48,0.6 -0.36,-0.15 c -0.2,-0.07 -0.31,-0.08 -0.34,-0.04 -0.03,0.04 0.05,0.14 0.07,0.16 l 0.54,0.48 v 0 c -0.43,-0.09 -0.67,-0.09 -0.7,-0.02 -0.03,0.07 0.18,0.21 0.19,0.21 l 0.69,0.37 -0.88,-0.11 v 0 c 0,0 0.02,0.16 0.02,0.16 v 0 c 0.27,-0.07 0.44,-0.06 0.5,0.03 0.04,0.06 0.04,0.16 -0.02,0.29 l 0.2,0.13 h -0.26 c 0,0 -0.04,0.05 -0.06,0.09 v 0 c 0,0 0,0 0,0 0.13,0.02 0.22,0.07 0.26,0.13 v 0 c 0,0 0,0 0,0 0,0.01 0.01,0.02 0.01,0.03 0.02,0.06 0,0.13 -0.04,0.22 0,0 -0.01,0.02 -0.03,0.05 l 0.2,0.14 -0.26,-0.05 c 0,0 -0.02,0.03 -0.04,0.05 v 0 c 0,0 0,0 0,0 0.14,0.03 0.22,0.09 0.25,0.17 0.05,0.15 -0.09,0.34 -0.12,0.37 v 0 c 0,0 0,0 0,0 0.11,0.05 0.16,0.12 0.18,0.2 0.03,0.18 -0.16,0.37 -0.2,0.41 v 0 c 0,0 0,0 0,0 0.1,0.02 0.17,0.07 0.19,0.14 0.05,0.15 -0.12,0.36 -0.15,0.4 v 0 c 0,0 0,0 0,0 0.09,0.03 0.14,0.08 0.16,0.14 0.04,0.15 -0.12,0.34 -0.16,0.37 v 0 c 0,0 0,0 0,0 0.06,0.02 0.11,0.06 0.13,0.11 0.05,0.12 -0.03,0.29 -0.07,0.36 v 0 c 0,0 0,0 0,0 0.08,0 0.16,0 0.23,-0.01 v 0 0 c -0.03,-0.11 -0.14,-0.46 -0.02,-0.66 0.04,-0.07 0.11,-0.12 0.21,-0.13 v 0 c 0,0 0,0 0,0 -0.01,-0.04 -0.06,-0.24 0.02,-0.35 0.04,-0.06 0.11,-0.09 0.2,-0.09 v 0 0 c 0,-0.05 -0.04,-0.3 0.07,-0.42 0.04,-0.05 0.1,-0.07 0.17,-0.07 0,0 0.02,0 0.03,0 v 0 0 c 0,0 -0.08,-0.27 0.01,-0.42 0.05,-0.08 0.14,-0.13 0.25,-0.14 v 0 c 0,0 0,0 0,0 z" id="path43"/><path class="cls-7" d="m 72.23,24.7 v 0.44 h -1.45 v 10.1 c 0,2.45 1.39,3.23 2.65,3.23 1.91,0 3.25,-1.28 3.25,-3.37 V 25.14 H 74.87 V 24.7 h 3.57 v 0.44 h -1.21 v 9.98 c 0,2.33 -1.54,3.8 -3.89,3.8 -3.25,0 -4.74,-1.37 -4.74,-4.14 v -9.63 h -1.2 v -0.44 h 4.82 z" id="path44"/><path class="cls-7" d="m 78.52,28.39 h 2.81 v 1.36 h 0.04 c 0.48,-0.86 1.43,-1.69 2.83,-1.69 1.59,0 2.71,0.76 2.71,2.95 v 7.12 h 1.08 v 0.44 h -4.14 v -0.44 h 1.16 v -7.37 c 0,-1.49 -0.46,-1.99 -1.4,-1.99 -1.11,0 -2.13,0.97 -2.13,3.05 v 6.3 h 1.16 v 0.44 h -4.13 v -0.44 h 1.08 v -9.31 h -1.08 v -0.44 z" id="path45"/><path class="cls-7" d="m 90.24,24.98 c 0.64,0 1.14,0.46 1.14,1.14 0,0.68 -0.5,1.14 -1.14,1.14 -0.64,0 -1.14,-0.46 -1.14,-1.14 0,-0.68 0.5,-1.14 1.14,-1.14 m 0.95,13.17 h 0.96 v 0.44 H 88.34 V 38.15 H 89.3 V 28.84 H 88.34 V 28.4 h 2.85 z" id="path46"/><polygon class="cls-7" points="98.07,28.39 101.08,28.39 101.08,28.84 100.26,28.84 96.7,38.67 95.88,38.67 92.31,28.84 91.48,28.84 91.48,28.39 95.86,28.39 95.86,28.84 94.29,28.84 96.94,36.34 96.98,36.34 99.67,28.84 98.07,28.84 " id="polygon46"/><path class="cls-7" d="m 106.46,32.09 v -0.78 c 0,-2.01 -0.66,-2.79 -1.71,-2.79 -1.24,0 -1.99,1.24 -2.15,3.57 h 3.85 z m -3.88,0.44 c -0.02,0.2 -0.02,0.4 -0.02,0.6 0,3.87 0.96,5.22 2.49,5.22 1.71,0 2.93,-1.08 3.13,-3.57 h 0.44 c -0.1,2.77 -1.73,4.14 -3.77,4.14 -2.55,0 -4.38,-2.21 -4.38,-5.42 0,-3.21 1.95,-5.42 4.32,-5.42 2.37,0 3.75,1.61 3.75,4.46 h -5.96 z" id="path47"/><path class="cls-7" d="m 110.17,28.84 h -1.08 V 28.4 h 2.93 v 1.48 h 0.04 c 0.42,-1.17 1.14,-1.81 2.43,-1.81 0.5,0 1.08,0.22 1.39,0.36 v 3.94 h -0.44 l -0.7,-2.07 c -0.36,-1.06 -0.56,-1.51 -1.04,-1.51 -0.82,0 -1.62,1.49 -1.62,3.29 v 6.06 h 1.32 v 0.44 h -4.3 v -0.44 h 1.08 v -9.31 z" id="path48"/><path class="cls-7" d="m 116.78,34.5 c 0.72,3.37 1.12,3.98 2.93,3.98 1.56,0 2.73,-0.8 2.73,-2.27 0,-1.95 -6.22,-1.53 -6.22,-4.92 0,-2.01 1.62,-3.21 3.93,-3.21 1.08,0 2.13,0.3 2.89,0.7 v 3.23 h -0.56 c -0.86,-2.97 -1.08,-3.49 -2.51,-3.49 -1.26,0 -2.47,0.7 -2.47,1.81 0,2.53 6.22,1.67 6.22,5.18 0,2.05 -1.77,3.41 -4.18,3.41 -1.04,0 -2.31,-0.3 -3.33,-0.88 v -3.53 h 0.56 z" id="path49"/><path class="cls-7" d="m 126.21,24.98 c 0.64,0 1.14,0.46 1.14,1.14 0,0.68 -0.5,1.14 -1.14,1.14 -0.64,0 -1.14,-0.46 -1.14,-1.14 0,-0.68 0.5,-1.14 1.14,-1.14 m 0.94,13.17 h 0.96 v 0.44 h -3.81 v -0.44 h 0.96 V 28.84 H 124.3 V 28.4 h 2.85 z" id="path50"/><path class="cls-7" d="m 128.24,28.39 h 1.26 v -2.41 h 1.89 v 2.41 h 2.33 v 0.44 h -2.33 v 8.27 c 0,0.76 0.32,1.08 1.08,1.08 0.86,0 1.37,-0.52 1.37,-2.01 v -1.61 h 0.44 v 1.48 c 0,2.13 -0.88,2.85 -2.53,2.85 -1.44,0 -2.25,-0.76 -2.25,-2.41 v -7.67 h -1.26 v -0.44 z" id="path51"/><path class="cls-7" d="m 133.28,28.39 h 4.29 v 0.44 h -1.51 l 2.93,7.01 2.41,-7.01 h -1.75 v -0.44 h 3.21 v 0.44 h -0.9 l -3.68,10.58 c -0.76,2.23 -1.38,2.67 -2.53,2.67 -0.74,0 -1.24,-0.18 -1.53,-0.48 v -3.13 h 0.44 l 0.54,1.95 c 0.28,1.04 0.6,1.22 0.92,1.22 0.8,0 1.45,-1.39 1.93,-3.11 l -4.03,-9.69 h -0.76 V 28.4 Z" id="path52"/><path class="cls-7" d="m 89.89,50.56 h 1.78 c 3.6,0 5.35,-1.75 5.35,-4.74 0,-2.12 -1.06,-4.38 -4.38,-4.38 h -2.75 v 9.13 z m -5.08,11.13 v -0.66 h 1.81 V 41.44 h -1.81 v -0.67 h 8.8 c 5.08,0 6.86,2.42 6.86,5.05 0,2.93 -2.3,4.96 -6.65,5.23 l 7.2,9.98 h 1.48 v 0.66 H 97.69 L 90.01,51.05 h -0.12 v 9.98 h 2.3 v 0.66 z" id="path53"/><path class="cls-7" d="m 110.03,51.89 v -1.18 c 0,-3.02 -1,-4.2 -2.57,-4.2 -1.88,0 -3,1.87 -3.24,5.38 h 5.8 z m -5.83,0.66 c -0.03,0.3 -0.03,0.6 -0.03,0.91 0,5.83 1.45,7.86 3.75,7.86 2.57,0 4.42,-1.63 4.72,-5.38 h 0.67 c -0.15,4.17 -2.6,6.23 -5.68,6.23 -3.84,0 -6.59,-3.33 -6.59,-8.16 0,-4.83 2.93,-8.16 6.5,-8.16 3.57,0 5.66,2.42 5.66,6.71 h -8.98 z" id="path54"/><path class="cls-7" d="m 120.99,55.4 c 1.57,0 2.42,-0.91 2.42,-4.44 0,-3.53 -0.85,-4.44 -2.42,-4.44 -1.57,0 -2.42,0.91 -2.42,4.44 0,3.53 0.61,4.44 2.42,4.44 m -0.42,11.37 c 3.15,0 5.2,-1.57 5.2,-3.14 0,-1.15 -0.51,-1.75 -2.78,-1.81 l -5.68,-0.12 c -0.73,0.42 -1.09,1.33 -1.09,2.21 0,1.36 1.63,2.87 4.35,2.87 m 6.53,-19.59 h -2.3 v 0.06 c 1.09,0.76 1.63,2.3 1.63,3.72 0,2.87 -2.24,5.11 -5.38,5.11 -2.84,0 -3.33,-1.09 -3.75,-1.09 -0.91,0 -2.12,0.91 -2.12,1.93 0,4.63 12.21,-1.03 12.21,5.66 0,2.45 -2.6,4.87 -6.59,4.87 -4.54,0 -6.53,-1.99 -6.53,-3.63 0,-1.12 1.12,-1.97 1.93,-2.24 v -0.06 c -1.81,-0.42 -2.66,-1.82 -2.66,-3.39 0,-2.21 1.45,-3.36 3.14,-3.81 -0.64,-0.7 -1.15,-1.96 -1.15,-3.51 0,-2.9 2.36,-4.96 5.44,-4.96 0.79,0 1.82,0.18 2.39,0.48 h 3.72 v 0.85 z" id="path55"/><path class="cls-7" d="m 131.01,41.19 c 0.97,0 1.72,0.7 1.72,1.72 0,1.02 -0.75,1.72 -1.72,1.72 -0.97,0 -1.72,-0.69 -1.72,-1.72 0,-1.03 0.76,-1.72 1.72,-1.72 m 1.42,19.83 h 1.45 v 0.66 h -5.75 v -0.66 h 1.45 V 46.99 h -1.45 v -0.67 h 4.29 v 14.69 z" id="path56"/><path class="cls-7" d="m 134.62,46.33 h 4.23 v 2.06 h 0.06 c 0.73,-1.3 2.15,-2.54 4.26,-2.54 2.39,0 4.08,1.15 4.08,4.44 v 10.73 h 1.63 v 0.66 h -6.23 v -0.66 h 1.75 v -11.1 c 0,-2.24 -0.7,-2.99 -2.12,-2.99 -1.66,0 -3.21,1.45 -3.21,4.6 v 9.49 h 1.75 v 0.66 h -6.23 v -0.66 h 1.63 V 46.99 h -1.63 v -0.67 z" id="path57"/><path class="cls-7" d="m 158.2,53.16 c -3.41,1.6 -6.23,0.45 -6.23,4.81 0,2.27 0.85,3.11 2.45,3.11 2.27,-0.06 3.78,-2.3 3.78,-5.62 z m -7.44,-1.33 v -4.9 c 1.57,-0.64 3.02,-1.09 4.62,-1.09 3.78,0 5.47,2 5.47,3.87 v 11.31 h 1.45 v 0.67 h -4.11 v -2.66 h -0.06 c -0.73,1.87 -2.45,3.14 -4.59,3.14 -2.72,0 -4.6,-1.57 -4.6,-4.2 0,-5.29 6.23,-3.75 9.25,-5.59 v -3.17 c 0,-1.91 -1.03,-2.69 -2.63,-2.69 -2.12,0 -2.69,1.09 -4.14,5.32 h -0.66 z" id="path58"/><path class="cls-7" d="m 75.21,54.23 c 1.13,0 1.72,-0.82 1.72,-3.75 0,-2.93 -0.59,-3.75 -1.72,-3.75 -1.13,0 -1.72,0.82 -1.72,3.75 0,2.93 0.59,3.75 1.72,3.75 m 0,-7.83 c 1.87,0 3.3,1.66 3.3,4.08 0,2.42 -1.42,4.08 -3.3,4.08 -1.88,0 -3.29,-1.66 -3.29,-4.08 0,-2.42 1.42,-4.08 3.29,-4.08" id="path59"/><path class="cls-7" d="m 78.81,46.64 h 0.73 v -0.83 c 0,-1.39 0.73,-2.19 2.39,-2.19 0.45,0 0.91,0.08 1.33,0.21 v 2 h -0.33 c -0.54,-1.72 -0.76,-1.87 -1.24,-1.87 -0.36,0 -0.72,0.24 -0.72,1 v 1.69 h 1.81 v 0.33 h -1.81 v 7.01 h 1.09 v 0.33 h -3.24 v -0.33 h 0.73 v -7.01 h -0.73 v -0.33 z" id="path60"/></g><rect class="cls-2" x="190.53" y="4.4058409" width="4.7800002" height="3.79" id="rect60"/><rect class="cls-2" x="197.89999" y="4.5158396" width="5.0799999" height="18.58" id="rect61"/><rect class="cls-2" x="205.29999" y="4.5158396" width="5.0799999" height="18.58" id="rect62"/><rect class="cls-2" x="190.45999" y="10.665839" width="4.9299998" height="12.48" id="rect63"/><polygon class="cls-2" points="206.83,38.86 206.83,46.18 212.37,46.18 212.37,27.54 206.83,27.54 206.83,33.04 201.67,36.13 201.67,27.54 196.13,27.54 196.13,46.18 201.67,46.18 201.67,41.93 " id="polygon63" transform="translate(-24.71,-23.13416)"/><rect class="cls-4" x="229.68999" y="4.4258394" width="5.1100001" height="18.34" id="rect64"/><path class="cls-4" d="m 241.28,14.58584 h 4.65 c 0,-0.61 -0.22,-1.16 -0.68,-1.61 -0.46,-0.47 -0.97,-0.7 -1.6,-0.7 -1.57,0 -2.38,0.78 -2.38,2.31 m 9.77,2.69 h -9.77 c 0,0.76 0.24,1.39 0.73,1.88 0.5,0.49 1.1,0.74 1.79,0.74 0.92,0 1.56,-0.4 1.92,-1.18 h 4.89 c -0.4,1.54 -1.34,2.67 -2.78,3.43 -1.21,0.64 -2.66,0.97 -4.36,0.97 -2.14,0 -3.88,-0.59 -5.22,-1.78 -1.41,-1.25 -2.11,-2.98 -2.11,-5.14 0,-2.16 0.7,-3.91 2.11,-5.25 1.36,-1.2900001 3.1,-1.9300001 5.18,-1.9300001 2.36,0 4.21,0.76 5.59,2.2900001 1.39,1.55 2.05,3.53 2.02,5.97" id="path64"/><polygon class="cls-4" points="275.19,32.56 280.31,32.56 282.58,40.98 284.81,32.56 289.74,32.56 285.38,45.89 279.68,45.89 " id="polygon64" transform="translate(-24.71,-23.13416)"/><g id="g67" transform="translate(-24.71,-23.13416)"><path class="cls-4" d="m 294.36,37.72 h 4.65 c 0,-0.61 -0.22,-1.16 -0.68,-1.61 -0.46,-0.47 -0.97,-0.7 -1.6,-0.7 -1.57,0 -2.38,0.78 -2.38,2.31 m 9.77,2.69 h -9.77 c 0,0.76 0.24,1.39 0.73,1.88 0.5,0.49 1.1,0.74 1.79,0.74 0.92,0 1.56,-0.4 1.92,-1.18 h 4.89 c -0.4,1.54 -1.34,2.67 -2.78,3.43 -1.21,0.64 -2.66,0.97 -4.36,0.97 -2.14,0 -3.88,-0.59 -5.22,-1.78 -1.41,-1.25 -2.11,-2.98 -2.11,-5.14 0,-2.16 0.7,-3.91 2.11,-5.25 1.36,-1.29 3.1,-1.93 5.18,-1.93 2.36,0 4.21,0.76 5.59,2.29 1.39,1.55 2.05,3.53 2.02,5.97" id="path65"/><path class="cls-4" d="M 305.22,45.89 V 32.56 h 4.67 v 2.09 c 1.17,-1.65 2.64,-2.47 4.36,-2.47 3.33,0 5,1.92 5,5.73 v 8 h -5.11 v -7.07 c 0,-1.67 -0.61,-2.5 -1.8,-2.5 -1.32,0 -2,0.91 -2,2.75 v 6.79 h -5.13 v 0.02 z" id="path66"/><path class="cls-4" d="m 325.5,37.72 h 4.65 c 0,-0.61 -0.22,-1.16 -0.68,-1.61 -0.46,-0.47 -0.97,-0.7 -1.6,-0.7 -1.59,0 -2.38,0.78 -2.38,2.31 m 9.77,2.69 h -9.77 c 0,0.76 0.24,1.39 0.73,1.88 0.5,0.49 1.1,0.74 1.79,0.74 0.92,0 1.56,-0.4 1.92,-1.18 h 4.89 c -0.4,1.54 -1.34,2.67 -2.78,3.43 -1.21,0.64 -2.66,0.97 -4.36,0.97 -2.14,0 -3.88,-0.59 -5.22,-1.78 -1.41,-1.25 -2.11,-2.98 -2.11,-5.14 0,-2.16 0.7,-3.91 2.11,-5.25 1.36,-1.29 3.1,-1.93 5.18,-1.93 2.36,0 4.21,0.76 5.59,2.29 1.37,1.55 2.05,3.53 2.02,5.97" id="path67"/></g><rect class="cls-3" x="219.75999" y="4.4858408" width="0.56999999" height="18.73" id="rect67"/><g id="g69" transform="translate(-24.71,-23.13416)"><path class="cls-6" d="m 195.95,59.56 h 1.65 c 0.07,0.68 0.51,0.99 1.3,0.99 0.53,0 1.06,-0.21 1.06,-0.72 0,-0.55 -0.53,-0.66 -1.45,-0.89 -1.15,-0.28 -2.36,-0.64 -2.36,-2.08 0,-1.44 1.16,-2.11 2.66,-2.11 1.5,0 2.57,0.66 2.64,2.11 h -1.59 c -0.07,-0.53 -0.46,-0.82 -1.06,-0.82 -0.57,0 -0.95,0.27 -0.95,0.65 0,0.47 0.51,0.59 1.5,0.81 1.23,0.3 2.35,0.68 2.35,2.16 0,1.48 -1.19,2.24 -2.73,2.24 -1.81,0.02 -2.97,-0.8 -3,-2.33" id="path68"/><path class="cls-6" d="m 203.94,58.33 c 0,-2.05 1.28,-3.6 3.28,-3.6 0.77,0 1.41,0.23 1.89,0.61 0.57,0.46 0.92,1.12 0.99,1.9 h -1.63 c -0.09,-0.61 -0.55,-1.08 -1.25,-1.08 -1.08,0 -1.58,0.93 -1.58,2.18 0,1.25 0.61,2.16 1.59,2.16 0.73,0 1.21,-0.47 1.28,-1.14 h 1.63 c -0.06,0.68 -0.35,1.31 -0.79,1.76 -0.51,0.51 -1.19,0.78 -2.13,0.78 -1.96,0 -3.3,-1.52 -3.3,-3.56" id="path69"/></g><polygon class="cls-6" points="216.58,58.84 214.27,58.84 214.27,61.73 212.62,61.73 212.62,54.86 214.25,54.86 214.25,57.48 216.58,57.48 216.58,54.86 218.21,54.86 218.21,61.73 216.58,61.73 " id="polygon69" transform="translate(-24.71,-23.13416)"/><g id="g71" transform="translate(-24.71,-23.13416)"><path class="cls-6" d="m 225.69,58.31 c 0,-1.25 -0.53,-2.2 -1.59,-2.2 -1.06,0 -1.61,0.97 -1.61,2.2 0,1.23 0.55,2.2 1.61,2.2 1.06,0 1.59,-0.95 1.59,-2.2 m -4.89,0 c 0,-2.05 1.26,-3.6 3.28,-3.6 2.02,0 3.3,1.52 3.3,3.6 0,2.08 -1.26,3.6 -3.3,3.6 -2.04,0 -3.28,-1.56 -3.28,-3.6" id="path70"/><path class="cls-6" d="m 234.54,58.31 c 0,-1.25 -0.53,-2.2 -1.59,-2.2 -1.06,0 -1.61,0.97 -1.61,2.2 0,1.23 0.55,2.2 1.61,2.2 1.06,0 1.59,-0.95 1.59,-2.2 m -4.89,0 c 0,-2.05 1.26,-3.6 3.28,-3.6 2.02,0 3.3,1.52 3.3,3.6 0,2.08 -1.26,3.6 -3.3,3.6 -2.04,0 -3.28,-1.56 -3.28,-3.6" id="path71"/></g><polygon class="cls-6" points="240.38,54.86 240.38,60.3 243.37,60.3 243.37,61.75 238.73,61.75 238.73,54.86 238.75,54.86 " id="polygon71" transform="translate(-24.71,-23.13416)"/><g id="g73" transform="translate(-24.71,-23.13416)"><path class="cls-6" d="m 245.53,59.56 h 1.65 c 0.07,0.68 0.51,0.99 1.3,0.99 0.53,0 1.06,-0.21 1.06,-0.72 0,-0.55 -0.53,-0.66 -1.45,-0.89 -1.15,-0.28 -2.36,-0.64 -2.36,-2.08 0,-1.44 1.16,-2.11 2.66,-2.11 1.5,0 2.57,0.66 2.64,2.11 h -1.59 c -0.07,-0.53 -0.46,-0.82 -1.06,-0.82 -0.57,0 -0.95,0.27 -0.95,0.65 0,0.47 0.51,0.59 1.5,0.81 1.23,0.3 2.35,0.68 2.35,2.16 0,1.48 -1.19,2.24 -2.73,2.24 -1.81,0.02 -2.97,-0.8 -3,-2.33" id="path72"/><path class="cls-6" d="m 261.74,58.31 c 0,-1.25 -0.53,-2.2 -1.59,-2.2 -1.06,0 -1.61,0.97 -1.61,2.2 0,1.23 0.55,2.2 1.61,2.2 1.06,0 1.59,-0.95 1.59,-2.2 m -4.89,0 c 0,-2.05 1.26,-3.6 3.28,-3.6 2.02,0 3.3,1.52 3.3,3.6 0,2.08 -1.26,3.6 -3.3,3.6 -2.04,0 -3.28,-1.56 -3.28,-3.6" id="path73"/></g><polygon class="cls-6" points="267.61,61.73 265.98,61.73 265.96,54.86 270.91,54.86 270.91,56.28 267.61,56.28 267.61,57.67 270.37,57.67 270.37,59.03 267.61,59.03 " id="polygon73" transform="translate(-24.71,-23.13416)"/><g id="g76" transform="translate(-24.71,-23.13416)"><path class="cls-6" d="m 279.88,60.36 c 0.53,0 0.88,-0.32 0.88,-0.8 0,-0.55 -0.39,-0.81 -0.9,-0.81 h -1.45 v 1.63 h 1.47 z m -0.13,-2.77 c 0.48,0 0.79,-0.25 0.79,-0.68 0,-0.43 -0.31,-0.68 -0.79,-0.68 h -1.34 v 1.36 z m -2.97,-2.73 h 3.21 c 0.68,0 1.19,0.17 1.54,0.47 0.38,0.32 0.57,0.76 0.57,1.31 0,0.68 -0.35,1.12 -0.94,1.35 v 0.04 c 0.72,0.23 1.19,0.85 1.19,1.67 0,0.68 -0.24,1.2 -0.68,1.54 -0.38,0.32 -0.93,0.49 -1.63,0.49 h -3.28 l 0.02,-6.86 z" id="path74"/><path class="cls-6" d="m 284.88,59.32 v -4.46 h 1.63 v 4.51 c 0,0.67 0.33,1.12 1.13,1.12 0.75,0 1.12,-0.47 1.12,-1.16 v -4.49 h 1.63 v 4.47 c 0,1.57 -0.92,2.54 -2.79,2.54 -1.81,0.02 -2.73,-0.93 -2.73,-2.54" id="path75"/><path class="cls-6" d="m 292.95,59.56 h 1.65 c 0.07,0.68 0.51,0.99 1.3,0.99 0.53,0 1.06,-0.21 1.06,-0.72 0,-0.55 -0.53,-0.66 -1.45,-0.89 -1.15,-0.28 -2.36,-0.64 -2.36,-2.08 0,-1.44 1.16,-2.11 2.66,-2.11 1.5,0 2.57,0.66 2.64,2.11 h -1.59 c -0.07,-0.53 -0.46,-0.82 -1.06,-0.82 -0.57,0 -0.95,0.27 -0.95,0.65 0,0.47 0.51,0.59 1.5,0.81 1.23,0.3 2.35,0.68 2.35,2.16 0,1.48 -1.19,2.24 -2.73,2.24 -1.81,0.02 -2.97,-0.8 -3,-2.33" id="path76"/></g><rect class="cls-6" x="276.48001" y="31.72584" width="1.63" height="6.8600001" id="rect76"/><path class="cls-6" d="m 280.93,31.72584 h 1.65 l 1.96,3.45 c 0.11,0.19 0.46,0.87 0.46,0.87 h 0.02 c 0,0 -0.02,-0.81 -0.02,-1.06 v -3.26 h 1.59 v 6.86 h -1.65 l -1.94,-3.41 c -0.11,-0.19 -0.48,-0.93 -0.48,-0.93 0,0 0.02,0.89 0.02,1.12 v 3.2 h -1.59 l -0.02,-6.85 z" id="path77"/><polygon class="cls-6" points="315.78,60.29 319.24,60.29 319.24,61.73 314.14,61.73 314.14,54.86 319.18,54.86 319.18,56.27 315.78,56.27 315.78,57.5 318.69,57.5 318.69,58.83 315.78,58.83 " id="polygon77" transform="translate(-24.71,-23.13416)"/><g id="g79" transform="translate(-24.71,-23.13416)"><path class="cls-6" d="m 321.51,59.56 h 1.65 c 0.07,0.68 0.51,0.99 1.3,0.99 0.53,0 1.06,-0.21 1.06,-0.72 0,-0.55 -0.53,-0.66 -1.45,-0.89 -1.15,-0.28 -2.36,-0.64 -2.36,-2.08 0,-1.44 1.16,-2.11 2.66,-2.11 1.5,0 2.57,0.66 2.64,2.11 h -1.59 c -0.07,-0.53 -0.46,-0.82 -1.06,-0.82 -0.57,0 -0.95,0.27 -0.95,0.65 0,0.47 0.51,0.59 1.5,0.81 1.23,0.3 2.35,0.68 2.35,2.16 0,1.48 -1.19,2.24 -2.73,2.24 -1.79,0.02 -2.97,-0.8 -3,-2.33" id="path78"/><path class="cls-6" d="m 329.55,59.56 h 1.65 c 0.07,0.68 0.51,0.99 1.3,0.99 0.53,0 1.06,-0.21 1.06,-0.72 0,-0.55 -0.53,-0.66 -1.45,-0.89 -1.15,-0.28 -2.36,-0.64 -2.36,-2.08 0,-1.44 1.16,-2.11 2.66,-2.11 1.5,0 2.57,0.66 2.64,2.11 h -1.59 c -0.07,-0.53 -0.46,-0.82 -1.06,-0.82 -0.57,0 -0.95,0.27 -0.95,0.65 0,0.47 0.51,0.59 1.5,0.81 1.23,0.3 2.35,0.68 2.35,2.16 0,1.48 -1.19,2.24 -2.73,2.24 -1.81,0.02 -2.97,-0.8 -3,-2.33" id="path79"/></g><rect class="cls-6" x="152.89" y="5.3958406" width="1.53" height="33.389999" id="rect79"/></svg>