<?xml version="1.0" encoding="UTF-8" standalone="no"?>
<!DOCTYPE svg PUBLIC "-//W3C//DTD SVG 1.1//EN" "http://www.w3.org/Graphics/SVG/1.1/DTD/svg11.dtd">
<!-- Created with Vectornator (http://vectornator.io/) -->
<svg height="100%" stroke-miterlimit="10" style="fill-rule:nonzero;clip-rule:evenodd;stroke-linecap:round;stroke-linejoin:round;" version="1.1" viewBox="0 0 24 24" width="100%" xml:space="preserve" xmlns="http://www.w3.org/2000/svg" xmlns:vectornator="http://vectornator.io" xmlns:xlink="http://www.w3.org/1999/xlink">
<defs/>
<g id="g6" vectornator:layerName="g6">
<path d="M4.392 7.472L10.2364 7.472M4.392 5.728L13.695 5.728M4.392 9.312L8.74001 9.312" fill="#ffffff" fill-rule="nonzero" opacity="1" stroke="#000000" stroke-linecap="round" stroke-linejoin="round" stroke-width="1"/>
<path d="M23.299 9.903L23.299 17.159C23.299 18.551 22.243 19.703 20.945 19.703L19.48 19.703L16.875 23.135C16.684 23.327 16.395 23.327 16.202 23.135L15.971 19.703L11.139 19.703C9.843 19.703 8.787 18.575 8.787 17.159L8.787 9.903C8.787 8.487 9.843 7.335 11.139 7.335L20.995 7.335C22.291 7.335 23.348 8.487 23.299 9.903Z" fill="none" opacity="1" stroke="#000000" stroke-linecap="round" stroke-linejoin="round" stroke-width="1"/>
<path d="M19.973 13.688L12.117 13.688M19.973 11.943L12.117 11.943M19.973 15.527L12.117 15.527" fill="#ffffff" fill-rule="nonzero" opacity="1" stroke="#000000" stroke-linecap="round" stroke-linejoin="round" stroke-width="1"/>
<path d="M23.2992 9.89462L23.2992 17.1506C23.2992 18.5426 22.2432 19.6946 20.9452 19.6946L19.4802 19.6946L16.8752 23.1266C16.6842 23.3186 16.3952 23.3186 16.2022 23.1266L15.9712 19.6946L11.1392 19.6946C9.84318 19.6946 8.78718 18.5666 8.78718 17.1506L8.78718 9.89462C8.78718 8.47862 9.84318 7.32662 11.1392 7.32662L20.9952 7.32662C22.2912 7.32663 23.3482 8.47863 23.2992 9.89462Z" fill="none" opacity="1" stroke="#000000" stroke-linecap="round" stroke-linejoin="round" stroke-width="1"/>
<path d="M2.9375 1.125C1.6415 1.125 0.577001 2.2715 0.625 3.6875L0.625 10.9375C0.625 12.3295 1.67275 13.5 2.96875 13.5L3.8125 13.5L4.0625 16.9062C4.2545 17.0973 4.52675 17.0973 4.71875 16.9062L7.46875 13.5L8.78125 13.5L8.78125 9.90625C8.78125 8.49025 9.86025 7.34375 11.1562 7.34375L17.125 7.34375L17.125 3.6875C17.125 2.2715 16.0772 1.125 14.7812 1.125L2.9375 1.125Z" fill="none" opacity="1" stroke="#000000" stroke-linecap="round" stroke-linejoin="round" stroke-width="1"/>
</g>
</svg>
