<?xml version="1.0" encoding="UTF-8" standalone="no"?>
<!DOCTYPE svg PUBLIC "-//W3C//DTD SVG 1.1//EN" "http://www.w3.org/Graphics/SVG/1.1/DTD/svg11.dtd">
<!-- Created with Vectornator (http://vectornator.io/) -->
<svg height="100%" stroke-miterlimit="10" style="fill-rule:nonzero;clip-rule:evenodd;stroke-linecap:round;stroke-linejoin:round;" version="1.1" viewBox="0 0 24 24" width="100%" xml:space="preserve" xmlns="http://www.w3.org/2000/svg" xmlns:vectornator="http://vectornator.io" xmlns:xlink="http://www.w3.org/1999/xlink">
<defs/>
<clipPath id="ArtboardFrame">
<rect height="24" width="24" x="0" y="0"/>
</clipPath>
<g clip-path="url(#ArtboardFrame)" id="Untitled" vectornator:layerName="Untitled">
<path d="M6.456 10.4072L6.456 1.896C6.456 1.128 7.104 0.528 7.896 0.528L22.152 0.528C22.967 0.528 23.591 1.152 23.591 1.896L23.591 22.008C23.591 22.776 22.943 23.376 22.152 23.376L7.896 23.376C7.104 23.376 6.456 22.752 6.456 22.008L6.456 14.8264" fill="none" opacity="1" stroke="#000000" stroke-linecap="round" stroke-linejoin="round" stroke-width="1"/>
<path d="M10.584 8.28L16.607 8.28" fill="none" opacity="1" stroke="#000000" stroke-linecap="round" stroke-linejoin="round" stroke-width="1"/>
<path d="M10.584 11.928L16.607 11.928" fill="none" opacity="1" stroke="#000000" stroke-linecap="round" stroke-linejoin="round" stroke-width="1"/>
<path d="M10.584 15.84L16.607 15.84" fill="none" opacity="1" stroke="#000000" stroke-linecap="round" stroke-linejoin="round" stroke-width="1"/>
<g opacity="1">
<path d="M18.984 15.84C18.984 15.4821 19.2741 15.192 19.632 15.192C19.9899 15.192 20.28 15.4821 20.28 15.84C20.28 16.1979 19.9899 16.488 19.632 16.488C19.2741 16.488 18.984 16.1979 18.984 15.84Z" fill="#000000" fill-rule="nonzero" opacity="1" stroke="#000000" stroke-linecap="butt" stroke-linejoin="miter" stroke-width="1"/>
<path d="M18.984 11.856C18.984 11.4981 19.2741 11.208 19.632 11.208C19.9899 11.208 20.28 11.4981 20.28 11.856C20.28 12.2139 19.9899 12.504 19.632 12.504C19.2741 12.504 18.984 12.2139 18.984 11.856Z" fill="#000000" fill-rule="nonzero" opacity="1" stroke="#000000" stroke-linecap="butt" stroke-linejoin="miter" stroke-width="1"/>
<path d="M18.984 8.16C18.984 7.80212 19.2741 7.512 19.632 7.512C19.9899 7.512 20.28 7.80212 20.28 8.16C20.28 8.51788 19.9899 8.808 19.632 8.808C19.2741 8.808 18.984 8.51788 18.984 8.16Z" fill="#000000" fill-rule="nonzero" opacity="1" stroke="#000000" stroke-linecap="butt" stroke-linejoin="miter" stroke-width="1"/>
</g>
<path d="M6.34375 6.25C3.16259 6.25 0.5625 8.81884 0.5625 12C0.5625 15.1812 3.16259 17.75 6.34375 17.75C9.52491 17.75 12.0938 15.1812 12.0938 12C12.0937 8.81884 9.52491 6.25 6.34375 6.25ZM9.625 8.625C9.87047 8.625 10.0931 8.77341 10.1875 9C10.2819 9.22659 10.2324 9.49868 10.0625 9.6875C9.25057 10.5561 5.92457 14.3313 5.09375 15.2188C4.86716 15.4265 4.6452 15.3698 4.4375 15.2188L2.65625 13.9062C2.41078 13.6985 2.34243 13.3269 2.53125 13.0625C2.73895 12.817 3.11065 12.7487 3.375 12.9375L4.71875 13.9062C5.49292 13.0566 8.38793 9.69996 9.21875 8.8125C9.31316 8.69921 9.47394 8.625 9.625 8.625Z" fill="#000000" fill-rule="nonzero" opacity="1" stroke="none"/>
</g>
</svg>
